<?xml version="1.0" encoding="iso-8859-1"?>
<!-- Generator: Adobe Illustrator 14.0.0, SVG Export Plug-In . SVG Version: 6.00 Build 43363)  -->
<!DOCTYPE svg PUBLIC "-//W3C//DTD SVG 1.1//EN" "http://www.w3.org/Graphics/SVG/1.1/DTD/svg11.dtd">
<svg version="1.1" id="Layer_1" xmlns="http://www.w3.org/2000/svg" xmlns:xlink="http://www.w3.org/1999/xlink" x="0px" y="0px"
	 width="22px" height="48px" viewBox="0 0 22 48" style="enable-background:new 0 0 22 48;" xml:space="preserve">
<path style="fill:#E74C3C;" d="M21,0h-6H7H1C0.447,0,0,0.447,0,1v30c0,0.119,0.028,0.234,0.07,0.346
	c0.011,0.031,0.025,0.061,0.039,0.09c0.016,0.031,0.024,0.064,0.043,0.094l10,16C10.335,47.822,10.655,48,11,48
	s0.665-0.178,0.848-0.471l10-16c0.019-0.029,0.027-0.063,0.043-0.094c0.014-0.029,0.027-0.059,0.039-0.09
	C21.972,31.234,22,31.119,22,31V1C22,0.447,21.553,0,21,0z M8,2h6v26.567C13.176,28.208,12.145,28,11,28s-2.176,0.208-3,0.567V2z
	 M2,2h4v26.408C5.412,28.156,4.738,28,4,28c-0.737,0-1.412,0.153-2,0.404V2z M15.148,38.477c-2.682-0.619-5.615-0.619-8.297,0
	l-4.797-7.676C2.252,30.424,2.968,30,4,30c1.221,0,2,0.592,2,1c0,0.553,0.447,1,1,1s1-0.447,1-1c0-0.249,1.064-1,3-1s3,0.751,3,1
	c0,0.553,0.447,1,1,1s1-0.447,1-1c0-0.408,0.779-1,2-1c1.032,0,1.748,0.424,1.945,0.801L15.148,38.477z M18,28
	c-0.738,0-1.412,0.156-2,0.408V2h4v26.404C19.412,28.153,18.737,28,18,28z"/>
</svg>
