<?xml version="1.0" encoding="iso-8859-1"?>
<!-- Generator: Adobe Illustrator 14.0.0, SVG Export Plug-In . SVG Version: 6.00 Build 43363)  -->
<!DOCTYPE svg PUBLIC "-//W3C//DTD SVG 1.1//EN" "http://www.w3.org/Graphics/SVG/1.1/DTD/svg11.dtd">
<svg version="1.1" xmlns="http://www.w3.org/2000/svg" xmlns:xlink="http://www.w3.org/1999/xlink" x="0px" y="0px"
	 width="650.969px" height="512.002px" viewBox="0 0 650.969 512.002" style="enable-background:new 0 0 650.969 512.002;"
	 xml:space="preserve">
<g id="Layer_1">
</g>
<g id="Layer_2">
	<path style="display:none;fill:#5FA173;" d="M-771.461,264.503c0,0,10.168-13.5,15.834-27.833s12-35,9.666-45.333
		s-9.667-18.334-9.333-18s6,20,1,35.667s-29.32,71.31-70.327,76.322c0,0,21.66-2.152,34.66-8.32S-771.461,264.503-771.461,264.503z"
		/>
	<path style="display:none;fill:#5FA173;" d="M-798.294,221.67c4.345-30.751-22.333-31.333-22.333-31.333s15-2,16.667,18.667
		s-20.66,76.322-20.66,76.322S-802.628,252.337-798.294,221.67z"/>
	<path style="display:none;fill:#5FA173;" d="M-843.294,320.004c0,0-7.666,10.665-5.666,16.332
		c1.687,4.78,30.172-6.564,41.848-15.835c-12.601,7.243-34.937,6.345-33.515,3.502c1.667-3.333,3.333-6-8-10.667s9-54.667,9-54.667
		c-10.333,8.667-20.333,37-20.667,50S-843.294,320.004-843.294,320.004z"/>
	<g>
		<g>
			<path style="fill:#28272A;" d="M583.986,291.32c8.175-1.703,8.516-10.899,7.153-14.987c-1.092-3.277,10.942-2.614,15.762-2.222
				c-25.254-13.966-53.571-19.237-53.571-19.237l-3.746,13.284c0,0,2.384,5.791,17.03,18.053c3.17,2.654,7.634,4.973,12.712,6.991
				C579.965,292.521,581.356,291.868,583.986,291.32z"/>
			<path style="fill:#3498DB;" d="M619.28,281.118c-4.049-2.935-8.503-5.896-12.877-8.315c-5.034-0.409-17.439-0.801-16.299,2.623
				c1.423,4.27,1.066,13.876-7.473,15.655c-2.747,0.572-5.162,1.629-5.829,2.341c13.029,10.12,44.674,10.144,47.184,11.259
				c3.202,1.423,4.332,7.999,8.602,12.27c4.271,4.27,18.003,5.086,18.358,0.817C651.303,313.498,647.744,301.755,619.28,281.118z"/>
			<path style="fill:#7A6F68;" d="M466.895,250.168c0.405-4.013,1.42-7.408,2.551-8.974c-69.787-3.392-147.885,9.657-226.32,37.869
				c-39.465,14.194-76.837,35.343-111.079,62.856c-27.314,21.948-52.705,47.972-75.465,77.348
				C20.69,465.589,2.997,505.024-0.001,512.002h20.906c6.897-14.391,23.379-45.844,50.694-81.099
				c34.278-44.242,92.978-103.397,177.956-133.962c77.193-27.765,151.957-40.033,218.257-37.058
				C466.861,258.313,466.454,254.525,466.895,250.168z"/>
			<path style="fill:#665B56;" d="M464.841,246.503c-67.887-2.159-146.188,10.865-221.865,38.085
				c-39.465,14.194-76.837,35.343-111.079,62.856c-27.314,21.948-52.705,47.972-75.465,77.348
				c-28.648,36.975-45.69,72.015-52.932,87.21h12.256c6.897-14.391,23.379-48.318,50.694-83.573
				c34.278-44.242,92.978-103.397,177.956-133.962c77.193-27.765,151.957-40.033,218.257-37.058
				c-0.951-1.571,0.737-4.715,1.178-9.073C463.885,247.905,464.784,246.918,464.841,246.503z"/>
			<path style="fill:#544B47;" d="M467.049,252.045c-67.887-2.159-143.247,7.798-218.924,35.018
				c-39.465,14.194-76.837,35.343-111.079,62.856c-27.314,21.948-52.705,47.972-75.465,77.348
				c-28.648,36.975-45.69,69.54-52.932,84.735h12.256c6.897-14.391,23.379-45.844,50.694-81.099
				c34.278-44.242,92.978-103.397,177.956-133.962c77.193-27.765,151.957-40.033,218.257-37.058
				C466.861,258.313,466.992,252.46,467.049,252.045z"/>
			<path style="fill:#6C6C69;" d="M555.156,263.299c1.402-3.947,1.028-6.631,0.718-8.703c-26.123-7.273-54.343-11.934-84.181-13.802
				c-2.129-0.133-4.268-0.247-6.411-0.351c-1.21,1.676-2.297,5.311-2.731,9.607c-0.471,4.665-0.034,8.72,0.983,10.401
				c30.188,1.354,59.35,2.769,85.76,10.013C550.954,269.52,553.53,267.872,555.156,263.299z"/>
			<path style="fill:#62A878;" d="M348.007,227.086c0,0,0.5,5-4.75,7.75l24,6.25c0,0,19.75-4,22.75-0.5s6.75,18,4.75,23.5
				s-11.25,4.5-14.75,3.75c-2.75,3.5-14.25,6-17.75,3.75c0,0,0.25-19.75-4.5-21.25s-38.75-5.5-38.75-5.5l11.5-22.25L348.007,227.086
				z"/>
			<path style="fill:#6CB784;" d="M108.08,270.021c-14.162,3.542-14.141,1.454,0.063-6.019c-14.085,3.297-13.988,1.208,0.279-6.018
				c-13.998,3.051-13.826,0.964,0.496-6.014c-13.903,2.808-13.656,0.724,0.71-6.006c-13.8,2.566-13.479,0.486,0.924-5.995
				c-13.688,2.326-13.294,0.25,1.136-5.981c-13.569,2.087-13.102,0.019,1.346-5.962c-13.441,1.851-12.901-0.21,1.557-5.941
				c-13.305,1.617-12.692-0.436,1.764-5.915c-13.16,1.384-12.476-0.659,1.972-5.887c-13.009,1.154-12.252-0.877,2.179-5.855
				c-12.85,0.927-12.022-1.092,2.382-5.819c-12.681,0.703-11.783-1.303,2.586-5.781c-12.505,0.481-11.538-1.509,2.787-5.737
				c-12.32,0.262-11.283-1.712,2.989-5.691c-12.129,0.046-11.022-1.911,3.188-5.642c-11.93-0.166-10.755-2.105,3.388-5.589
				c-11.724-0.375-10.479-2.294,3.585-5.532c-11.509-0.581-10.197-2.479,3.78-5.472c-11.285-0.783-9.906-2.659,3.977-5.409
				c-11.057-0.98-9.609-2.834,4.169-5.341c-10.819-1.174-9.305-3.003,4.362-5.271c-10.574-1.365-8.994-3.167,4.554-5.196
				c-10.323-1.551-8.678-3.327,4.743-5.119c-10.063-1.732-8.353-3.48,4.933-5.038c-9.798-1.909-8.021-3.627,5.119-4.953
				c-9.524-2.082-7.684-3.77,5.306-4.865c-9.242-2.249-7.337-3.905,5.49-4.774c-8.953-2.41-6.984-4.034,5.676-4.678
				c-8.658-2.568-6.627-4.157,5.857-4.58c-8.357-2.72-6.262-4.273,6.038-4.478c-8.047-2.867-5.889-4.384,6.22-4.372
				c-7.731-3.008-5.544-4.459,6.303-4.185c-7.479-3.087-5.299-4.447,6.283-3.923c-7.23-3.158-5.062-4.43,6.252-3.67
				c-6.988-3.221-4.833-4.409,6.21-3.425c-6.753-3.278-4.617-4.384,6.153-3.189c-6.521-3.327-4.409-4.354,6.088-2.961
				c-6.3-3.371-4.215-4.322,6.008-2.743c-6.084-3.408-4.029-4.285,5.918-2.531c-5.876-3.439-3.857-4.247,5.815-2.33
				c-5.676-3.466-3.697-4.206,5.701-2.135c-5.484-3.487-3.55-4.163,5.574-1.95c-5.303-3.503-3.416-4.118,5.438-1.772
				c-5.13-3.516-3.296-4.072,5.287-1.604c-4.969-3.524-3.189-4.024,5.125-1.443c-4.817-3.53-3.099-3.978,4.953-1.292
				c-4.678-3.531-3.024-3.929,4.767-1.148c-4.549-3.53-2.964-3.881,4.57-1.014c-4.434-3.525-2.92-3.833,4.36-0.887
				c-4.33-3.52-2.894-3.785,4.14-0.769c-4.24-3.511-2.884-3.739,3.907-0.659c-4.163-3.501-2.892-3.695,3.663-0.558
				c-4.101-3.491-2.917-3.651,3.406-0.465c-4.053-3.479-2.963-3.611,3.138-0.381c-4.02-3.466-3.026-3.572,2.858-0.305
				c-4.002-3.454-3.11-3.536,2.566-0.237c-4.001-3.442-3.216-3.503,2.262-0.179c-4.016-3.431-3.339-3.474,1.948-0.128
				c-4.048-3.419-3.485-3.449,1.619-0.085c-4.099-3.41-3.653-3.427,1.28-0.052c-4.165-3.401-3.842-3.41,0.93-0.026
				c-4.251-3.396-4.054-3.398,0.565-0.01c-4.355-3.391-4.289-3.391,0.191-0.001L108.08,270.021z"/>
			<path style="fill:#6CB784;" d="M342.674,47.336c0,0-67.333,0-136,47s-106.167,113-105.667,178.5s32.5,189.5,133.5,198.5
				s112-78,105-101s-29.5-53.5-71.5-47s-47.5,45.5-42.5,64.5s26.5,36.5,51,30.5s25-38.5,12-45s-23.5-3.5-26.5,0.5s2.25,4.75,6,4
				s16.75-0.75,16.5,11s-8.25,20-25,14.75s-22-28-14.25-44.75s37.25-24,53-13s25.75,44,9,67s-62.25,26.835-95.583,11.834
				s-56.001-61.334-49.334-103.667c0,0,24,5.335,36.333-0.999c0,0-7.665,10.665-5.666,16.332c2,5.667,41.668-11.33,46.334-20.665
				c1.666-11.002,0.334-17.002-1.334-18.002c-1.666-1-12.432-11.068-20.66-12.345c0,0,21.66-2.152,34.66-8.32
				s18.5-12.501,18.5-12.501s6.5,3.167,16.166,1.667c9.668-1.5,43.668-7.5,45.001-6.167s1.835,9.833,0.001,12.5
				c0,0-1.379,4.544,2.593,4.778s12.615,0.233,13.55-3.504c0,0,1.401,1.869,4.672,2.103s10.513,0.232,11.214-2.337
				s0.934-20.092-2.103-24.063s-38.779-7.008-38.779-7.008s8.06-8.438,9.52-16.134c9.87-5.593,17.666-19.5,20.916-30.25
				s-0.25-20.25-7-31s-16-45.75-12.5-66.25S346.591,59.836,342.674,47.336z"/>
			<path style="fill:#82BD85;" d="M158.507,416.336c0,0-34-95.5-17-157s81-130,130-131.5s57.5-22,59.5-30.5s15.5-47-3-42
				s-80,6-154,77s-67.5,148-63.5,186s31.5,90.5,35.5,96S162.007,424.336,158.507,416.336z"/>
			<path style="fill:#98C386;" d="M130.944,364.971c-6.644-16.475-12.824-35.339-14.492-51.182
				c-1.652-15.694-4.728-44.907,2.328-77.46c8.076-37.267,27.641-71.005,58.15-100.277c60.958-58.487,112.998-67.746,138.008-72.195
				c3.38-0.602,6.256-1.113,8.762-1.662c-0.093,3.779-1.274,10.885-5.012,24.114c-0.614,2.174-1.1,3.891-1.416,5.236
				c-3.25,13.811-21.031,21.906-50.072,22.795c-56.4,1.727-122.34,77.36-139.332,138.831
				C118.317,287.725,123.737,331.474,130.944,364.971L130.944,364.971z"/>
			<path style="fill:#AEC987;" d="M142.485,186.533c9.377-16.568,21.634-32.142,36.701-46.598
				c54.779-52.559,101.96-63.86,127.584-68.616c-0.615,2.514-1.392,5.47-2.372,8.939c-0.651,2.307-1.161,4.109-1.526,5.665
				c-2.024,8.602-17.598,14.384-40.645,15.09c-28.843,0.883-61.289,18.672-91.361,50.092
				C160.434,162.004,150.842,174.035,142.485,186.533L142.485,186.533z"/>
			<path style="fill:#62A878;" d="M297.007,99.836c-4.5,33,35.5,80,42.5,99.5c2.619,7.296,2.788,13.752,1.974,18.976
				c5.445-6.565,9.618-15.086,11.776-22.226c3.25-10.75-0.25-20.25-7-31s-16-45.75-12.5-66.25s12.834-39,8.917-51.5
				c0,0-5.12,0.002-13.962,0.985C318.548,57.223,300.228,76.223,297.007,99.836z"/>
			<path style="fill:#6BB581;" d="M505.674,178.336c0,0,15.999,0.334,13.333-13.333s-31-88.667-49-104s-64.998-17-71.332-27.333
				s-22.668-34-33.668-33.667S352.674,1.67,348.674,15.67s-24.999,88.334-24.333,100.667s12,52.667,21.333,66.333
				s-13.333,43.666-13.333,43.666s43.666,6.667,69.666,5.333s65.998-9.667,69.999-13S505.674,178.336,505.674,178.336z"/>
			<path style="fill:#62A878;" d="M433.007,171.336c-31-3.5-42.5-7.5-51.611-19.84s-40.889-22.66-49.389-24.16
				c-3.244-0.572-4.665,1.115-5.185,3.418c3.97,17.164,11.955,41.817,18.852,51.916c9.333,13.666-13.333,43.666-13.333,43.666
				s4.66,0.711,11.842,1.623c-6.381,2.875-5.56,2.978,2.33,0.292c0.668,0.083,1.353,0.166,2.054,0.25
				c-6.049,2.911-5.135,3.019,2.596,0.307c0.737,0.085,1.488,0.171,2.253,0.257c-5.711,2.943-4.721,3.052,2.812,0.31
				c0.793,0.085,1.597,0.171,2.411,0.255c-5.37,2.971-4.32,3.077,2.977,0.301c0.836,0.083,1.68,0.164,2.53,0.243
				c-5.03,2.994-3.94,3.093,3.094,0.281c0.864,0.076,1.733,0.149,2.606,0.221c-4.698,3.011-3.583,3.099,3.163,0.249
				c0.88,0.066,1.762,0.13,2.644,0.19c-4.378,3.02-3.257,3.092,3.182,0.205c0.881,0.053,1.762,0.103,2.639,0.149
				c-4.073,3.021-2.963,3.074,3.152,0.15c0.869,0.037,1.733,0.069,2.593,0.098c-3.79,3.012-2.707,3.041,3.074,0.083
				c0.844,0.018,1.68,0.03,2.507,0.037c-3.533,2.992-2.496,2.994,2.946,0.004c0.804-0.005,1.598-0.017,2.38-0.034
				c-3.308,2.96-2.332,2.93,2.769-0.087c0.374-0.016,0.747-0.032,1.114-0.051s0.747-0.044,1.12-0.065
				c-3.093,2.921-2.124,2.857,2.749-0.18c0.771-0.056,1.552-0.117,2.341-0.184c-2.767,2.872-1.749,2.78,2.888-0.26
				c0.808-0.078,1.621-0.16,2.441-0.246c-2.443,2.819-1.392,2.703,2.986-0.331c0.832-0.096,1.667-0.196,2.507-0.3
				c-2.125,2.762-1.052,2.625,3.046-0.391c0.849-0.113,1.697-0.229,2.548-0.348c-1.795,2.678-0.722,2.523,3.05-0.44
				c0.854-0.127,1.705-0.256,2.555-0.388c-1.502,2.619-0.436,2.45,3.029-0.482c0.844-0.137,1.684-0.277,2.52-0.418
				c-1.226,2.559-0.181,2.378,2.969-0.514c0.824-0.146,1.643-0.293,2.454-0.441c-0.971,2.5,0.038,2.311,2.867-0.536
				c0.793-0.151,1.576-0.303,2.352-0.456c-0.739,2.441,0.221,2.248,2.728-0.549c0.751-0.154,1.49-0.308,2.219-0.463
				c-0.538,2.386,0.358,2.192,2.548-0.552c0.697-0.154,1.38-0.308,2.05-0.461c-0.368,2.334,0.451,2.142,2.328-0.546
				c0.633-0.152,1.248-0.302,1.848-0.452c-0.234,2.287,0.494,2.1,2.069-0.53c0.558-0.146,1.095-0.292,1.614-0.435
				c-0.141,2.244,0.482,2.067,1.77-0.505c0.471-0.139,0.919-0.275,1.346-0.41c-0.092,2.209,0.412,2.043,1.431-0.47
				c0.373-0.128,0.721-0.254,1.044-0.376c-0.09,2.181,0.281,2.031,1.053-0.427c0.264-0.116,0.499-0.228,0.709-0.336
				c-0.141,2.167,0.083,2.034,0.635-0.377c0.061-0.042,0.14-0.087,0.188-0.128c3.486-2.905,26.456-31.366,32.308-38.64
				C491.08,177.495,457.515,174.104,433.007,171.336z"/>
			<path style="fill:#3B6E50;" d="M379.288,145.917c-1.339-0.447-7.813,3.125-8.928,6.472s4.688-2.678,8.035-0.893
				s11.828,13.613,20.979,16.515c8.121,2.575,85.848,10.775,104.482,12.587c1.143-1.42,1.817-2.261,1.817-2.261
				s-86.659-8.763-101.166-11.888S380.627,146.363,379.288,145.917z"/>
			<path style="fill:#5FA173;" d="M484.174,148.003c2.749-0.687-3.168-11-5.334-11.333s-8.665,5.167-6.999,6.667
				S482.174,148.503,484.174,148.003z"/>
			<path style="fill:#4B805B;" d="M478.237,143.54c2.749-0.687,2.769-6.537,0.603-6.87s-8.665,5.167-6.999,6.667
				S476.237,144.04,478.237,143.54z"/>
			<path style="fill:#4D815D;" d="M379.257,142.836c-1.77,0.965-12.75,1.25-13,3.75s-4.25-3,0.25-4.75
				S382.007,141.336,379.257,142.836z"/>
			<path style="fill:#E9EAE9;" d="M554.272,259.19c-28.508-9.5-75.196-12.42-88.838-13.092c-0.309,1.292-0.556,2.742-0.712,4.286
				c-0.128,1.267-0.177,2.475-0.169,3.605c15.157,0.183,60.272,1.487,88.16,10.347c0.249-0.515,0.486-1.073,0.705-1.689
				C553.874,261.365,554.129,260.229,554.272,259.19z"/>
			<ellipse style="fill:#5FA173;" cx="417.091" cy="103.378" rx="44.083" ry="42.958"/>
			<circle style="fill:#D9E1E4;" cx="420.841" cy="99.003" r="40.333"/>
			
				<ellipse transform="matrix(0.7963 0.6049 -0.6049 0.7963 136.4554 -247.8529)" style="fill:#E9F2F5;" cx="436.265" cy="78.696" rx="19.9" ry="12.131"/>
			
				<ellipse transform="matrix(-0.7971 -0.6039 0.6039 -0.7971 646.2534 464.7225)" style="fill:#E9F2F5;" cx="401.209" cy="123.778" rx="11.04" ry="6.73"/>
			<circle style="fill:#486257;" cx="414.506" cy="76.67" r="10"/>
			<circle style="fill:#28362F;" cx="415.59" cy="74.419" r="3.917"/>
			<path style="fill:#98C386;" d="M242.48,367.527c-1.558,5.378-1.749,11.709-0.219,18.179
				c3.661,15.483,15.765,25.876,27.034,23.212c4.176-0.987,7.645-3.636,10.179-7.357c-4.077,3.691-10.673,4.939-19.968,2.026
				C245.524,399.204,239.563,382.628,242.48,367.527z"/>
			<g>
				<g>
					<g>
						<path style="fill:#98C386;" d="M225.507,387.836c-5-19,2.404-50.707,44.404-57.207s62.596,16.707,69.596,39.707
							c-7-23-29.5-53.5-71.5-47S220.507,368.836,225.507,387.836z"/>
					</g>
				</g>
			</g>
			<path style="fill:#98C386;" d="M162.34,321.003c-6.667,42.333,5.167,90.333,50.167,112.333c32.839,16.055,78,2.5,94.75-20.5
				c-16.75,23-62.25,26.835-95.583,11.834S155.673,363.336,162.34,321.003z"/>
			<path style="fill:#68B07E;" d="M447.968,191.078c4.632-4.632-35.144-12.38-68.689-17.971s-23.962,12.38-16.773,24.76
				S434.389,204.656,447.968,191.078z"/>
			<path style="fill:#6CB784;" d="M394.085,190.229c-9.32,0-21.207,0.824-23.912-10.712c-0.875-3.731,9.432-1.37,11.281-1.062
				c7.503,1.25,15.063,2.224,22.481,3.905c14.314,3.245,8.438,7.243,5.979,7.441C404.649,190.228,399.363,190.229,394.085,190.229z"
				/>
			<path style="fill:#82BD85;" d="M391.377,27.984C385.46,17.517,373.184,2.825,367.378,4.76s-30.191,54.576-15.096,68.124
				s38.32-11.611,52.255-14.708s28.642-2.709,42.964,4.258s29.417,8.128,20.128-0.387s-44.897-16.256-54.575-18.966
				S396.409,36.886,391.377,27.984z"/>
			<path style="fill:#98C386;" d="M424.223,47.581c-6.624-1.205-24.171-4.584-25.004-1.25s45.84,8.335,40.84,6.251
				S428.807,48.414,424.223,47.581z"/>
			<path style="fill:#68B07E;" d="M265.185,247.471c12.378-14.554,23.623-34.096,25.015-49.034
				c-0.653-11.524-3.192-20.101-3.192-20.101s0.5,12.5-12,25.5s-40,13-41,24c-0.617,6.794-6.826,27.122-11.485,41.677
				C232.558,266.95,254.395,260.159,265.185,247.471z"/>
			<path style="fill:#5FA173;" d="M217.347,285.325c0,0,21.66-2.152,34.66-8.32s18.5-12.501,18.5-12.501s0.003-1.233,0.924-4.337
				c-16.405,13.501-41.473,18.13-52.222,19.55C218.067,283.183,217.347,285.325,217.347,285.325z"/>
			<path style="fill:#63A879;" d="M290.199,198.437c-1.392,14.938-12.637,34.48-25.015,49.034
				c-10.79,12.688-32.627,19.479-42.663,22.042c-1.267,3.958-2.419,7.488-3.313,10.203c10.749-1.42,35.816-6.048,52.222-19.55
				c1.305-4.397,4.455-12.554,12.076-26.33C289.78,222.497,290.81,209.185,290.199,198.437z"/>
			<path style="fill:#5FA173;" d="M146.231,301.551c-4.392,1.396-3.893,7.778-1.891,13.785c2.229,6.689,4.936,32.485,20.571,48.555
				c-3.72-13.847-4.823-28.594-2.572-42.888C162.34,321.003,143.554,322.606,146.231,301.551z"/>
			<path style="fill:#63A879;" d="M190.007,300.336c1.142-10.56,10.098-40.161,12.65-48.46c-3.935,6.08-10.773,17.215-14.65,26.793
				c-5.115,12.64-12.941,36.951-1.418,44.259c2.768-0.207,5.481-0.621,7.956-1.331c1.181-0.743,2.544-1.289,4.128-1.593
				C198.673,320.004,188.675,312.669,190.007,300.336z"/>
			<path style="fill:#68B07E;" d="M188.007,278.669c3.877-9.578,10.716-20.713,14.65-26.793c0.429-1.394,0.684-2.207,0.684-2.207
				s-6.001,3.333-9.334,8.667s-31,47-41.666,43.667c-2.658-0.83-4.652-0.915-6.109-0.452c-2.678,21.055,16.108,19.452,16.108,19.452
				s12.611,2.798,24.249,1.925C175.065,315.621,182.892,291.309,188.007,278.669z"/>
			<path style="fill:#82BD85;" d="M198.275,187.366c0,0-10.919,33.254-0.993,24.32c9.928-8.934,21.342-26.802,32.758-21.342
				s5.46,24.32,4.467,24.32c-0.992,0-10.918-2.979-8.934-15.387c1.985-12.408-13.897-0.992-20.846,7.445
				S183.882,226.08,198.275,187.366z"/>
			<path style="fill:#82BD85;" d="M201.948,312.178c2.92-6.291,10.471-25.953,15.936-24.132c5.463,1.821,19.578,9.105,16.391,12.748
				S196.028,324.927,201.948,312.178z"/>
			<path style="fill:#82BD85;" d="M290.336,250.078c0,0,14.354-7.554,20.021-7.554c5.664,0,40.729,3.123,36.605,6.472
				S282.782,257.254,290.336,250.078z"/>
			<path style="fill:#68B07E;" d="M380.361,243.042c0,0,5.971-2.514,7.542-1.257s6.6,19.169,2.2,20.741
				S377.848,261.583,380.361,243.042z"/>
			<path style="fill:#68B07E;" d="M365.905,249.326c0,0,6.914-5.027,10.057-2.199s3.456,16.655,0.628,18.227
				S364.334,270.695,365.905,249.326z"/>
			<path style="fill:#82BD85;" d="M349.966,254.724c0,0,6.016-5.157,9.884-3.438s3.009,20.198-2.148,19.769
				S348.247,261.6,349.966,254.724z"/>
			<path style="fill:#82BD85;" d="M338.361,255.583c0,0,7.305-3.868,8.595,0.43s0.431,16.76-5.156,17.19
				S334.923,266.328,338.361,255.583z"/>
			<path style="fill:#98C386;" d="M389.63,29.176c-2.844-9.483-15.954-23.465-21.587-16.895s-13.142,47.399-2.348,45.053
				S391.037,33.87,389.63,29.176z"/>
			<path style="fill:#AEC987;" d="M388.786,27.529c-1.533-5.113-8.603-12.652-11.64-9.109s-7.086,25.557-1.266,24.292
				C381.701,41.446,389.545,30.06,388.786,27.529z"/>
			<path style="fill:#256A99;" d="M645.224,317.855c0,0-7.823-4.248-9.389-9.837s-14.533-12.744-17.216-14.085
				s-22.132-7.603-22.579-11.179s-3.577-8.718-3.577-5.812s-0.671,12.742-7.602,14.308s-4.919,4.694,3.13,6.26
				s24.367,3.802,32.416,4.919s8.497,8.718,11.18,12.071S643.658,321.209,645.224,317.855z"/>
			
				<ellipse transform="matrix(0.6722 0.7403 -0.7403 0.6722 441.3647 -376.3626)" style="fill:#FFFFFF;" cx="645.73" cy="310.277" rx="3.219" ry="1.515"/>
			<g>
				<path style="fill:#6CB784;" d="M245.519,78.041c-3.825,7.398-6.1,14.742-6.099,14.732c-0.006-0.021-2.57,7.244-3.468,15.768
					c-1.089,8.518,0.438,18.01,1.458,20.992c1.62,5.597,4.373,8.221,8.656,10.975c0.067-5.199,0.178-8.164-1.112-12.96
					c-0.81-2.556-2.128-10.64-1.196-18.18c0.771-7.528,3.067-14.207,3.082-14.188c0.002,0.01,2.096-6.688,5.687-13.605
					c3.458-6.971,8.26-14.06,9.9-16.37c0.086-0.122,0.152-0.233,0.234-0.353c-4.197,1.628-8.484,3.413-12.839,5.358
					C248.354,72.666,246.847,75.353,245.519,78.041z"/>
				<path style="fill:#6CB784;" d="M171.552,417.016c-3.519-2.521-5.495-3.959-9.306-4.645c-2.062-0.346-8.226-1.842-13.511-4.426
					c-5.313-2.488-9.723-5.656-9.728-5.635c-0.188,0.271-3.44-2.379-7.218-5.766c3.073,5.738,6.414,11.313,10.026,16.672
					c1.116,0.612,2.312,1.233,3.563,1.824c5.946,2.936,13.084,4.682,15.491,5.01C165.31,420.729,168.095,419.483,171.552,417.016z"
					/>
				<path style="fill:#6CB784;" d="M290.302,55.758c-2.428,3.276-5.222,7.295-7.62,11.341c-4.731,7.667-7.812,15.383-7.806,15.375
					c0.013-0.016-3.4,7.581-5.099,16.683c-1.923,9.068-1.13,19.428-0.269,22.724c1.263,6.167,3.906,9.255,8.136,12.66
					c0.286-5.531,0.535-8.718-0.459-14.043c-0.682-2.844-1.383-11.765,0.305-19.881c1.491-8.124,4.598-15.174,4.593-15.157
					c-0.003,0.009,2.851-7.089,7.319-14.306c4.334-7.283,10.102-14.602,12.066-16.98c0.411-0.499,0.785-0.981,1.136-1.455
					C298.709,53.584,294.598,54.59,290.302,55.758z"/>
				<path style="fill:#6CB784;" d="M202.528,123.997c-0.245,7.952,2.004,16.555,3.179,19.221c1.968,5.019,4.809,7.167,9.112,9.26
					c-0.171-4.889-0.207-7.65-1.78-11.923c-0.934-2.275-2.845-9.523-2.661-16.48c0.045-6.933,1.569-13.222,1.579-13.208
					c0.007,0.01,1.346-6.282,4.052-12.902c2.026-5.23,4.819-10.579,6.564-13.724c-4.205,2.472-8.436,5.108-12.675,7.921
					c-0.413,0.965-0.813,1.94-1.188,2.914c-2.901,7.133-4.361,14.096-4.366,14.086C204.343,109.146,202.604,116.06,202.528,123.997z
					"/>
				<path style="fill:#6CB784;" d="M149.981,145.371c-3.469,4.162-6.764,8.388-9.878,12.676c-0.247,3.85-0.159,6.659-0.169,6.654
					c0.029-0.012-0.021,6.161,1.533,12.861c1.448,6.745,5.064,13.512,6.53,15.555c2.621,3.85,5.552,5.029,9.778,5.799
					c-0.738-4.336-1.108-6.749-3.214-10.013c-1.169-1.743-4.184-7.354-5.452-13.132c-1.349-5.737-1.354-11.236-1.377-11.223
					c0.019,0.005-0.144-5.461,0.779-11.479C148.864,150.451,149.416,147.756,149.981,145.371z"/>
				<path style="fill:#6CB784;" d="M176.143,164.18c2.303,4.435,5.205,6.099,9.49,7.527c-0.437-4.602-0.631-7.179-2.476-10.94
					c-1.054-2.002-3.53-8.423-4.082-14.792c-0.657-6.334,0.097-12.23,0.091-12.219c0.014,0.008,0.599-5.873,2.416-12.193
					c1.082-4.048,2.635-8.215,3.875-11.271c-4.044,3.329-7.952,6.729-11.721,10.198c-1.74,6.485-2.315,12.423-2.324,12.414
					c0.014-0.013-0.885,6.539-0.146,13.869C171.87,154.136,174.818,161.828,176.143,164.18z"/>
				<path style="fill:#6CB784;" d="M113.503,336.29c0.012-0.021,3.301,4.408,7.907,8.445c4.517,4.148,10.481,7.408,12.534,8.285
					c3.782,1.684,6.604,1.111,10.292-0.439c-2.447-3.279-3.803-5.096-6.961-6.613c-1.709-0.805-6.749-3.543-10.675-7.123
					c-3.995-3.473-6.957-7.396-6.966-7.377c-0.609,0.475-10.603-16.559-11.352-20.637c-1.103-2.863-2.612-4.374-4.94-6.251
					c0.939,7.092,2.174,14.447,3.739,21.95C110.081,331.8,113.128,336.507,113.503,336.29z"/>
				<path style="fill:#6CB784;" d="M108.693,290.739c0.018-0.021,2.501,4.875,6.4,9.563c3.789,4.791,9.197,8.865,11.092,10.02
					c3.482,2.199,6.35,2.012,10.187,0.977c-1.942-3.578-3.013-5.547-5.878-7.479c-1.557-1.027-6.084-4.42-9.351-8.518
					c-3.354-4.002-5.587-8.314-5.601-8.295c-0.699,0.379-7.515-17.91-7.495-22.029c-0.674-3.559-2.253-5.335-4.929-8.332
					c-0.667,0.961-1.217,1.853-1.665,2.73c-0.263,3.681-0.397,7.364-0.422,11.047C102.886,277.837,108.022,290.987,108.693,290.739z
					"/>
				<path style="fill:#6CB784;" d="M119.153,193.247c0.281,4.348,0.875,7.653,0.872,7.648c0.033-0.016,0.83,5.759,3.206,11.799
					c2.255,6.103,6.509,11.946,8.113,13.683c2.913,3.281,5.848,3.979,9.972,4.112c-1.084-4.087-1.661-6.346-4.011-9.144
					c-1.287-1.493-4.822-6.323-6.769-11.522c-2.042-5.139-2.793-10.243-2.819-10.226c-0.718,0.121-1.132-15.242-0.266-22.15
					C124.435,182.65,121.667,187.921,119.153,193.247z"/>
				<path style="fill:#6CB784;" d="M146.01,390.917c4.103,1.176,6.894,0.256,10.45-1.77c-2.981-2.93-4.642-4.572-8.116-5.674
					c-1.878-0.584-7.462-2.691-12.06-5.771c-4.645-2.973-8.331-6.514-8.337-6.494c-0.426,0.455-9.414-10.154-13.421-16.154
					c2.316,7.332,4.964,14.648,7.965,21.843c0.07,0.036,0.128,0.054,0.154,0.032c0.009-0.021,4.074,3.945,9.371,7.363
					C137.249,387.823,143.787,390.307,146.01,390.917z"/>
				<path style="fill:#6CB784;" d="M107.209,233.035c0.989,5.968,2.836,11.237,2.851,11.228c0.024-0.02,1.675,5.329,4.833,10.691
					c3.037,5.446,7.882,10.386,9.629,11.825c3.196,2.731,6.107,2.968,10.096,2.497c-1.484-3.841-2.295-5.955-4.894-8.31
					c-1.417-1.254-5.45-5.344-8.06-9.98c-2.707-4.557-4.204-9.264-4.223-9.246c-0.776,0.264-4.4-19.262-3.622-23.397
					c-0.028-2.872-0.794-4.767-2.119-7.103c-2.007,5.617-3.725,11.279-5.173,16.97C106.698,229.797,106.92,231.437,107.209,233.035z
					"/>
			</g>
			<g>
				<g>
					<g>
						<path style="fill:#63A879;" d="M187.001,455.867c4.723-0.166,9.662-2.606,11.096-3.579c2.754-1.822,3.213-4.349,2.865-7.596
							c-3.484,0.047-5.103-0.179-6.952,0.951c-1.009,0.565-4.17,2.254-7.693,2.404c-3.449,0.262-6.742-0.278-6.73-0.309
							c-0.065,0.455-5.637-1.364-9.956-3.24c5.066,4.226,10.462,8.06,16.203,11.431
							C186.218,455.915,186.605,455.896,187.001,455.867z"/>
					</g>
					<g>
						<path style="fill:#63A879;" d="M273.673,322.695c-1.455,0.874-2.615,1.813-2.92,2.55c-1.146,1.344-1.224,2.59-0.996,4.156
							c1.384-0.511,2.127-0.696,3.008-1.481c0.522-0.684,1.755-1.453,3.164-2.29c1.225-0.698,2.784-1.501,4.055-1.936
							c0.821-0.292,1.426-0.438,1.557-0.36c0.189-0.154,1.046-0.267,2.051-0.333c0.795-0.078,1.938-0.115,3.139-0.108
							C282.629,322.408,278.273,322.331,273.673,322.695z"/>
					</g>
					<g>
						<path style="fill:#63A879;" d="M323.098,349.533c1.244,0.569,2.499,1.329,4.112,1.989c1.223,0.564,3.176,1.443,4.596,2.595
							c0.457,0.354,0.817,0.67,1.068,0.926c-1.65-2.895-3.54-5.757-5.666-8.519c-0.652-0.184-1.216-0.281-1.602-0.246
							c-1.759-0.246-2.921,0.304-4.123,1.29C322.173,348.401,322.407,349.024,323.098,349.533z"/>
					</g>
					<g>
						<path style="fill:#63A879;" d="M338.323,380.485c-1.382-1.12-2.678-1.292-4.206-1.091c-0.034,0.922-0.318,1.535-0.23,2.295
							c0.813,1.442,1.435,2.785,2.56,4.188c0.769,1.068,2.178,2.94,2.878,4.889c0.334,0.862,0.543,1.583,0.57,1.968
							c0.29,0.819,0.452,1.935,0.512,2.602c0.019,0.065,0.035,0.156,0.052,0.245c0.549-4.287,0.774-8.334,0.734-11.997
							C340.136,382.051,339.034,380.866,338.323,380.485z"/>
					</g>
					<g>
						<path style="fill:#63A879;" d="M246.188,333.863c-0.306,1.735,0.289,2.814,1.306,4.048c0.972-1.384,1.477-2.083,1.754-3.435
							c-0.305-1.339,2.394-5.245,3.85-6.91c-2.093,0.91-4.049,1.925-5.878,3.03C246.509,331.914,246.049,333.13,246.188,333.863z"/>
					</g>
					<g>
						<path style="fill:#63A879;" d="M305.784,328.553c-2.482,0-4.883,0.398-5.727,1.059c-1.633,0.68-2.313,1.75-2.832,3.229
							c1.24,0.269,1.871,0.563,2.869,0.456c1.068-0.257,2.523-0.311,4.205-0.49c1.373-0.101,3.316-0.224,4.883,0.007
							c0.883,0.113,1.531,0.262,1.701,0.401c0.445,0.013,1.342,0.333,2.164,0.685c0.826,0.286,2.263,0.979,3.703,1.771
							C313.446,332.961,309.788,330.557,305.784,328.553z"/>
					</g>
					<g>
						<path style="fill:#63A879;" d="M230.596,463.842c1.23-1.316,1.704-2.667,1.719-4.147c-0.126-1.028-0.472-2.156-1.01-3.312
							c-3.064,0.827-4.649,1.047-6.177,2.491c-0.895,0.77-3.458,2.961-6.619,3.856c-0.962,0.307-1.901,0.534-2.713,0.687
							c-1.907,0.398-3.466,0.507-3.575,0.49c-0.192,0.593-11.095-0.53-14.31-1.86c-0.248-0.1-0.454-0.2-0.609-0.301
							c-0.212-0.085-0.412-0.143-0.613-0.196c7.728,3.486,16.012,6.177,24.884,7.932
							C225.726,468.157,229.539,465.057,230.596,463.842z"/>
					</g>
					<g>
						<path style="fill:#63A879;" d="M320.563,442.441c0.182-0.996,0.247-1.823,0.194-2.325c0.027-1.787-0.592-2.989-1.646-4.078
							c-0.756,0.054-1.553-0.097-2.344,0.025c-1.072,1.982-1.887,3.261-2.199,5.151c-0.277,1.228-0.816,3.926-2.176,6.089
							c-0.486,0.825-0.969,1.511-1.34,1.929c-0.742,1.069-1.643,2.006-1.971,2.307c-0.422,0.955-7.4,6.123-9.955,7.014
							c-0.209,0.083-0.393,0.147-0.551,0.191c-1.603,0.674-2.17,1.824-3.473,3.543C305.691,457.105,314.045,450.198,320.563,442.441
							z"/>
					</g>
					<g>
						<path style="fill:#63A879;" d="M335.738,414.09c-0.703-1.64-1.764-2.438-3.19-2.987c-0.564,0.579-1.227,0.878-1.7,1.452
							c-0.062,1.95-0.209,3.438,0.205,5.249c0.215,1.269,0.708,3.766,0.384,6.057c-0.105,0.935-0.261,1.714-0.422,2.157
							c-0.056,0.323-0.133,0.65-0.218,0.968c2.092-4.07,3.825-8.206,5.228-12.314C335.93,414.439,335.833,414.243,335.738,414.09z"
							/>
					</g>
					<g>
						<path style="fill:#63A879;" d="M258.882,471.594c2.105-1.649,3.704-3.453,4.24-4.34c1.023-1.477,1.257-2.861,1.032-4.336
							c-0.4-0.791-0.931-1.69-1.637-2.513c-2.606,1.19-4.093,1.692-5.397,3.258c-0.82,0.884-2.95,3.225-5.727,4.468
							c-0.893,0.434-1.751,0.774-2.452,1.001c-1.623,0.604-3.063,0.919-3.284,0.942c-0.364,0.598-10.555,1.046-13.677,0.251
							c-0.245-0.057-0.454-0.12-0.618-0.188c-1.309-0.299-2.289-0.04-3.53,0.401c2.194,0.315,4.411,0.595,6.675,0.797
							C243.304,472.121,251.403,472.162,258.882,471.594z"/>
					</g>
					<g>
						<path style="fill:#63A879;" d="M294.668,458.273c0.591-1.691,0.416-3.058-0.217-4.422c-0.665-0.422-1.394-0.982-2.237-1.352
							c-1.919,1.69-3.157,2.607-4.025,4.383c-0.604,1.074-2,3.681-4.162,5.459c-0.732,0.644-1.438,1.172-1.988,1.512
							c-1.224,0.896-2.451,1.542-2.758,1.674c-0.446,0.725-9.426,3.643-12.39,3.692c-0.237,0.012-0.444,0.011-0.613-0.004
							c-1.71,0.102-2.644,0.951-4.294,2.106c11.205-1.134,20.939-3.689,29.355-7.303
							C293.156,461.767,294.396,459.354,294.668,458.273z"/>
					</g>
				</g>
			</g>
		</g>
		<path style="fill:#68B07E;" d="M360.72,226.638c17.963-1.996,36.494-16.537,29.367-17.962S368.133,218.94,360.72,226.638z"/>
		<path style="fill:#68B07E;" d="M387.521,227.208c17.963-1.996,36.494-16.537,29.367-17.962S394.935,219.51,387.521,227.208z"/>
		<path style="fill:#68B07E;" d="M414.322,226.068c17.963-1.996,36.494-16.537,29.367-17.962S421.735,218.37,414.322,226.068z"/>
		<path style="fill:#68B07E;" d="M442.834,222.076c17.963-1.996,36.494-16.537,29.367-17.962S450.247,214.378,442.834,222.076z"/>
		<polygon style="fill:#FFE17D;" points="506.539,259.836 545.248,267.216 547.308,265.671 		"/>
		<polygon style="fill:#FFE17D;" points="507.196,246.012 467.814,241.736 465.755,243.281 		"/>
	</g>
</g>
</svg>
