<?xml version="1.0" encoding="iso-8859-1"?>
<!-- Generator: Adobe Illustrator 14.0.0, SVG Export Plug-In . SVG Version: 6.00 Build 43363)  -->
<!DOCTYPE svg PUBLIC "-//W3C//DTD SVG 1.1//EN" "http://www.w3.org/Graphics/SVG/1.1/DTD/svg11.dtd">
<svg version="1.1" id="Layer_1" xmlns="http://www.w3.org/2000/svg" xmlns:xlink="http://www.w3.org/1999/xlink" x="0px" y="0px"
	 width="313.339px" height="335px" viewBox="0 0 313.339 335" style="enable-background:new 0 0 313.339 335;" xml:space="preserve"
	>
<g>
	<path style="fill:#F9F9FA;" d="M296.619,226.035c-1.555,1.554-4.1,1.554-5.655,0l-48.069-48.02
		c-1.556-1.554-1.556-4.097-0.001-5.65l15.553-15.537c1.555-1.554,4.1-1.554,5.655,0l48.07,48.021c1.556,1.553,1.556,4.096,0,5.649
		L296.619,226.035z"/>
</g>
<g>
	<path style="fill:#CACFD3;" d="M296.101,226.554c-1.27,1.269-3.348,1.269-4.617,0l-49.108-49.057c-1.27-1.269-1.27-3.345,0-4.613
		l9.521-9.511c1.27-1.269,3.348-1.269,4.617,0l49.109,49.058c1.27,1.269,1.27,3.345,0,4.613L296.101,226.554z"/>
</g>
<g>
	<path style="fill:#EAECED;" d="M299.635,223.022c-1.27,1.269-3.348,1.269-4.617,0l-49.108-49.058c-1.27-1.269-1.27-3.345,0-4.613
		l9.521-9.51c1.27-1.268,3.348-1.268,4.617,0l49.109,49.058c1.27,1.269,1.27,3.345,0,4.613L299.635,223.022z"/>
</g>
<path style="opacity:0.2;fill:#2C3E50;" d="M229.463,65.731c-21.785-21.762-55.008-25.124-80.33-10.09l-99.976,56.58
	c-7.313,4.205-14.209,9.41-20.46,15.655c-38.263,38.222-38.263,100.19,0,138.413c28.461,28.432,70.069,35.697,105.269,21.83
	l44.599,44.552c3.11,3.107,8.199,3.107,11.31,0l28.984-28.954c23.621-23.596,23.621-61.853,0-85.449
	c-4.328-4.324-9.153-7.848-14.288-10.587l34.993-61.704C254.611,120.68,251.247,87.492,229.463,65.731z M207.052,220.883
	c18.319,18.301,18.319,48.08,0,66.381l-25.659,25.633l-32.336-32.302c6.472-3.958,12.595-8.71,18.196-14.307
	c6.253-6.245,11.462-13.133,15.672-20.438l17.337-30.572C202.653,216.904,204.932,218.766,207.052,220.883z"/>
<path style="fill:#EAECED;" d="M264.808,177.309c-40.603,40.562-106.435,40.562-147.039,0c-40.604-40.562-40.604-106.326,0-146.887
	c40.604-40.562,106.437-40.562,147.039,0C305.412,70.983,305.412,136.747,264.808,177.309z"/>
<path style="fill:#F9F9FA;" d="M259.153,171.658c-37.479,37.439-98.248,37.443-135.729,0c-37.48-37.441-37.478-98.148,0-135.587
	c37.478-37.439,98.249-37.442,135.729,0C296.634,73.513,296.632,134.22,259.153,171.658z"/>
<path style="fill:#D5D8DC;" d="M256.325,168.834c-35.914,35.878-94.154,35.882-130.073,0s-35.915-94.061,0-129.938
	c35.915-35.878,94.154-35.882,130.073,0C292.244,74.778,292.24,132.957,256.325,168.834z"/>
<path style="fill:#42200D;" d="M253.498,166.01c-34.355,34.318-90.062,34.321-124.418,0c-34.358-34.323-34.355-89.97,0-124.29
	c34.354-34.319,90.06-34.322,124.418,0C287.855,76.042,287.853,131.69,253.498,166.01"/>
<path style="fill:#ABABAB;" d="M253.356,166.15c-0.009,0.009-0.017,0.017-0.025,0.025
	C253.34,166.167,253.348,166.159,253.356,166.15 M253.498,166.01c-0.029,0.029-0.057,0.057-0.087,0.086
	C253.439,166.067,253.469,166.038,253.498,166.01 M128.852,41.949c-0.007,0.007-0.014,0.013-0.021,0.02
	C128.84,41.961,128.843,41.957,128.852,41.949 M128.955,41.845c-0.018,0.018-0.034,0.034-0.051,0.052
	C128.921,41.879,128.938,41.861,128.955,41.845 M129.08,41.72L129.08,41.72c-0.03,0.03-0.061,0.061-0.091,0.09
	C129.019,41.781,129.051,41.75,129.08,41.72L129.08,41.72 M253.301,41.524c0.065,0.065,0.132,0.131,0.197,0.196
	c17.179,17.16,25.767,39.653,25.767,62.146c0-22.492-8.588-44.985-25.767-62.146C253.433,41.655,253.366,41.589,253.301,41.524
	 M252.975,41.201c0.101,0.1,0.201,0.199,0.303,0.3C253.176,41.4,253.075,41.301,252.975,41.201 M129.762,41.046
	c-0.057,0.055-0.115,0.113-0.173,0.169C129.646,41.159,129.705,41.102,129.762,41.046 M191.278,15.98
	c-22.204,0-44.399,8.344-61.483,25.034C146.877,24.328,169.077,15.982,191.278,15.98 M191.289,15.98L191.289,15.98
	c0.003,0,0.007,0,0.011,0C191.296,15.98,191.292,15.98,191.289,15.98"/>
<path style="fill:#2C1509;" d="M191.289,15.98c-0.003,0-0.007,0-0.011,0c-22.201,0.002-44.401,8.347-61.483,25.034
	c-0.011,0.011-0.022,0.021-0.033,0.032c-0.057,0.055-0.115,0.113-0.173,0.169c-0.171,0.168-0.339,0.334-0.509,0.504l0,0
	c-0.029,0.029-0.062,0.061-0.091,0.09c-0.012,0.012-0.022,0.023-0.034,0.035c-0.017,0.017-0.034,0.034-0.051,0.052
	c-0.018,0.017-0.035,0.035-0.053,0.053c-0.009,0.008-0.012,0.012-0.021,0.02c-3.27,3.294-6.214,6.784-8.855,10.43
	c15.329-11.091,33.434-16.637,51.536-16.638c22.509,0,45.016,8.576,62.193,25.733c30.987,30.957,34.011,79.256,9.103,113.611
	c3.681-2.662,7.203-5.631,10.523-8.929c0.009-0.009,0.017-0.017,0.025-0.025c0.019-0.019,0.036-0.036,0.055-0.055
	c0.03-0.029,0.058-0.057,0.087-0.086l0,0c17.178-17.16,25.767-39.652,25.767-62.144s-8.588-44.985-25.767-62.146
	c-0.065-0.065-0.132-0.131-0.197-0.196c-0.008-0.008-0.016-0.015-0.023-0.023c-0.102-0.101-0.202-0.2-0.303-0.3
	c-17.107-16.81-39.394-25.217-61.675-25.221C191.296,15.98,191.292,15.98,191.289,15.98"/>
<path style="fill:#A87A5A;" d="M134.735,160.36c-14.603-14.587-22.623-33.203-24.207-52.258h-3.016
	c1.008,20.036,9.077,39.781,24.395,55.083c15.317,15.302,35.084,23.363,55.14,24.37v-3.013
	C167.973,182.959,149.337,174.947,134.735,160.36z"/>
</svg>
