<?xml version="1.0" encoding="iso-8859-1"?>
<!-- Generator: Adobe Illustrator 14.0.0, SVG Export Plug-In . SVG Version: 6.00 Build 43363)  -->
<!DOCTYPE svg PUBLIC "-//W3C//DTD SVG 1.1//EN" "http://www.w3.org/Graphics/SVG/1.1/DTD/svg11.dtd">
<svg version="1.1" id="Layer_1" xmlns="http://www.w3.org/2000/svg" xmlns:xlink="http://www.w3.org/1999/xlink" x="0px" y="0px"
	 width="279.434px" height="515.773px" viewBox="0 0 279.434 515.773" style="enable-background:new 0 0 279.434 515.773;"
	 xml:space="preserve">
<g>
	<g>
		<path style="opacity:0.5;fill:#9A8479;" d="M212.307,487.929c0,11.382-36.553,20.61-81.644,20.61s-81.644-9.229-81.644-20.61
			c0-11.384,31.693-19.753,76.784-19.753C170.895,468.176,212.307,476.545,212.307,487.929z"/>
	</g>
</g>
<g>
	<g>
		<g>
			<g>
				<g>
					<g>
						<g>
							<path style="fill:#C42622;" d="M65.638,113.947c0,0-40.34,32.658-30.56,39.901s22.216,9.953,36.575,4.395
								c14.358-5.559,21.975-32.533,21.975-32.533L65.638,113.947z"/>
						</g>
						<g>
							<g>
								<g>
									<g>
										<path style="fill:#3B6E50;" d="M159.934,376.867c0,0,1.376,6.643,2.399,7.751c1.021,1.108,5.082-2.088,5.082-2.088
											L159.934,376.867z"/>
										<path style="fill:#3B6E50;" d="M166.868,381.448c0,0,0.235,6.597,1.649,7.069c1.413,0.471,6.597-1.886,6.597-1.886
											L166.868,381.448z"/>
										<path style="fill:#3B6E50;" d="M173.213,386.062c0,0,2.096,6.259,3.584,6.311c1.49,0.051,5.794-3.678,5.794-3.678
											L173.213,386.062z"/>
										<path style="fill:#3B6E50;" d="M181.52,388.618c0,0,2.347,5.482,3.539,5.473c1.191-0.01,4.214-3.481,4.214-3.481
											L181.52,388.618z"/>
										<path style="fill:#3B6E50;" d="M187.902,390.108c0,0,3.498,5.598,4.958,5.302c1.46-0.298,4.774-4.926,4.774-4.926
											L187.902,390.108z"/>
										<path style="fill:#3B6E50;" d="M196.541,390.689c0,0,3.958,5.078,5.229,4.721c1.268-0.356,3.572-4.885,3.572-4.885
											L196.541,390.689z"/>
										<path style="fill:#3B6E50;" d="M204.769,390.556c0,0,4.602,4.732,5.967,4.134c1.365-0.6,3.626-5.824,3.626-5.824
											L204.769,390.556z"/>
										<path style="fill:#3B6E50;" d="M213.064,389.054c0,0,5.11,4.178,6.397,3.429c1.287-0.75,2.94-6.2,2.94-6.2
											L213.064,389.054z"/>
										<path style="fill:#3B6E50;" d="M221.684,386.425c0,0,5.592,3.508,6.774,2.601c1.184-0.906,2.142-6.518,2.142-6.518
											L221.684,386.425z"/>
										<path style="fill:#3B6E50;" d="M230.022,383.089c0,0,6.124,2.468,7.129,1.369c1.006-1.102,0.962-6.795,0.962-6.795
											L230.022,383.089z"/>
										<path style="fill:#3B6E50;" d="M237.998,378.289c0,0,6.299,1.977,7.214,0.799c0.914-1.175,0.419-6.847,0.419-6.847
											L237.998,378.289z"/>
										<path style="fill:#3B6E50;" d="M243.934,373.784c0,0,6.46,1.361,7.258,0.103c0.797-1.259-0.241-6.856-0.241-6.856
											L243.934,373.784z"/>
										<path style="fill:#3B6E50;" d="M249.484,369.474c0,0,6.58-0.518,6.998-1.537c0.415-1.021-2.132-4.547-2.132-4.547
											L249.484,369.474z"/>
										<path style="fill:#3B6E50;" d="M253.315,364.934c0,0,5.733-0.148,6.146-1.156c0.413-1.008-1.622-4.716-1.622-4.716
											L253.315,364.934z"/>
										<path style="fill:#3B6E50;" d="M257.553,360.496c0,0,5.68-0.796,5.976-1.844c0.299-1.048-2.143-4.501-2.143-4.501
											L257.553,360.496z"/>
										<path style="fill:#3B6E50;" d="M260.571,356.002c0,0,5.562-1.401,5.742-2.476c0.183-1.075-2.614-4.245-2.614-4.245
											L260.571,356.002z"/>
										<path style="fill:#3B6E50;" d="M263.627,350.207c0,0,5.542-1.484,5.707-2.562c0.167-1.076-2.679-4.204-2.679-4.204
											L263.627,350.207z"/>
										<path style="fill:#3B6E50;" d="M266.233,344.223c0,0,4.729-1.688,4.82-2.562c0.093-0.871-2.522-3.105-2.522-3.105
											L266.233,344.223z"/>
										<path style="fill:#3B6E50;" d="M268.085,339.857c0,0,4.178-1.679,4.189-2.582s-2.561-3.26-2.561-3.26L268.085,339.857z"/>
										<path style="fill:#3B6E50;" d="M268.968,335.792c0,0,4.178-1.679,4.189-2.582s-2.559-3.258-2.559-3.258L268.968,335.792z"
											/>
										<path style="fill:#3B6E50;" d="M270.76,330.513c0,0,3.833-2.363,3.692-3.254c-0.143-0.895-3.077-2.779-3.077-2.779
											L270.76,330.513z"/>
										<path style="fill:#3B6E50;" d="M271.846,325.748c0,0,3.813-2.39,3.665-3.28c-0.147-0.892-3.096-2.756-3.096-2.756
											L271.846,325.748z"/>
										<path style="fill:#3B6E50;" d="M272.184,321.399c0,0,3.558-2.759,3.322-3.63c-0.237-0.873-3.356-2.434-3.356-2.434
											L272.184,321.399z"/>
										<path style="fill:#3B6E50;" d="M271.876,316.655c0,0,3.371-2.982,3.079-3.836c-0.293-0.856-3.505-2.212-3.505-2.212
											L271.876,316.655z"/>
										<path style="fill:#3B6E50;" d="M271.815,311.429c0,0,2.173-3.943,1.611-4.649c-0.563-0.706-4.047-0.901-4.047-0.901
											L271.815,311.429z"/>
										<path style="fill:#3B6E50;" d="M270.158,306.981c0,0,2.042-4.011,1.457-4.698c-0.586-0.689-4.073-0.771-4.073-0.771
											L270.158,306.981z"/>
										<path style="fill:#3B6E50;" d="M267.886,301.789c0,0,1.792-4.129,1.165-4.779c-0.626-0.651-4.111-0.517-4.111-0.517
											L267.886,301.789z"/>
										<path style="fill:#3B6E50;" d="M265.384,297.671c0,0,1.112-4.362,0.391-4.903c-0.724-0.544-4.143,0.141-4.143,0.141
											L265.384,297.671z"/>
										<path style="fill:#3B6E50;" d="M262.396,293.113c0,0,0.115-3.883-0.579-4.021c-0.693-0.141-3.805,1.738-3.805,1.738
											L262.396,293.113z"/>
										<path style="fill:#3B6E50;" d="M258.862,290.992c0,0,0.114-3.882-0.579-4.021c-0.694-0.141-3.804,1.739-3.804,1.739
											L258.862,290.992z"/>
										<path style="fill:#3B6E50;" d="M255.307,288.167c0,0-0.814-3.799-1.522-3.769c-0.706,0.03-3.278,2.597-3.278,2.597
											L255.307,288.167z"/>
										<path style="fill:#3B6E50;" d="M251.001,286.65c0,0-1.249-3.678-1.945-3.567c-0.7,0.112-2.958,2.958-2.958,2.958
											L251.001,286.65z"/>
										<path style="fill:#3B6E50;" d="M247.072,285.893c0,0-2.269-3.152-2.905-2.842c-0.636,0.311-1.963,3.693-1.963,3.693
											L247.072,285.893z"/>
										<path style="fill:#3B6E50;" d="M242.632,286.346c0,0-2.759-2.733-3.336-2.323c-0.575,0.412-1.327,3.967-1.327,3.967
											L242.632,286.346z"/>
										<path style="fill:#3B6E50;" d="M238.688,287.169c0,0-3.461-1.764-3.884-1.197c-0.424,0.567-0.055,4.182-0.055,4.182
											L238.688,287.169z"/>
										<path style="fill:#3B6E50;" d="M235.154,289.603c0,0-3.04-2.418-3.565-1.947c-0.527,0.473-0.889,4.087-0.889,4.087
											L235.154,289.603z"/>
										<path style="fill:#3B6E50;" d="M232.12,291.613c0,0-3.142-2.282-3.648-1.788s-0.706,4.122-0.706,4.122L232.12,291.613z"/>
										<path style="fill:#3B6E50;" d="M228.563,293.779c0,0-3.536-1.604-3.933-1.021c-0.397,0.587,0.135,4.181,0.135,4.181
											L228.563,293.779z"/>
										<path style="fill:#3B6E50;" d="M225.964,297.221c0,0-3.793-0.843-4.059-0.188c-0.27,0.655,0.991,4.063,0.991,4.063
											L225.964,297.221z"/>
										<path style="fill:#3B6E50;" d="M253.029,334.767c0,0,2.752,2.739,3.329,2.329c0.575-0.41,1.335-3.964,1.335-3.964
											L253.029,334.767z"/>
										<path style="fill:#3B6E50;" d="M248.965,336.356c0,0,2.752,2.741,3.329,2.331c0.575-0.41,1.335-3.964,1.335-3.964
											L248.965,336.356z"/>
										<path style="fill:#3B6E50;" d="M244.699,337.44c0,0,2.382,3.067,3.005,2.735c0.624-0.334,1.83-3.763,1.83-3.763
											L244.699,337.44z"/>
										<path style="fill:#3B6E50;" d="M240.782,336.559c0,0,1.202,3.692,1.902,3.59s2.994-2.92,2.994-2.92L240.782,336.559z"/>
										<path style="fill:#3B6E50;" d="M236.914,335.244c0,0,0.513,3.85,1.221,3.876c0.706,0.027,3.472-2.329,3.472-2.329
											L236.914,335.244z"/>
										<path style="fill:#3B6E50;" d="M232.544,332.969c0,0-0.082,3.884,0.613,4.019c0.694,0.133,3.789-1.771,3.789-1.771
											L232.544,332.969z"/>
										<path style="fill:#3B6E50;" d="M229.091,330.532c0,0-0.702,3.819-0.038,4.063c0.662,0.243,4.022-1.141,4.022-1.141
											L229.091,330.532z"/>
										<path style="fill:#3B6E50;" d="M226.15,327.041c0,0-1.449,3.605-0.845,3.976c0.602,0.37,4.168-0.317,4.168-0.317
											L226.15,327.041z"/>
										<path style="fill:#3B6E50;" d="M223.965,323.537c0,0-1.885,3.395-1.334,3.838c0.552,0.442,4.178,0.203,4.178,0.203
											L223.965,323.537z"/>
										<path style="fill:#3B6E50;" d="M221.928,319.55c0,0-2.237,3.174-1.734,3.675c0.499,0.499,4.131,0.649,4.131,0.649
											L221.928,319.55z"/>
										<path style="fill:#3B6E50;" d="M221.404,315.191c0,0-3.184,2.226-2.882,2.867c0.302,0.64,3.666,2.014,3.666,2.014
											L221.404,315.191z"/>
										<path style="fill:#3B6E50;" d="M220.797,310.957c0,0-3.268,2.103-2.988,2.754c0.275,0.651,3.584,2.153,3.584,2.153
											L220.797,310.957z"/>
										<path style="fill:#3B6E50;" d="M220.772,306.588c0,0-3.509,1.666-3.316,2.348c0.191,0.682,3.282,2.594,3.282,2.594
											L220.772,306.588z"/>
										<path style="fill:#3B6E50;" d="M222.152,301.798c0,0-3.771,0.935-3.717,1.641c0.051,0.704,2.697,3.194,2.697,3.194
											L222.152,301.798z"/>
									</g>
								</g>
								<g style="display:none;">
									<path style="display:inline;fill:#0F844A;" d="M161.448,337.153c0,0,1.177-10.837-1.885-9.423
										c-3.063,1.414-5.655,4.712-5.655,4.712L161.448,337.153z"/>
									<path style="display:inline;fill:#0F844A;" d="M166.542,340.806c0,0,1.034-9.502-1.657-8.262
										c-2.69,1.239-4.969,4.131-4.969,4.131L166.542,340.806z"/>
									<path style="display:inline;fill:#0F844A;" d="M172.195,343.988c0,0,1.034-9.502-1.655-8.264
										c-2.692,1.239-4.969,4.133-4.969,4.133L172.195,343.988z"/>
									<path style="display:inline;fill:#0F844A;" d="M178.522,347.381c0,0-0.004-9.556-2.544-8.031
										c-2.542,1.522-4.489,4.645-4.489,4.645L178.522,347.381z"/>
									<path style="display:inline;fill:#0F844A;" d="M184.025,350.349c0,0,0.368-9.551-2.23-8.127
										c-2.597,1.424-4.666,4.469-4.666,4.469L184.025,350.349z"/>
									<path style="display:inline;fill:#0F844A;" d="M189.804,353.743c0,0,0.635-9.537-2.002-8.186
										c-2.638,1.352-4.79,4.338-4.79,4.338L189.804,353.743z"/>
									<path style="display:inline;fill:#0F844A;" d="M195.344,355.824c0,0-1.566-9.41-3.4-7.652
										c-1.834,1.756-2.923,5.026-2.923,5.026L195.344,355.824z"/>
									<path style="display:inline;fill:#0F844A;" d="M199.618,357.789c0,0-1.028-9.482-2.881-7.854
										c-1.855,1.627-3.068,4.813-3.068,4.813L199.618,357.789z"/>
									<path style="display:inline;fill:#0F844A;" d="M204.879,359.812c0,0-0.955-8.314-3.059-6.72
										c-2.103,1.594-3.522,4.516-3.522,4.516L204.879,359.812z"/>
									<path style="display:inline;fill:#0F844A;" d="M214.686,361.069c0,0-1.939-6.76-3.462-5.148
										c-1.524,1.611-2.298,4.229-2.298,4.229L214.686,361.069z"/>
									<path style="display:inline;fill:#0F844A;" d="M210.388,360.454c0,0-2.348-8.034-4.151-6.105
										c-1.802,1.927-2.707,5.048-2.707,5.048L210.388,360.454z"/>
									<path style="display:inline;fill:#0F844A;" d="M219.555,360.672c0,0-2.637-6.292-3.92-4.566s-1.729,4.336-1.729,4.336
										L219.555,360.672z"/>
									<path style="display:inline;fill:#0F844A;" d="M224.395,359.66c0,0-4.782-5.539-5.519-3.353
										c-0.735,2.188-0.323,4.999-0.323,4.999L224.395,359.66z"/>
									<path style="display:inline;fill:#0F844A;" d="M228.91,358.509c0,0-4.577-5.389-5.304-3.282
										c-0.728,2.107-0.352,4.826-0.352,4.826L228.91,358.509z"/>
									<path style="display:inline;fill:#0F844A;" d="M234.306,356.667c0,0-5.8-6.035-6.506-3.493
										c-0.706,2.544-0.064,5.728-0.064,5.728L234.306,356.667z"/>
									<path style="display:inline;fill:#0F844A;" d="M238.548,354.434c0,0-5.587-4.527-5.917-2.286
										c-0.332,2.244,0.555,4.891,0.555,4.891L238.548,354.434z"/>
									<path style="display:inline;fill:#0F844A;" d="M242.307,350.794c0,0-6.293-3.476-6.227-1.209
										c0.068,2.267,1.405,4.716,1.405,4.716L242.307,350.794z"/>
									<path style="display:inline;fill:#0F844A;" d="M245.639,348.234c0,0-6.35-2.646-6.048-0.499
										c0.302,2.148,1.83,4.34,1.83,4.34L245.639,348.234z"/>
									<path style="display:inline;fill:#0F844A;" d="M249.826,343.942c0,0-6.782-1.16-6.008,0.865
										c0.774,2.027,2.752,3.819,2.752,3.819L249.826,343.942z"/>
									<path style="display:inline;fill:#0F844A;" d="M254.077,339.716c0,0-6.777-1.192-6.013,0.837
										c0.766,2.031,2.737,3.833,2.737,3.833L254.077,339.716z"/>
									<path style="display:inline;fill:#0F844A;" d="M258.287,332.096c0,0-6.506,2.24-4.854,3.645
										c1.653,1.407,4.248,2.029,4.248,2.029L258.287,332.096z"/>
									<path style="display:inline;fill:#0F844A;" d="M256.396,336.917c0,0-6.808-0.988-5.981,1.018
										c0.823,2.007,2.848,3.75,2.848,3.75L256.396,336.917z"/>
								</g>
								<g>
									<path style="fill:#6CC13D;" d="M157.94,374.999c0,0,22.732,27.856,66.161,11.089
										c43.431-16.767,48.638-59.385,48.664-70.828c0.027-11.442-14.943-35.688-32.909-28.733
										c-17.966,6.956-21.605,19.252-18.05,32.027c3.554,12.778,16.616,20.594,27.139,18.112c7.224-1.701,9.834-4.495,9.834-4.495
										s-13.712,25.017-39.845,27.36c-26.133,2.345-65.692-29.18-65.692-29.18"/>
								</g>
								<path style="fill:#A1D030;" d="M260.021,331.754c0,0,10.303-22.283-2.916-32.074c-8.747-6.479-16.198-3.888-21.708-0.323
									c-5.507,3.563-8.747,19.439,0.647,23.975c9.397,4.535,15.552-2.592,15.552-2.592s-6.156,3.563-11.664,0.647
									c-5.507-2.916-7.701-16.343-1.943-19.114c8.747-4.212,26.586-3.92,23.175,29.142"/>
								<path style="fill:#A1D030;" d="M247.71,306.161c0,0-8.101,3.239-4.537,8.423c3.564,5.185,7.453,3.563,7.453,3.563
									S243.497,315.231,247.71,306.161z"/>
								<path style="fill:#37B34A;" d="M255.85,315.999c-3.128,3.986-11.212,7.868-14.438,1.491
									c-2.935-5.795,0.903-12.735,7.421-13.043c7.546-0.357,8.628,9.089,6.754,14.325c-2.274,6.361-10.534,10.414-16.876,7.931
									c-6.996-2.739-10.489-11.599-9.826-18.571c0.759-7.968,7.527-13.729,15.124-14.667c7.436-0.917,14.773,3.899,18.511,10.007
									c5.737,9.372,3.429,18.891-1.355,27.943c-1.023,1.94-3.96,0.222-2.937-1.716c2.737-5.183,5.068-10.348,4.258-16.341
									c-0.708-5.225-3.436-10.25-7.656-13.402c-9.383-7.009-22.586-1.24-22.678,10.813c-0.037,4.847,3.03,9.837,7.03,12.393
									c5.101,3.258,11.808-1.606,13.521-6.403c1.766-4.932-2.253-12.184-7.421-7.371c-3.216,2.997-1.213,8.648,3.372,7.979
									c1.915-0.279,3.648-2.315,4.791-3.771C254.798,311.868,257.188,314.293,255.85,315.999L255.85,315.999z"/>
							</g>
							<g>
								<path style="fill:#6CC13D;" d="M74.539,199.716c0,0,3.357,7.775,3.888,21.558c0.529,13.782-2.121,137.822-3.711,159.025
									c-1.59,21.204-10.602,88.523-10.602,88.523s-14.842,6.891-14.842,13.782c0,6.891,9.542,5.831,17.494,1.591
									c7.95-4.241,14.312,11.132,22.793,5.3c8.481-5.83-2.121-12.191-8.482-16.432c-6.361-4.241,7.421-91.704,7.421-91.704
									s7.951,2.65,27.034,0.53c19.084-2.121,19.084-2.121,19.084-2.121s9.361-1.416,19.083,30.214
									c11.232,36.546,19.614,56.72,11.662,63.081c-7.951,6.361-13.782,10.602-8.48,15.372c5.3,4.771,13.251-7.952,22.792-8.481
									c9.543-0.529,14.843,12.191,22.264,4.771c7.423-7.421-9.541-15.902-16.433-19.612c-6.891-3.711-9.011-6.891-11.661-16.963
									c-2.65-10.071-26.895-145.877-22.034-207.759c0.732-9.323,2.53-26.34,9.312-32.368c9.541-8.481-16.962-27.034-16.962-27.034
									l-62.551,4.241L74.539,199.716z"/>
							</g>
							<path style="fill:#37B34A;" d="M78.264,193.414c0,0,1.9,9.503,20.278,21.404c8.355,5.411,8.234,14.196,12.121,16.178
								c3.888,1.984,7.452-0.972,7.452-0.972s4.889,4.614,8.423,0.648c3.534-3.968,5.016-12.738,10.879-15.855
								c13.429-7.14,22.264-20.231,22.264-20.231l-5.929-4.088C153.752,190.498,80.856,185.314,78.264,193.414z"/>
							<g>
								<path style="fill:#A1D030;" d="M171.168,169.993c0,0-12.956,22.868-18.731,28.803c-6.361,6.538-19.261,8.482-20.851,13.076
									c-1.591,4.594-4.595,13.43-6.538,15.197c-1.944,1.767-4.771,0.707-6.185-6.185c-1.413-6.892-0.354-5.301-0.354-5.301
									s0.68-1.591-0.734,5.301c-1.414,6.891-4.241,7.951-6.185,6.185c-1.944-1.767-4.947-10.603-6.538-15.197
									c-1.59-4.594-14.49-6.538-20.851-13.076c-5.774-5.935-18.73-28.803-18.73-28.803s-12.164-37.108,13.281-68.561
									c25.446-31.454,28.058-47.563,39.646-36.042c9.959,9.902,22.618-5.301,26.859,8.482c4.24,13.783,11.245,20.492,17.96,28.621
									C169.931,110.62,186.541,133.592,171.168,169.993"/>
							</g>
							<g>
								<g>
									<ellipse style="fill:#D0D2D3;" cx="81.329" cy="148.553" rx="22.683" ry="21.206"/>
									<path style="fill:#6CC13D;" d="M59.884,148.553c0.098,8.27,5.47,15.346,13.057,18.391
										c7.833,3.144,17.111,1.51,23.382-4.114c6.074-5.445,8.13-14.294,4.885-21.804c-3.301-7.638-11.234-12.186-19.365-12.439
										C70.513,128.235,60.021,136.938,59.884,148.553c-0.019,1.594-2.492,1.596-2.474,0c0.2-16.833,18.844-26.795,33.706-20.474
										c7.059,3.003,12.448,9.223,13.814,16.843c1.365,7.613-1.76,15.288-7.554,20.269c-7.006,6.024-17.376,7.433-25.834,3.836
										c-8.279-3.521-14.025-11.387-14.132-20.474C57.392,146.957,59.865,146.959,59.884,148.553z"/>
								</g>
							</g>
							<g>
								<g>
									<ellipse style="fill:#D0D2D3;" cx="154.707" cy="148.553" rx="22.39" ry="21.206"/>
									<path style="fill:#6CC13D;" d="M178.317,148.553c-0.197,16.833-18.603,26.794-33.271,20.474
										c-6.969-3.003-12.29-9.223-13.638-16.843c-1.348-7.614,1.738-15.287,7.457-20.269c6.916-6.024,17.152-7.433,25.5-3.836
										C172.538,131.601,178.211,139.466,178.317,148.553c0.019,1.596-2.423,1.594-2.441,0
										c-0.097-8.271-5.401-15.347-12.888-18.392c-7.734-3.145-16.892-1.51-23.083,4.114c-5.997,5.445-8.026,14.294-4.821,21.804
										c3.257,7.638,11.087,12.185,19.114,12.438c11.186,0.353,21.541-8.351,21.678-19.964
										C175.895,146.959,178.336,146.957,178.317,148.553z"/>
								</g>
								<g>
									<path style="fill:#6CC13D;" d="M132.794,144.312c0,0,8.798-12.266,24.505-10.837c15.549,1.413,14.179,8.89,20.261,7.774
										c14.138-2.591,6.478-21.268-10.367-22.853C147.167,116.511,134.915,131.589,132.794,144.312z"/>
								</g>
							</g>
							<path style="fill:#6CC13D;" d="M136.086,184.52c0.04,1.213-1.088,2.283-1.958,2.946c-1.776,1.356-3.792,2.221-5.985,2.583
								c-4.456,0.736-9.126,0.201-13.563-0.409c-4.016-0.552-8.002-1.305-11.955-2.206c-2.575-0.587-4.911-1.805-6.33-4.213
								c-0.812-1.377,1.328-2.622,2.137-1.249c0.493,0.837,1.31,1.452,2.084,2.016c0.298,0.217,0.608,0.42,0.918,0.619
								c0.344,0.221-0.325-0.079-0.092-0.021c0.715,0.18,1.436,0.347,2.156,0.511c3.354,0.764,6.735,1.41,10.135,1.928
								c4.022,0.613,8.135,1.043,12.206,0.804c1.44-0.084,2.979-0.277,4.308-0.873c1.161-0.52,2.318-1.175,3.2-2.104
								c0.286-0.301,0.257-0.601,0.266-0.334C133.56,182.923,136.035,182.929,136.086,184.52L136.086,184.52z"/>
							<path style="fill:#6CC13D;" d="M124.87,135.712c-0.155-2.279,1.422-4.634,2.582-6.468c0.941-1.489,1.985-2.924,3.082-4.302
								c0.994-1.247,2.732,0.515,1.749,1.749c-0.884,1.112-1.702,2.288-2.484,3.475c-0.995,1.511-2.585,3.637-2.455,5.546
								C127.454,137.305,124.98,137.295,124.87,135.712L124.87,135.712z"/>
							<path style="fill:#6CC13D;" d="M105.778,124.589c2.18,1.949,3.13,5.117,3.19,7.942c0.033,1.596-2.441,1.593-2.475,0
								c-0.046-2.208-0.759-4.668-2.465-6.193C102.837,125.272,104.592,123.529,105.778,124.589L105.778,124.589z"/>
							<g>
								<path style="fill:#6CC13D;" d="M154.399,201.189c0,0,24.572-27.089,31.993-63.666c3.837-18.91-2.12-73.151-5.3-76.862
									c-3.182-3.71-6.894-2.12-12.723-6.891c-5.832-4.771-3.712-12.192,8.481-7.951c12.191,4.241,10.601,4.771,17.491,0.53
									c6.892-4.241,20.144-10.071,20.144-2.12c0,7.951-19.082,16.962-19.082,16.962s6.891,58.309,4.771,90.644
									c-2.12,32.335-47.708,72.622-47.708,72.622"/>
							</g>
							<g>
								<path style="fill:#6CC13D;" d="M84.131,221.767c0,0-48.092-37.262-52.293-69.393C27.635,120.243,30.75,61.61,30.75,61.61
									s-19.625-7.762-20.138-15.696C10.1,37.979,23.7,42.943,30.851,46.73c7.151,3.788,5.53,3.361,17.422-1.657
									c11.894-5.019,14.488,2.25,8.978,7.387c-5.511,5.137-9.316,3.79-12.251,7.698c-2.935,3.908-3.727,58.05-0.333,77.043
									c6.872,38.445,37.618,63.184,37.618,63.184"/>
							</g>
							<path style="fill:#81BC83;" d="M112.829,167.734c0,0,13.928,4.129,8.467-1.129
								C115.834,161.347,112.829,167.734,112.829,167.734z"/>
							<g>
								<g>
									
										<ellipse transform="matrix(-0.9048 -0.4259 0.4259 -0.9048 144.4773 361.6909)" style="fill:#6CC13D;" cx="112.678" cy="164.692" rx="1.237" ry="2.827"/>
								</g>
								<g>
									
										<ellipse transform="matrix(0.9048 -0.4259 0.4259 0.9048 -58.5402 67.5924)" style="fill:#6CC13D;" cx="121.866" cy="164.692" rx="1.237" ry="2.828"/>
								</g>
							</g>
						</g>
						<path style="fill:#62A878;" d="M144.838,113.448c0,0-4.22-16.66-14.469-23.021c-10.41-6.462-17.792-5.301-25.919,3.888
							c-7.541,8.524-9.795,22.667-9.795,22.667l-7.775-25.445l29.333-17.67l30.04,11.663L144.838,113.448z"/>
						<path style="fill:#62A878;" d="M171.272,114.726c0,0-24.232,1.737-26,0.323c-1.768-1.413-2.2-2.662-2.2-2.662
							s-9.02,5.414-23.679,5.654c-21.559,0.353-22.266-2.474-22.266-2.474l-1.06,2.474c0,0-14.49,3.534-21.912,2.827
							c-7.422-0.707-9.542-5.301-9.542-5.301s9.871-4.927,55.063-9.266c40.5-3.888,49.166,4.05,49.166,4.05L171.272,114.726z"/>
						<g>
							<path style="fill:#ED1C24;" d="M144.838,113.448c0,0-0.706,2.827,27.213-0.707c5.146-0.651-12.157-70.293-64.674-60.786
								c-40.995,7.422-45.627,49.777-44.53,63.261c0.739,9.054,31.807,1.766,31.807,1.766s-0.352-31.276,22.972-33.927
								C140.95,80.404,144.838,113.448,144.838,113.448z"/>
						</g>
						<g>
							<path style="fill:#4D4D4F;" d="M94.654,114.154c0,0,14.49,3.535,27.566,1.415c12.579-2.04,22.618-2.121,22.264-5.654
								c-0.444-4.449-2.826-9.896-2.826-9.896s-6.25,0.572-21.912,2.474c-17.819,2.163-23.12-0.487-23.12-0.487L94.654,114.154z
								 M131.762,106.379c0-1.562,1.266-2.827,2.828-2.827c1.561,0,2.827,1.265,2.827,2.827c0,1.562-1.267,2.828-2.827,2.828
								C133.028,109.207,131.762,107.941,131.762,106.379z M116.919,108.235c0-1.562,1.266-2.828,2.828-2.828
								s2.827,1.266,2.827,2.828s-1.265,2.828-2.827,2.828S116.919,109.796,116.919,108.235z M102.43,108.676
								c0-1.562,1.266-2.827,2.827-2.827c1.562,0,2.828,1.265,2.828,2.827c0,1.562-1.266,2.828-2.828,2.828
								C103.695,111.504,102.43,110.238,102.43,108.676z"/>
						</g>
						<path style="fill:none;stroke:#C42622;stroke-width:2;stroke-dasharray:5,5;" d="M109.106,54.283
							c0,0,7.487,28.639,6.427,27.579"/>
						<path style="fill:none;stroke:#C42622;stroke-width:2;stroke-dasharray:5,5;" d="M117.124,51.647
							c0,0,30.745,4.241,43.466,37.106c5.054,13.051,5.303,22.793,5.303,22.793"/>
						<path style="fill:none;stroke:#C42622;stroke-width:2;stroke-dasharray:5,5;" d="M102.282,53.768
							c0,0-21.734,12.722-26.505,29.155c-4.771,16.433-6.627,35.474-6.627,35.474"/>
					</g>
					<path style="fill:#37B34A;" d="M160.412,374.644c-0.813-3.413-5.217-39.061-5.04-41.269c0,0,5.348,37.747,14.095,44.224
						c8.022,5.94,22.809,9.925,41.956,7.934c43.576-4.531,59.583-56.506,59.583-56.506s-2.124,15.604-13.783,31.451
						c-9.581,13.022-26.71,26.465-44.883,29.334C182.123,394.583,162.18,382.064,160.412,374.644z"/>
					<path style="fill:#37B34A;" d="M167.523,485.648c-4.052,2.754-7.109,4.189-7.594,3.848c0,0,13.615-17.622,19.623-15.854
						c6.009,1.767,17.493,13.364,17.493,13.364s-2.293,0.131-6.682-2.734c-4.374-2.854-6.079-4.606-11.178-4.313
						C176.001,480.14,171.512,482.935,167.523,485.648z"/>
					<path style="fill:#37B34A;" d="M54.29,487.43c0,0,10.758-9.3,16.766-7.532c6.007,1.765,14.013,10.935,14.013,10.935
						s-1.481,0.362-5.083-1.975c-3.675-2.387-7.102-4.853-9.446-5.315c-0.6-0.12-1.591-0.179-1.975,0
						C60.972,487.066,56.598,488.098,54.29,487.43z"/>
					<g>
						<path style="fill:#6CC13D;" d="M103.549,144.312c0,0-8.797-12.266-24.503-10.837c-15.55,1.413-14.18,8.89-20.263,7.774
							c-14.136-2.591-6.476-21.268,10.367-22.853C89.176,116.511,101.429,131.589,103.549,144.312z"/>
					</g>
				</g>
				<g>
					<g>
						<polyline style="fill:#FFE166;" points="3.918,46.111 3.918,7.233 224.554,7.233 224.554,46.111 3.918,46.111 						"/>
						<polyline style="fill:#FFF3BF;" points="28.217,46.111 28.217,7.233 31.133,7.233 31.133,46.111 28.217,46.111 						"/>
						<polyline style="fill:#FFF3BF;" points="21.414,46.111 21.414,7.233 24.33,7.233 24.33,46.111 21.414,46.111 						"/>
						<polyline style="fill:#FFF3BF;" points="14.61,46.111 14.61,7.233 17.526,7.233 17.526,46.111 14.61,46.111 						"/>
						<path style="fill:#EDCD9B;" d="M220.666,26.672c0,4.294,1.738,7.776,3.888,7.776c-2.149,0-3.888,2.612-3.888,5.832
							s1.738,5.832,3.888,5.832l31.103-19.439L224.554,7.233c-2.149,0-3.888,2.613-3.888,5.832c0,3.219,1.738,5.832,3.888,5.832
							C222.404,18.896,220.666,22.378,220.666,26.672"/>
						<path style="fill:#4D4232;" d="M241.301,35.644l14.355-8.972l-14.355-8.971c-0.767,2.759-1.196,5.79-1.196,8.971
							S240.534,32.884,241.301,35.644"/>
						<path style="fill:#FFD328;" d="M31.133,34.448v11.663h193.42c-2.149,0-3.888-2.612-3.888-5.832s1.738-5.832,3.888-5.832l0,0
							H31.133 M24.33,34.448v11.663h3.888V34.448H24.33 M17.526,34.448v11.663h3.888V34.448H17.526 M3.918,34.448v11.663H14.61
							V34.448H3.918"/>
						<polyline style="fill:#FFEE99;" points="28.217,34.448 28.217,46.111 31.133,46.111 31.133,34.448 28.217,34.448 						"/>
						<polyline style="fill:#FFEE99;" points="21.414,34.448 21.414,46.111 24.33,46.111 24.33,34.448 21.414,34.448 						"/>
						<polyline style="fill:#FFEE99;" points="14.61,34.448 14.61,46.111 17.526,46.111 17.526,34.448 14.61,34.448 						"/>
						<path style="fill:#E6B55F;" d="M241.301,35.644c-0.452-1.627-0.786-3.347-0.985-5.137l-15.762,3.941l0,0
							c-2.149,0-3.888,2.612-3.888,5.832s1.738,5.832,3.888,5.832L241.301,35.644z"/>
						<path style="fill:#2E2213;" d="M255.656,26.672l-15.341,3.834c0.199,1.791,0.533,3.51,0.985,5.137L255.656,26.672
							L255.656,26.672"/>
						<path style="fill:#FFC81B;" d="M31.133,18.896v15.551h193.42c-2.149,0-3.888-3.482-3.888-7.776s1.738-7.775,3.888-7.775l0,0
							H31.133 M24.33,18.896v15.551h3.888V18.896H24.33 M17.526,18.896v15.551h3.888V18.896H17.526 M3.918,18.896v15.551H14.61
							V18.896H3.918"/>
						<polyline style="fill:#FFEA7A;" points="28.217,18.896 28.217,34.448 31.133,34.448 31.133,18.896 28.217,18.896 						"/>
						<polyline style="fill:#FFEA7A;" points="21.414,18.896 21.414,34.448 24.33,34.448 24.33,18.896 21.414,18.896 						"/>
						<polyline style="fill:#FFEA7A;" points="14.61,18.896 14.61,34.448 17.526,34.448 17.526,18.896 14.61,18.896 						"/>
						<path style="fill:#E1A342;" d="M224.554,18.896L224.554,18.896c-2.149,0-3.888,3.481-3.888,7.775s1.738,7.776,3.888,7.776
							l15.762-3.941c-0.139-1.247-0.211-2.528-0.211-3.834c0-1.308,0.072-2.587,0.211-3.834L224.554,18.896L224.554,18.896"/>
						<path style="fill:#24190D;" d="M240.315,22.838c-0.139,1.247-0.211,2.526-0.211,3.834c0,1.307,0.072,2.587,0.211,3.834
							l15.341-3.834L240.315,22.838"/>
					</g>
				</g>
				<g>
					<path style="fill:#6CC13D;" d="M37.433,49.173l10.839-4.1c11.894-5.019,14.488,2.25,8.978,7.387
						c-5.511,5.137-9.316,3.79-12.251,7.698"/>
				</g>
				<path style="fill:#A1D030;" d="M19.481,46.163h10.267c0,0,5.036,2.916,6.804,2.916c1.767,0,11.721-4.005,11.721-4.005
					s3.62-1.646,5.854-1.583c1.018,0.029-12.13,8.465-14.958,9.172C32.913,54.226,19.481,46.163,19.481,46.163z"/>
				<g>
					<path style="fill:#6CC13D;" d="M187.448,49.173l-10.597-3.354c-12.193-4.241-14.313,3.181-8.481,7.951
						c5.829,4.771,9.541,3.181,12.723,6.891"/>
				</g>
				<path style="fill:#A1D030;" d="M187.691,49.079c-2.011-0.125-7.533-2.551-14.397-4.191c0,0,10.42,7.42,15.367,7.067
					s13.913-5.731,13.913-5.731h-7.958C194.616,46.224,190.607,49.261,187.691,49.079z"/>
				<g>
					<path style="fill:#F6921E;" d="M45.455,31.582c-0.426,0.06-0.881,0.089-1.366,0.089c-0.66,0-1.317-0.087-1.971-0.261
						c-0.655-0.174-1.247-0.455-1.778-0.844c-0.532-0.389-0.961-0.895-1.291-1.517c-0.329-0.622-0.495-1.382-0.495-2.279
						c0-0.833,0.138-1.563,0.412-2.189s0.657-1.151,1.146-1.572c0.49-0.421,1.066-0.735,1.73-0.941
						c0.664-0.206,1.389-0.308,2.176-0.308c0.394,0,0.808,0.034,1.242,0.103c0.435,0.068,0.978,0.199,1.627,0.391l-0.205,2.073
						c-0.477-0.265-0.916-0.444-1.318-0.535c-0.403-0.091-0.792-0.137-1.167-0.137c-0.458,0-0.871,0.078-1.243,0.233
						c-0.37,0.156-0.686,0.371-0.947,0.645c-0.261,0.274-0.462,0.602-0.604,0.982c-0.142,0.379-0.213,0.794-0.213,1.242
						c0,0.476,0.081,0.902,0.241,1.277c0.16,0.375,0.382,0.691,0.666,0.947s0.62,0.453,1.009,0.59s0.817,0.206,1.284,0.206
						c0.357,0,0.725-0.037,1.104-0.11c0.38-0.073,0.808-0.201,1.285-0.384l0.123,2.005C46.363,31.424,45.88,31.522,45.455,31.582z"
						/>
					<path style="fill:#F6921E;" d="M53.438,31.507l-0.522-1.648c-0.128-0.394-0.247-0.728-0.357-1.002
						c-0.109-0.274-0.23-0.497-0.363-0.666c-0.133-0.169-0.284-0.29-0.453-0.363c-0.17-0.073-0.373-0.11-0.611-0.11h-0.577v3.79
						h-2.553v-9.583h4.558c0.412,0,0.806,0.048,1.181,0.144c0.376,0.097,0.706,0.243,0.989,0.439
						c0.284,0.197,0.508,0.446,0.673,0.749c0.164,0.302,0.247,0.664,0.247,1.084c0,0.632-0.146,1.154-0.439,1.565
						c-0.293,0.412-0.759,0.695-1.4,0.851v0.028c0.156,0.046,0.304,0.121,0.446,0.226c0.141,0.105,0.258,0.254,0.35,0.447
						c0.101,0.201,0.194,0.428,0.281,0.68c0.087,0.251,0.18,0.506,0.282,0.762l0.933,2.609H53.438z M52.951,24.271
						c-0.097-0.138-0.225-0.245-0.384-0.323c-0.161-0.078-0.351-0.132-0.571-0.165c-0.219-0.032-0.453-0.048-0.699-0.048h-0.743
						v2.169h0.879c0.238,0,0.458-0.016,0.66-0.048c0.201-0.032,0.376-0.089,0.527-0.171c0.152-0.083,0.268-0.195,0.351-0.337
						c0.083-0.142,0.123-0.323,0.123-0.542S53.047,24.408,52.951,24.271z"/>
					<path style="fill:#F6921E;" d="M57.159,31.507v-9.583h6.755v1.812h-4.202v1.977h3.969v1.813h-3.969v2.169h4.353v1.813H57.159z"
						/>
					<path style="fill:#F6921E;" d="M72.495,31.507l-0.714-2.046h-3.597l-0.755,2.046h-2.595l3.638-9.583h3.13l3.693,9.583H72.495z
						 M70.037,23.9H70.01l-1.236,3.749h2.403L70.037,23.9z"/>
					<path style="fill:#F6921E;" d="M79.567,23.818v7.689h-2.554v-7.689h-2.361v-1.895h7.277v1.895H79.567z"/>
					<path style="fill:#F6921E;" d="M83.122,31.507v-9.583h2.554v9.583H83.122z"/>
					<path style="fill:#F6921E;" d="M93.2,31.507h-3.158l-3.212-9.583h2.718l2.128,7.523h0.027l2.142-7.523h2.623L93.2,31.507z"/>
					<path style="fill:#F6921E;" d="M97.429,31.507v-9.583h6.755v1.812h-4.202v1.977h3.969v1.813h-3.969v2.169h4.353v1.813H97.429z"
						/>
					<path style="fill:#F6921E;" d="M118.854,28.85c-0.261,0.609-0.634,1.11-1.119,1.503c-0.485,0.393-1.08,0.684-1.785,0.872
						c-0.705,0.188-1.497,0.282-2.375,0.282h-3.487v-9.583h3.515c0.861,0,1.638,0.078,2.334,0.233
						c0.696,0.156,1.289,0.419,1.779,0.79c0.489,0.371,0.867,0.861,1.132,1.47c0.266,0.608,0.398,1.361,0.398,2.258
						C119.246,27.516,119.116,28.241,118.854,28.85z M116.287,25.191c-0.215-0.385-0.476-0.68-0.782-0.886s-0.629-0.338-0.968-0.398
						s-0.631-0.089-0.879-0.089h-1.016v5.794h1.03c0.311,0,0.641-0.039,0.988-0.117c0.348-0.078,0.666-0.222,0.954-0.433
						c0.289-0.21,0.527-0.503,0.715-0.878c0.187-0.375,0.281-0.86,0.281-1.456C116.61,26.088,116.502,25.575,116.287,25.191z"/>
					<path style="fill:#F6921E;" d="M120.702,31.507v-9.583h6.755v1.812h-4.202v1.977h3.968v1.813h-3.968v2.169h4.353v1.813H120.702
						z"/>
					<path style="fill:#F6921E;" d="M134.954,30.875c-0.724,0.531-1.768,0.796-3.131,0.796c-0.485,0-0.983-0.037-1.496-0.11
						c-0.513-0.073-0.966-0.173-1.359-0.302l0.219-2.114c0.422,0.211,0.842,0.369,1.264,0.474c0.42,0.105,0.887,0.158,1.4,0.158
						c0.558,0,0.957-0.083,1.195-0.248c0.238-0.165,0.357-0.393,0.357-0.686c0-0.302-0.112-0.531-0.336-0.687
						c-0.225-0.155-0.504-0.29-0.838-0.405c-0.334-0.114-0.698-0.229-1.092-0.343c-0.394-0.115-0.757-0.274-1.091-0.48
						s-0.613-0.482-0.837-0.831c-0.225-0.347-0.337-0.814-0.337-1.4c0-0.577,0.126-1.053,0.378-1.428
						c0.251-0.375,0.577-0.675,0.975-0.899c0.399-0.224,0.847-0.382,1.346-0.474c0.498-0.091,0.991-0.137,1.476-0.137
						c0.403,0,0.826,0.027,1.27,0.082c0.444,0.055,0.844,0.146,1.202,0.274l-0.165,1.978c-0.348-0.156-0.686-0.268-1.016-0.336
						c-0.33-0.069-0.71-0.103-1.14-0.103c-0.156,0-0.333,0.006-0.529,0.02c-0.197,0.014-0.383,0.051-0.556,0.11
						c-0.174,0.059-0.318,0.148-0.432,0.268c-0.115,0.119-0.172,0.284-0.172,0.494c0,0.257,0.112,0.453,0.336,0.59
						c0.224,0.138,0.503,0.257,0.838,0.357c0.333,0.101,0.698,0.206,1.091,0.315c0.393,0.11,0.757,0.27,1.091,0.48
						s0.613,0.492,0.838,0.845c0.224,0.352,0.336,0.817,0.336,1.394C136.038,29.562,135.676,30.344,134.954,30.875z"/>
					<path style="fill:#F6921E;" d="M137.671,31.507v-9.583h2.553v9.583H137.671z"/>
					<path style="fill:#F6921E;" d="M149.212,31.568c-0.564,0.069-1.192,0.103-1.89,0.103c-0.723,0-1.418-0.096-2.086-0.288
						c-0.668-0.192-1.259-0.49-1.771-0.893c-0.512-0.403-0.922-0.911-1.228-1.524c-0.308-0.613-0.462-1.346-0.462-2.197
						c0-0.851,0.139-1.592,0.412-2.224c0.275-0.631,0.674-1.153,1.196-1.565c0.52-0.412,1.154-0.718,1.9-0.919
						s1.595-0.302,2.547-0.302c0.247,0,0.5,0.009,0.756,0.027c0.257,0.019,0.513,0.043,0.769,0.076
						c0.257,0.032,0.502,0.076,0.735,0.13c0.233,0.055,0.445,0.119,0.638,0.192l-0.207,2.087c-0.384-0.229-0.792-0.389-1.221-0.48
						c-0.431-0.091-0.801-0.137-1.112-0.137c-0.486,0-0.955,0.053-1.407,0.158c-0.453,0.105-0.854,0.279-1.201,0.521
						c-0.35,0.243-0.63,0.561-0.845,0.955s-0.323,0.883-0.323,1.469c0,0.467,0.078,0.888,0.234,1.264
						c0.155,0.375,0.375,0.693,0.658,0.954c0.283,0.261,0.621,0.46,1.01,0.598c0.39,0.137,0.813,0.206,1.271,0.206
						c0.237,0,0.427-0.016,0.569-0.048c0.143-0.033,0.262-0.071,0.364-0.117v-1.895h-1.498v-1.812h3.968v5.327
						C150.366,31.388,149.773,31.5,149.212,31.568z"/>
					<path style="fill:#F6921E;" d="M158.5,31.507l-3.351-6.549h-0.028l0.084,6.549h-2.349v-9.583h3.254l3.24,6.508h0.028
						l-0.042-6.508h2.334v9.583H158.5z"/>
					<path style="fill:#F6921E;" d="M171.9,23.818v7.689h-2.555v-7.689h-2.361v-1.895h7.278v1.895H171.9z"/>
					<path style="fill:#F6921E;" d="M175.265,31.507v-9.583h6.754v1.812h-4.2v1.977h3.967v1.813h-3.967v2.169h4.353v1.813H175.265z"
						/>
					<path style="fill:#F6921E;" d="M190.6,31.507l-0.714-2.046h-3.598l-0.753,2.046h-2.596l3.638-9.583h3.13l3.694,9.583H190.6z
						 M188.143,23.9h-0.028l-1.235,3.749h2.403L188.143,23.9z"/>
					<path style="fill:#F6921E;" d="M203.918,31.507l0.042-7.36h-0.028l-2.443,7.36h-2.348l-2.333-7.36h-0.029l0.056,7.36h-2.498
						v-9.583h4.022l2.031,6.37h0.028l2.128-6.37h3.871v9.583H203.918z"/>
				</g>
				<g>
					<path style="fill:#ED1C24;" d="M99.631,53.238c0.658,3.084,6.241,1.962,10.535,1.045c4.295-0.917,9.737-1.672,9.079-4.756
						c-0.659-3.083-9.136-14.524-13.431-13.607C101.521,36.837,98.972,50.154,99.631,53.238z"/>
				</g>
				<path style="fill:#A61C21;" d="M99.58,53.74c0,0,4.923,0.056,9.57-0.742c4.647-0.797,10.222-1.851,10.222-1.851
					S108.837,57.891,99.58,53.74z"/>
				<g>
					<circle style="fill:#F2F3F4;" cx="82.366" cy="149.617" r="12.921"/>
					<path style="fill:#E8E9EA;" d="M87.642,149.707c0-5.843-3.879-10.78-9.202-12.377c1.241-0.396,2.563-0.611,3.936-0.611
						c7.136,0,12.92,5.785,12.92,12.921c0,7.137-5.784,12.921-12.92,12.921c-1.292,0-2.541-0.192-3.719-0.544
						C83.868,160.352,87.642,155.471,87.642,149.707z"/>
					<circle style="fill:#26A9E0;" cx="82.344" cy="149.902" r="7.537"/>
					<path style="fill:#1B75BB;" d="M85.761,149.888c0-3.437-2.302-6.333-5.445-7.24c0.642-0.179,1.317-0.276,2.017-0.276
						c4.162,0,7.537,3.375,7.537,7.537c0,4.163-3.375,7.538-7.537,7.538c-0.726,0-1.428-0.105-2.092-0.297
						C83.424,156.268,85.761,153.352,85.761,149.888z"/>
					<circle cx="82.167" cy="149.848" r="3.538"/>
					<ellipse style="fill:#FFFFFF;" cx="78.973" cy="149.106" rx="1.175" ry="1.145"/>
					<ellipse style="fill:#FFFFFF;" cx="81.069" cy="146.124" rx="0.632" ry="0.572"/>
				</g>
				<g>
					<circle style="fill:#F2F3F4;" cx="153.18" cy="149.618" r="12.921"/>
					<path style="fill:#E8E9EA;" d="M158.455,149.707c0-5.843-3.879-10.779-9.202-12.376c1.24-0.396,2.563-0.612,3.936-0.612
						c7.136,0,12.92,5.786,12.92,12.921c0,7.136-5.784,12.921-12.92,12.921c-1.293,0-2.54-0.191-3.719-0.544
						C154.681,160.353,158.455,155.471,158.455,149.707z"/>
					<circle style="fill:#26A9E0;" cx="153.157" cy="149.902" r="7.537"/>
					<path style="fill:#1B75BB;" d="M156.575,149.888c0-3.437-2.303-6.333-5.446-7.24c0.642-0.179,1.317-0.275,2.018-0.275
						c4.161,0,7.537,3.375,7.537,7.537c0,4.163-3.376,7.538-7.537,7.538c-0.727,0-1.427-0.106-2.092-0.297
						C154.238,156.268,156.575,153.352,156.575,149.888z"/>
					<circle cx="152.981" cy="149.848" r="3.538"/>
					<ellipse style="fill:#FFFFFF;" cx="149.787" cy="149.106" rx="1.175" ry="1.145"/>
					<ellipse style="fill:#FFFFFF;" cx="151.882" cy="146.124" rx="0.632" ry="0.572"/>
				</g>
			</g>
			<path style="fill:#A1D030;" d="M70.488,207.993c0,0,3.888,2.268,6.48,4.536c9.841,8.61,7.127,15.228,7.82,29.969
				c1.119,23.806-4.617,100.111-4.617,100.111s-0.125,22.841-1.098,30.859c-0.972,8.019-4.374,13.607-4.374,13.607
				s1.944-39.364,3.402-90.148c0.991-34.521,1.944-63.177,1.34-77.757C79.213,213.634,73.404,213.825,70.488,207.993z"/>
			<path style="fill:#37B34A;" d="M74.314,211.781c0,0,5.832,3.887,7.775,7.127c1.944,3.24-0.648,9.072-0.648,9.072l-1.999-8.81
				L74.314,211.781z"/>
			<path style="fill:#37B34A;" d="M111.878,380.03c0,0-17.009,0.521-20.897-0.207c-2.747-0.517-7.123,3.043,9.841,2.758
				c17.745-0.3,33.411-2.551,33.897-3.158L111.878,380.03z"/>
			<path style="fill:#6CC13D;" d="M263.846,325.661c0,0-0.486,43.738-52.485,53.457c-29.938,5.597-48.599-14.579-48.599-14.579
				l-6.416-29.868c0,0,30.453,23.002,49.245,26.242C220.151,363.422,249.752,358.221,263.846,325.661z"/>
			<path style="fill:#A1D030;" d="M174.165,455.193c0,0,0.971,8.425,10.367,13.284c9.396,4.859,10.044,3.238,10.044,3.238
				s-15.229-8.423-18.145-14.579C173.517,450.982,174.165,455.193,174.165,455.193z"/>
			<path style="fill:#A1D030;" d="M67.168,454.95l-0.647,16.523c0,0-3.888,1.621-9.396,4.859c-5.508,3.24-6.155,6.156-6.155,6.156
				s-1.29-5.099,11.015-11.663C66.844,468.234,65.224,464.669,67.168,454.95z"/>
		</g>
		<path style="fill:#FF3B24;" d="M105.921,37.966c2.916,0.243,8.22,5.094,4.86,4.374c-6.804-1.458-9.233,3.402-9.233,3.402
			S103.005,37.723,105.921,37.966z"/>
	</g>
	<path style="fill:#A1D030;" d="M159.846,213.4c0,0-13.607,8.262-15.551,27.701c-1.944,19.438,0.649,60.1,8.425,106.753
		c1.374,8.256,8.099,29.807,8.099,29.807l-5.832-44.225l-3.888-46.653l0.486-50.055C151.585,236.728,153.365,216.64,159.846,213.4z"
		/>
	<path style="fill:#37B34A;" d="M155.958,219.232c0,0-3.888,9.719-4.373,17.495c-0.486,7.775-2.753-7.451-2.753-7.451
		S151.099,222.148,155.958,219.232z"/>
	<path style="fill:#A1D030;" d="M212.332,362.109c23.327,0.786,32.329-9.177,48.831-30.694c0,0-4.607,26.32-32.308,37.498
		c-33.393,13.475-67.552-12.149-67.552-12.149l-3.888-18.953C157.416,337.81,182.767,361.114,212.332,362.109z"/>
	<path style="fill:#D6DE23;" d="M164.057,356.602c-4.535-1.944-4.696-16.362-4.696-16.362s13.692,8.897,23.813,14.094
		c35.963,18.467,47.624,8.747,47.624,8.747s-11.661,12.312-51.997-0.972C171.563,359.726,170.132,359.205,164.057,356.602z"/>
</g>
</svg>
