<?xml version="1.0" encoding="iso-8859-1"?>
<!-- Generator: Adobe Illustrator 14.0.0, SVG Export Plug-In . SVG Version: 6.00 Build 43363)  -->
<!DOCTYPE svg PUBLIC "-//W3C//DTD SVG 1.1//EN" "http://www.w3.org/Graphics/SVG/1.1/DTD/svg11.dtd">
<svg version="1.1" id="Layer_1" xmlns="http://www.w3.org/2000/svg" xmlns:xlink="http://www.w3.org/1999/xlink" x="0px" y="0px"
	 width="466.407px" height="73.411px" viewBox="0 0 466.407 73.411" style="enable-background:new 0 0 466.407 73.411;"
	 xml:space="preserve">
<g>
	<path d="M11.576,43.912c0.333-0.333,0.762-0.708,1.292-1.125c0.527-0.416,1.054-0.721,1.583-0.916
		c0.527-0.194,1.013-0.222,1.458-0.084c0.444,0.14,0.75,0.598,0.917,1.376c0.11,0.499,0.068,0.999-0.125,1.499
		c-0.196,0.5-0.514,1.14-0.958,1.917c-0.279,0.499-0.5,1.07-0.667,1.708c-0.167,0.64-0.279,1.321-0.333,2.042l0.5-0.5
		c1.666-1.722,3.319-3.458,4.958-5.208c1.638-1.75,3.319-3.514,5.042-5.292c-1.889,0-3.778,0-5.667,0
		c-1.889,0-3.806-0.055-5.75-0.167c-0.39,0-0.903-0.013-1.542-0.042c-0.639-0.027-1.25-0.109-1.834-0.249
		c-0.583-0.139-1.07-0.389-1.458-0.75c-0.389-0.36-0.528-0.876-0.416-1.542c0.11-0.778,0.429-1.485,0.958-2.125
		c0.527-0.638,1.18-1.07,1.958-1.292c0.721-0.111,1.25-0.027,1.583,0.249c2.388,0.5,4.944,0.696,7.666,0.584
		c2.722-0.111,5.888-0.167,9.5-0.167c2.833-3,5.251-5.527,7.25-7.583c2-2.055,3.736-3.833,5.208-5.333
		c1.471-1.5,2.763-2.792,3.875-3.875c1.11-1.083,2.193-2.126,3.25-3.125c1.888-1.777,3.875-3.527,5.958-5.25
		c2.083-1.722,4.319-3.139,6.708-4.25c0.778-0.388,1.763-0.75,2.958-1.083c1.194-0.333,2.236-0.221,3.125,0.333
		c0.554,0.333,0.943,0.75,1.166,1.25c0.221,0.5,0.333,1.029,0.333,1.583c0,0.556-0.056,1.125-0.167,1.708
		c-0.112,0.583-0.25,1.125-0.417,1.625c-0.833,2.556-1.903,5.015-3.208,7.375c-1.306,2.362-2.654,4.68-4.042,6.958
		c-1.333,2.278-2.709,4.529-4.125,6.75c-1.416,2.224-2.833,4.487-4.25,6.792c-1.417,2.306-2.806,4.667-4.167,7.083
		c-1.362,2.417-2.597,4.931-3.708,7.542c0.611,0.445,0.888,1.041,0.833,1.792c-0.056,0.75-0.306,1.458-0.75,2.124
		c-0.279,0.389-0.639,0.75-1.083,1.084c-0.445,0.333-0.917,0.569-1.417,0.708c-0.5,0.138-0.987,0.153-1.459,0.042
		c-0.473-0.112-0.904-0.39-1.292-0.833c-0.445-0.5-0.681-1.098-0.708-1.793c-0.029-0.693,0.042-1.401,0.208-2.124
		c0.167-0.721,0.388-1.43,0.667-2.125c0.278-0.694,0.556-1.292,0.834-1.792c0.555-1.221,1.235-2.583,2.041-4.083
		c0.805-1.5,1.959-3.555,3.458-6.167c-2.5,0.39-5.056,0.487-7.667,0.292c-2.612-0.194-5.25-0.235-7.917-0.125l-9.167,9.75
		c-1,1.111-2.015,2.195-3.042,3.25c-1.029,1.056-2.098,2.111-3.208,3.167c-0.334,0.333-0.709,0.68-1.126,1.041
		c-0.416,0.36-0.875,0.68-1.375,0.958c-0.5,0.278-1.015,0.472-1.542,0.584c-0.529,0.111-1.042,0.083-1.542-0.084
		c-1.112-0.389-1.806-1.208-2.083-2.458c-0.279-1.25-0.32-2.61-0.125-4.083c0.194-1.472,0.583-2.916,1.167-4.333
		C10.284,45.704,10.909,44.635,11.576,43.912z M48.326,33.663c0.443,0,0.846,0.083,1.208,0.25c0.361,0.167,0.625,0.333,0.792,0.5
		c0.889-1.388,1.959-3.083,3.209-5.083c1.249-1.999,2.485-4.068,3.708-6.208c1.221-2.138,2.375-4.208,3.458-6.208
		c1.083-2,1.958-3.667,2.625-5c0.444-0.943,0.556-1.595,0.333-1.958c-0.222-0.36-1-0.041-2.333,0.958
		c-1.279,0.833-2.542,1.75-3.792,2.75c-1.25,1.001-2.473,2.042-3.667,3.125c-1.195,1.083-2.333,2.154-3.417,3.208
		c-1.083,1.056-2.07,2.028-2.958,2.917c-1.889,1.778-3.708,3.571-5.458,5.375c-1.75,1.806-3.486,3.598-5.208,5.375H48.326z"/>
	<path d="M101.99,40.579c0.111-0.443,0.403-0.93,0.875-1.459c0.472-0.526,0.986-0.943,1.542-1.25
		c0.555-0.304,1.111-0.429,1.667-0.374c0.555,0.056,1,0.417,1.333,1.083c0.443,1,0.429,2.32-0.042,3.959
		c-0.473,1.639-1.098,3.903-1.875,6.791c2.722-3.333,5.36-6.722,7.917-10.167c2.554-3.443,5.111-6.929,7.667-10.458
		c2.555-3.527,5.179-7.068,7.875-10.625c2.694-3.555,5.542-7.055,8.542-10.5c0.61-0.778,1.305-1.583,2.083-2.417
		c0.777-0.834,1.638-1.417,2.583-1.75c0.777-0.278,1.471-0.278,2.083,0c0.611,0.279,0.944,0.861,1,1.75
		c0.11,1.056,0.096,2.139-0.042,3.25c-0.14,1.112-0.333,2.222-0.583,3.333c-0.25,1.113-0.542,2.208-0.875,3.292
		c-0.333,1.083-0.612,2.125-0.833,3.125c-0.167,0.612-0.431,1.695-0.792,3.25c-0.362,1.556-0.778,3.306-1.25,5.251
		c-0.473,1.945-0.973,3.986-1.5,6.124c-0.529,2.14-1.001,4.084-1.417,5.834c-0.417,1.75-0.903,3.764-1.459,6.041l6-8.333
		c2-2.833,3.986-5.667,5.959-8.5c1.971-2.833,3.985-5.638,6.041-8.416c1-1.222,1.985-2.514,2.959-3.875
		c0.971-1.36,1.985-2.679,3.042-3.958c1.054-1.277,2.152-2.512,3.292-3.708c1.138-1.194,2.346-2.263,3.625-3.208
		c0.388-0.278,0.875-0.555,1.458-0.834c0.583-0.277,1.166-0.458,1.75-0.541c0.584-0.084,1.097,0,1.542,0.249
		c0.443,0.25,0.694,0.792,0.75,1.626c0,0.612-0.125,1.237-0.375,1.875c-0.25,0.639-0.681,1.098-1.292,1.375
		c-1.5,0.612-3.223,2-5.167,4.167c-1.945,2.166-4,4.75-6.167,7.75c-0.667,0.889-1.389,1.847-2.166,2.875
		c-0.779,1.028-1.765,2.375-2.958,4.041c-1.195,1.667-2.695,3.792-4.5,6.375c-1.806,2.584-4.098,5.849-6.875,9.792
		c-1.278,1.723-2.542,3.515-3.792,5.375c-1.25,1.862-2.625,3.542-4.125,5.042c-0.333,0.278-0.696,0.556-1.083,0.833
		c-0.389,0.278-0.792,0.501-1.208,0.667c-0.417,0.167-0.848,0.235-1.292,0.208c-0.445-0.029-0.861-0.265-1.249-0.709
		c-0.613-0.609-0.89-1.359-0.834-2.249c0.055-0.888,0.111-1.721,0.167-2.501c0.278-2.276,0.68-4.513,1.209-6.707
		c0.527-2.194,1.042-4.376,1.542-6.542c0.887-3.722,1.818-7.43,2.791-11.125c0.971-3.694,1.958-7.541,2.958-11.541
		c-2.446,2.944-4.834,5.944-7.167,8.999c-2.333,3.057-4.667,6.167-7,9.333c-2.333,3.167-4.695,6.348-7.083,9.542
		c-2.389,3.194-4.89,6.374-7.5,9.541c-0.445,0.5-0.904,1.083-1.375,1.75c-0.473,0.666-0.987,1.306-1.542,1.916
		c-0.556,0.611-1.125,1.167-1.708,1.668c-0.583,0.499-1.208,0.86-1.875,1.082c-1.112,0.334-1.931,0.195-2.458-0.416
		c-0.529-0.612-0.862-1.487-1-2.625c-0.139-1.139-0.112-2.444,0.083-3.917c0.194-1.472,0.431-2.916,0.709-4.333
		c0.277-1.417,0.555-2.68,0.833-3.792C101.684,41.802,101.879,41.024,101.99,40.579z"/>
	<path d="M172.406,41.579c-3.778,2.779-7.778,5.111-11.999,7c0.776,0.5,1.679,0.765,2.708,0.792
		c1.027,0.028,2.097-0.084,3.208-0.334c1.111-0.25,2.208-0.583,3.292-0.999c1.083-0.417,2.096-0.792,3.042-1.126
		c2.11-0.888,4.319-2,6.625-3.333c2.304-1.333,4.513-2.722,6.625-4.167c1.277-0.777,2.485-1.624,3.625-2.541
		c1.138-0.917,2.347-1.764,3.625-2.542c0.555-0.333,1.097-0.513,1.625-0.541c0.527-0.028,0.972,0.083,1.333,0.333
		c0.36,0.25,0.597,0.612,0.709,1.083c0.11,0.474,0.054,1.042-0.168,1.708c-0.278,0.667-0.68,1.279-1.208,1.834
		c-0.529,0.556-1.112,1.07-1.75,1.542c-0.639,0.473-1.307,0.916-2,1.333c-0.694,0.417-1.292,0.819-1.791,1.208
		c-1.278,0.778-2.556,1.584-3.833,2.417c-1.279,0.833-2.557,1.639-3.834,2.416c-2.666,1.612-5.472,3.07-8.416,4.375
		c-2.946,1.306-6,2.182-9.167,2.625c-1.278,0.223-2.611,0.306-4,0.25c-1.39-0.055-2.64-0.319-3.75-0.791
		c-1.112-0.472-1.999-1.209-2.666-2.209c-0.667-0.999-0.862-2.333-0.584-3.999c0.388-2.834,1.485-5.486,3.292-7.959
		c1.805-2.472,3.735-4.596,5.791-6.375c0.834-0.721,1.847-1.5,3.042-2.333c1.194-0.833,2.459-1.541,3.792-2.125
		c1.334-0.583,2.667-0.93,4.001-1.042c1.333-0.11,2.555,0.167,3.667,0.834c1.387,0.889,2.069,1.945,2.042,3.167
		c-0.029,1.223-0.431,2.444-1.208,3.667c-0.779,1.223-1.737,2.361-2.875,3.416C174.059,40.218,173.128,41.024,172.406,41.579z
		 M169.907,34.829c-1.723,0.778-3.321,1.792-4.792,3.041c-1.472,1.25-2.764,2.765-3.875,4.542c2.833-1.277,5.471-2.776,7.917-4.499
		c0.277-0.167,0.638-0.417,1.083-0.75c0.443-0.334,0.875-0.667,1.292-1c0.416-0.334,0.763-0.667,1.041-1.001
		c0.278-0.333,0.389-0.611,0.333-0.833c-0.111-0.167-0.306-0.263-0.583-0.292c-0.278-0.027-0.57,0-0.875,0.084
		c-0.306,0.083-0.598,0.195-0.875,0.333C170.295,34.594,170.074,34.719,169.907,34.829z"/>
	<path d="M196.823,30.079c0.276-0.278,0.637-0.555,1.083-0.833c0.443-0.278,0.888-0.472,1.333-0.584
		c0.444-0.11,0.875-0.083,1.292,0.084s0.709,0.528,0.875,1.083c0.277,0.778,0.208,1.514-0.209,2.208
		c-0.416,0.695-0.847,1.321-1.292,1.875c-0.445,0.5-1.306,1.446-2.583,2.833c-1.278,1.39-2.556,2.875-3.833,4.459
		c-1.279,1.583-2.363,3.111-3.25,4.583c-0.89,1.474-1.166,2.515-0.833,3.125c1,0,2.11-0.36,3.333-1.083
		c1.221-0.722,2.443-1.569,3.667-2.542c1.222-0.972,2.361-1.971,3.417-3c1.054-1.027,1.887-1.846,2.499-2.458
		c1.444-1.443,2.819-2.93,4.125-4.458c1.305-1.528,2.764-3.097,4.375-4.708c0.444-0.554,0.944-1.069,1.5-1.542
		c0.554-0.471,1.166-0.652,1.833-0.541c0.444,0,0.805,0.139,1.083,0.416c0.278,0.279,0.472,0.612,0.583,1
		c0.11,0.389,0.125,0.792,0.042,1.208c-0.083,0.417-0.237,0.792-0.458,1.125l-5.333,6.75c-0.389,0.5-0.904,1.237-1.541,2.208
		c-0.64,0.973-1.223,1.958-1.75,2.959c-0.529,1-0.917,1.931-1.167,2.791c-0.25,0.862-0.153,1.458,0.292,1.792
		c0.221,0.167,0.639,0.167,1.25,0c0.611-0.167,1.236-0.375,1.875-0.625c0.638-0.25,1.208-0.513,1.708-0.791
		c0.5-0.278,0.776-0.444,0.833-0.501c1.054-0.667,2.055-1.417,3-2.25c0.944-0.833,1.86-1.666,2.75-2.5l2-2.333
		c-0.445-1-0.639-2.139-0.583-3.417c0.055-1.277,0.36-2.555,0.917-3.833c0.5-1.222,1.18-2.375,2.042-3.458
		c0.86-1.083,1.93-1.846,3.208-2.291c1.111-0.389,2.11-0.334,3,0.167c0.888,0.5,1.444,1.306,1.667,2.417
		c0.277,1.333,0.208,2.681-0.209,4.041c-0.416,1.362-1.014,2.681-1.791,3.958c1.777,0.334,3.611,0.265,5.5-0.208
		c1.888-0.472,3.721-1.097,5.499-1.875c0.389-0.167,0.834-0.402,1.334-0.708c0.5-0.305,1.027-0.57,1.583-0.792
		c0.555-0.221,1.084-0.36,1.584-0.417c0.5-0.054,0.944,0.029,1.333,0.25c0.666,0.389,1.013,0.861,1.042,1.417
		c0.027,0.555-0.125,1.125-0.459,1.708c-0.333,0.583-0.764,1.112-1.291,1.583c-0.529,0.474-0.987,0.792-1.375,0.959
		c-1.278,0.667-2.737,1.348-4.376,2.041c-1.639,0.696-3.306,1.279-4.999,1.75c-1.695,0.474-3.404,0.75-5.125,0.834
		c-1.723,0.083-3.306-0.209-4.75-0.875l-1.75,1.833c-1,1-2.07,2.029-3.208,3.083c-1.139,1.057-2.333,2.042-3.583,2.959
		c-1.25,0.917-2.557,1.723-3.917,2.416c-1.362,0.696-2.765,1.182-4.209,1.458c-1.278,0.335-2.542,0.264-3.792-0.208
		s-2.07-1.458-2.458-2.958c-0.112-0.5-0.153-1.013-0.125-1.541c0.027-0.528,0.068-1.097,0.125-1.709
		c-1.779,1.445-3.542,2.736-5.292,3.875c-1.75,1.14-3.57,1.932-5.458,2.375c-0.89,0.223-1.75,0.306-2.583,0.25
		c-0.834-0.055-1.542-0.277-2.125-0.666c-0.583-0.388-1.014-0.931-1.292-1.626c-0.279-0.693-0.306-1.541-0.084-2.542
		c0.278-1.887,0.987-3.693,2.126-5.416c1.138-1.721,2.263-3.333,3.375-4.833c1.167-1.722,2.43-3.388,3.792-5
		C193.975,33.218,195.376,31.635,196.823,30.079z"/>
	<path d="M311.735,27.412c-0.666,0.279-1.195,0.292-1.583,0.042c-0.389-0.25-0.653-0.597-0.792-1.042
		c-0.139-0.444-0.181-0.93-0.125-1.458c0.055-0.527,0.222-0.986,0.5-1.375c0.556-0.944,1.389-1.61,2.5-2
		c-0.112,0.056,0.055,0,0.5-0.167c0.444-0.167,0.722-0.25,0.834-0.25c2.277-0.944,4.568-2.042,6.875-3.292
		c2.304-1.25,4.346-2.763,6.125-4.542c0.999-1,1.443-1.805,1.333-2.417c-0.112-0.611-0.917-1.054-2.417-1.333
		c-1.223-0.222-2.528-0.305-3.917-0.25c-1.389,0.057-2.791,0.208-4.207,0.458c-1.417,0.25-2.779,0.571-4.084,0.958
		c-1.307,0.39-2.487,0.833-3.542,1.333c-1.166,0.5-2.528,1.154-4.083,1.959c-1.556,0.806-3.083,1.708-4.583,2.708
		s-2.862,2.083-4.083,3.25c-1.224,1.167-2.113,2.39-2.667,3.667c-0.5,1.222-0.557,2.416-0.167,3.583
		c0.388,1.167,0.86,2.14,1.417,2.917c1.221,1.445,2.555,2.736,4,3.874c1.443,1.139,2.666,2.571,3.666,4.292
		c0.889,1.612,1.347,3.292,1.375,5.042c0.027,1.749-0.431,3.431-1.375,5.041c-1.056,1.778-2.403,3.292-4.041,4.542
		c-1.64,1.249-3.432,2.264-5.375,3.042c-1.946,0.777-3.958,1.333-6.042,1.666c-2.083,0.333-4.07,0.472-5.958,0.417
		c-0.945,0-1.931-0.07-2.959-0.208c-1.027-0.14-1.999-0.404-2.916-0.792c-0.917-0.39-1.736-0.931-2.458-1.626
		c-0.723-0.693-1.195-1.567-1.417-2.624c-0.445-1.777-0.264-3.527,0.542-5.25c0.805-1.722,1.846-3.193,3.125-4.416
		c0.388-0.444,0.944-0.972,1.666-1.584c0.722-0.61,1.501-1.167,2.334-1.667s1.679-0.874,2.541-1.125
		c0.86-0.249,1.597-0.208,2.209,0.125c0.777,0.39,1.151,0.987,1.124,1.792c-0.027,0.806-0.236,1.515-0.625,2.125
		c-0.611,1-1.403,1.639-2.375,1.917s-1.903,0.666-2.791,1.166c-0.667,0.445-1.153,0.973-1.459,1.583
		c-0.306,0.612-0.416,1.224-0.333,1.834c0.084,0.612,0.376,1.153,0.876,1.625c0.499,0.473,1.277,0.765,2.332,0.874
		c2.055,0.279,4.153,0.279,6.292,0c2.138-0.276,4.209-0.833,6.208-1.666c0.444-0.166,1.042-0.513,1.792-1.042
		c0.75-0.527,1.375-1.193,1.876-1.999c0.499-0.805,0.762-1.736,0.791-2.792c0.027-1.055-0.458-2.222-1.459-3.5
		c-0.666-0.777-1.39-1.513-2.166-2.208c-0.778-0.694-1.528-1.388-2.251-2.083c-0.722-0.694-1.403-1.444-2.04-2.25
		c-0.641-0.805-1.126-1.708-1.459-2.708c-0.779-2.278-0.834-4.5-0.167-6.667c0.667-2.166,1.638-4.167,2.917-5.999
		c1.333-1.834,2.916-3.501,4.75-5c1.833-1.5,3.776-2.847,5.834-4.042c2.054-1.194,4.179-2.221,6.374-3.083
		c2.194-0.86,4.347-1.596,6.459-2.208c2.276-0.611,4.638-1.042,7.082-1.291c2.445-0.25,4.834-0.125,7.168,0.375
		c2.276,0.5,3.762,1.612,4.458,3.333c0.693,1.723,0.485,3.584-0.625,5.584c-1,1.945-2.307,3.681-3.917,5.208
		c-1.612,1.529-3.389,2.89-5.334,4.083c-1.944,1.196-3.958,2.25-6.041,3.167C315.694,25.954,313.68,26.746,311.735,27.412z"/>
	<path d="M344.735,2.079c0.333-0.277,0.734-0.486,1.207-0.625c0.472-0.137,0.917-0.167,1.334-0.083
		c0.416,0.083,0.763,0.279,1.041,0.583c0.278,0.307,0.417,0.764,0.417,1.375c0,0.779-0.208,1.446-0.625,2
		c-0.417,0.555-0.931,1.083-1.542,1.583c-1.611,1.666-3.306,3.612-5.083,5.833c-1.778,2.223-3.556,4.57-5.333,7.042
		c-1.778,2.473-3.528,4.958-5.25,7.458c-1.723,2.5-3.334,4.862-4.833,7.083c0.721-0.5,1.75-1.138,3.083-1.917
		c1.334-0.777,2.75-1.5,4.25-2.167s2.985-1.166,4.458-1.5c1.472-0.333,2.708-0.278,3.709,0.167c0.555,0.222,0.972,0.556,1.25,1
		c0.276,0.445,0.458,0.917,0.541,1.417c0.084,0.5,0.084,1.029,0,1.583c-0.083,0.556-0.208,1.056-0.374,1.5
		c-0.5,1.112-1.182,2.32-2.042,3.625c-0.862,1.307-1.765,2.625-2.708,3.958c-0.946,1.334-1.849,2.64-2.709,3.917
		c-0.862,1.278-1.541,2.445-2.041,3.5c2.054-0.611,4.096-1.458,6.124-2.542c2.027-1.083,4.097-2.318,6.209-3.707
		c1.444-1.001,2.86-2.014,4.249-3.042s2.778-2.097,4.167-3.209c0.334-0.221,0.806-0.625,1.417-1.208c0.61-0.583,1.277-1.111,2-1.583
		c0.722-0.472,1.416-0.736,2.083-0.792c0.667-0.055,1.194,0.278,1.583,1c0.389,0.778,0.43,1.529,0.125,2.25
		c-0.306,0.723-0.791,1.417-1.458,2.083c-0.666,0.667-1.375,1.265-2.124,1.792c-0.751,0.528-1.349,0.987-1.793,1.375
		c-3.056,2.333-6.181,4.57-9.375,6.709s-6.653,3.931-10.374,5.375c-0.612,0.166-1.39,0.389-2.333,0.666
		c-0.945,0.278-1.876,0.445-2.792,0.5c-0.917,0.055-1.75-0.042-2.501-0.292c-0.749-0.249-1.291-0.819-1.624-1.708
		c-0.334-0.777-0.416-1.584-0.25-2.417c0.167-0.833,0.458-1.652,0.875-2.458c0.417-0.805,0.888-1.569,1.416-2.292
		c0.527-0.721,1.014-1.388,1.458-2c0.167-0.222,0.584-0.819,1.251-1.792c0.666-0.971,1.388-1.999,2.167-3.082
		c0.777-1.084,1.485-2.069,2.124-2.959c0.639-0.888,1.013-1.36,1.125-1.417c-1.833-0.111-3.916,0.529-6.249,1.917
		c-2.334,1.39-4.625,3.098-6.876,5.125c-2.25,2.029-4.374,4.14-6.375,6.334c-1.999,2.195-3.582,4.041-4.75,5.541
		c-0.333,0.445-0.791,0.792-1.374,1.041c-0.584,0.251-1.126,0.363-1.626,0.334c-0.499-0.027-0.931-0.222-1.291-0.583
		c-0.361-0.361-0.514-0.93-0.459-1.709c0.055-0.666,0.306-1.305,0.751-1.916c0.444-0.611,0.86-1.222,1.25-1.834
		c2.167-3.221,4.166-6.193,6-8.916c1.833-2.722,3.609-5.306,5.332-7.75c1.722-2.445,3.403-4.792,5.042-7.042
		c1.638-2.25,3.292-4.541,4.959-6.875c1-1.389,1.999-2.805,3-4.25c1-1.444,2.041-2.875,3.124-4.292
		c1.084-1.417,2.194-2.777,3.334-4.083C342.164,4.399,343.401,3.192,344.735,2.079z"/>
	<path d="M360.901,30.079c0.388-0.5,0.888-0.86,1.5-1.083c0.61-0.221,1.18-0.292,1.708-0.208c0.528,0.083,0.944,0.333,1.25,0.75
		c0.305,0.417,0.347,1.042,0.125,1.875c-0.166,0.722-0.514,1.361-1.042,1.917c-0.528,0.555-1.014,1.139-1.458,1.75
		c-0.666,0.667-1.333,1.486-1.999,2.458c-0.668,0.973-1.321,1.946-1.959,2.917c-0.64,0.973-1.208,1.903-1.709,2.791
		c-0.5,0.89-0.861,1.613-1.082,2.167c-0.224,0.445-0.417,0.904-0.584,1.376c-0.166,0.473-0.25,0.874-0.25,1.207
		c0,0.334,0.125,0.57,0.375,0.709c0.25,0.14,0.708,0.042,1.375-0.292c2.666-0.943,5.25-2.235,7.75-3.875
		c2.5-1.638,4.943-3.208,7.334-4.708c1.387-0.944,2.818-2.014,4.291-3.208c1.472-1.194,3.014-2.179,4.625-2.958
		c0.833-0.388,1.499-0.458,2-0.209c0.5,0.25,0.833,0.64,1,1.167c0.166,0.528,0.166,1.125,0,1.791c-0.167,0.667-0.5,1.25-1,1.75
		c-1.334,1.334-2.862,2.528-4.583,3.584c-1.723,1.056-3.362,2.083-4.917,3.083c-1.612,1.056-3.237,2.098-4.875,3.125
		c-1.64,1.028-3.32,2.015-5.042,2.959c-1.499,0.833-3.125,1.68-4.875,2.541s-3.541,1.403-5.375,1.625
		c-0.889,0.055-1.611-0.084-2.166-0.417c-0.556-0.333-0.974-0.792-1.25-1.374c-0.278-0.584-0.445-1.236-0.5-1.959
		c-0.057-0.722,0-1.472,0.167-2.25c0.333-1.722,0.888-3.444,1.666-5.167c0.777-1.721,1.68-3.375,2.708-4.958
		c1.028-1.584,2.126-3.125,3.292-4.625C358.567,32.829,359.735,31.413,360.901,30.079z M374.984,17.83
		c0.111,0.5,0.139,1.056,0.084,1.666c-0.057,0.612-0.278,1.223-0.667,1.834c-0.5,0.833-1.195,1.458-2.084,1.875
		c-0.889,0.416-1.736,0.583-2.541,0.5c-0.806-0.084-1.473-0.417-2-1c-0.528-0.583-0.654-1.514-0.375-2.792
		c0.111-0.721,0.513-1.458,1.209-2.208c0.693-0.75,1.458-1.318,2.291-1.708c0.834-0.388,1.638-0.471,2.417-0.249
		C374.095,15.969,374.651,16.662,374.984,17.83z"/>
	<path d="M404.149,4.162c0.278-0.388,0.667-0.721,1.168-1c0.5-0.278,1.013-0.429,1.541-0.458c0.526-0.027,0.985,0.112,1.375,0.417
		c0.388,0.306,0.611,0.82,0.666,1.542c0,0.612-0.222,1.306-0.666,2.083c-0.445,0.779-1.265,1.903-2.459,3.375
		c-1.194,1.472-2.848,3.458-4.958,5.958c-2.111,2.499-4.806,5.778-8.083,9.833c-3.778,4.612-7.5,9.222-11.166,13.833
		c-3.668,4.613-7.223,9.334-10.667,14.168c-0.279,0.389-0.806,1.152-1.584,2.291c-0.778,1.138-1.528,2.36-2.249,3.666
		c-0.722,1.305-1.264,2.527-1.625,3.667c-0.36,1.138-0.236,1.902,0.375,2.292c0.499,0.333,1.153,0.333,1.957,0
		c0.806-0.333,1.64-0.821,2.501-1.458c0.861-0.64,1.68-1.321,2.458-2.042c0.778-0.723,1.417-1.334,1.917-1.834
		c2.11-2.277,4.125-4.708,6.041-7.291c1.917-2.583,3.68-5.458,5.292-8.625l-1.249-0.667c-1.168-0.61-1.738-1.527-1.709-2.75
		c0.027-1.221,0.43-2.304,1.208-3.249c0.834-0.889,1.959-1.501,3.375-1.834c1.417-0.333,2.68-0.055,3.792,0.833
		c0.5,0.5,0.833,1.14,1,1.917c2.555,0,5.208-0.416,7.958-1.25s5.292-1.888,7.625-3.167c0.888-0.5,1.735-0.75,2.541-0.75
		c0.805,0,1.43,0.181,1.875,0.542c0.444,0.362,0.625,0.903,0.542,1.625c-0.083,0.723-0.57,1.556-1.459,2.5
		c-1.055,1-2.43,1.903-4.124,2.708c-1.696,0.807-3.487,1.474-5.375,2c-1.89,0.529-3.764,0.945-5.625,1.25
		c-1.862,0.307-3.514,0.487-4.958,0.542c-1.612,3.5-3.458,6.695-5.542,9.583c-2.084,2.889-4.291,5.583-6.625,8.084
		c-0.944,0.999-2,2.096-3.166,3.291c-1.168,1.194-2.432,2.292-3.792,3.291c-1.362,1.001-2.778,1.793-4.25,2.375
		c-1.472,0.584-2.986,0.764-4.542,0.542c-2.166-0.278-3.416-1.208-3.749-2.791c-0.334-1.584-0.111-3.5,0.666-5.75
		c0.778-2.25,1.945-4.667,3.5-7.25c1.556-2.583,3.167-5.056,4.833-7.417c1.667-2.361,3.209-4.444,4.625-6.249
		c1.417-1.805,2.375-3.014,2.875-3.626c4.611-5.888,9.235-11.68,13.875-17.375C394.747,15.843,399.427,10.052,404.149,4.162z"/>
	<path d="M411.149,16.58c0.055-0.555,0.277-1.042,0.667-1.458c0.388-0.417,0.818-0.722,1.291-0.917
		c0.472-0.194,0.944-0.292,1.417-0.292c0.472,0,0.846,0.167,1.125,0.5c1,0.223,2.125,0.278,3.375,0.167
		c1.25-0.11,2.818-0.167,4.708-0.167c0.834-1,1.653-2,2.459-3c0.805-1,1.651-2,2.541-3c0.611-0.721,1.264-1.152,1.958-1.292
		c0.695-0.139,1.277-0.055,1.75,0.25c0.472,0.306,0.777,0.792,0.917,1.458c0.139,0.667-0.069,1.417-0.625,2.25
		c-0.389,0.557-0.765,1.112-1.125,1.667c-0.361,0.556-0.765,1.083-1.208,1.583c2.666,0,5.292-0.027,7.875-0.083
		c2.584-0.055,5.208-0.083,7.875-0.083c0.666,0,1.694-0.027,3.083-0.084c1.388-0.055,2.777,0,4.167,0.167
		c1.388,0.167,2.555,0.542,3.5,1.125c0.944,0.584,1.277,1.487,1,2.708c-0.112,0.39-0.307,0.807-0.583,1.25
		c-0.278,0.445-0.598,0.833-0.959,1.167c-0.362,0.333-0.779,0.57-1.25,0.708c-0.473,0.14-0.958,0.125-1.459-0.042
		c-0.666-0.054-0.999-0.388-0.999-1c-3.833-0.277-7.89-0.416-12.167-0.416c-4.278,0-9.278,0.056-15,0.167
		c-2.889,3.612-5.666,7.153-8.333,10.625c-2.667,3.473-5.14,6.82-7.417,10.042c-0.39,0.5-0.944,1.265-1.667,2.292
		c-0.722,1.028-1.347,2.015-1.874,2.958c-0.529,0.945-0.82,1.681-0.875,2.209c-0.056,0.527,0.388,0.541,1.334,0.041
		c1.166-0.5,2.332-1.055,3.499-1.667c1.167-0.61,2.472-1.36,3.916-2.25c1.444-0.888,3.098-1.943,4.959-3.166
		c1.86-1.222,4.068-2.694,6.625-4.417c0.777-0.611,1.568-1.263,2.375-1.958c0.805-0.694,1.68-1.097,2.625-1.209
		c0.944-0.167,1.583,0.14,1.916,0.917c0.334,0.778,0.361,1.556,0.084,2.333c-0.39,1-1.042,1.833-1.959,2.5
		c-0.916,0.667-1.819,1.307-2.708,1.917c-1.445,1-3.32,2.278-5.624,3.833c-2.307,1.557-4.709,3.056-7.209,4.5
		c-2.5,1.446-4.89,2.695-7.166,3.75c-2.279,1.057-4.112,1.612-5.501,1.666c-1.389,0-2.348-0.276-2.874-0.833
		c-0.529-0.554-0.807-1.263-0.834-2.124c-0.028-0.861,0.126-1.793,0.459-2.792c0.333-1,0.721-1.889,1.166-2.667
		c2.5-4.666,5.402-9.138,8.708-13.416c3.306-4.277,6.68-8.584,10.125-12.917h-2.333c-0.612-0.054-1.306-0.083-2.083-0.083
		c-0.778,0-1.473-0.096-2.083-0.291c-0.612-0.195-1.084-0.528-1.417-1C410.983,18.233,410.927,17.524,411.149,16.58z"/>
	<path d="M434.565,48.912c0.109,0.5,0.125,1.07,0.041,1.709c-0.083,0.639-0.32,1.236-0.708,1.791
		c-0.5,0.833-1.195,1.474-2.083,1.917c-0.89,0.445-1.737,0.625-2.542,0.542c-0.807-0.084-1.473-0.417-2-1.001
		c-0.528-0.582-0.654-1.513-0.375-2.791c0.11-0.722,0.513-1.458,1.208-2.208c0.694-0.75,1.472-1.319,2.334-1.709
		c0.86-0.388,1.68-0.485,2.458-0.292C433.676,47.066,434.231,47.746,434.565,48.912z M441.315,38.662
		c-0.223,0.333-0.529,0.64-0.917,0.917c-0.39,0.278-0.806,0.473-1.25,0.584c-0.445,0.111-0.875,0.111-1.291,0
		c-0.417-0.111-0.737-0.389-0.959-0.834c-0.278-0.444-0.375-0.902-0.292-1.375c0.083-0.472,0.236-0.93,0.459-1.375
		c0.221-0.444,0.485-0.875,0.792-1.292c0.304-0.417,0.568-0.792,0.791-1.125l0.583-0.75c-0.223,0.39-0.403,0.682-0.541,0.875
		c-0.14,0.195-0.153,0.236-0.042,0.125c0.11-0.11,0.375-0.458,0.792-1.041c0.416-0.584,1.138-1.583,2.166-3
		c1.027-1.417,2.388-3.319,4.083-5.708c1.694-2.388,3.847-5.417,6.459-9.083c0.221-0.334,0.527-0.625,0.917-0.875
		c0.388-0.25,0.805-0.429,1.25-0.541c0.443-0.111,0.86-0.111,1.25,0c0.388,0.112,0.721,0.361,1,0.749
		c0.276,0.445,0.374,0.904,0.291,1.375c-0.083,0.473-0.236,0.945-0.458,1.417c-0.224,0.473-0.487,0.917-0.792,1.333
		c-0.306,0.417-0.57,0.792-0.791,1.125L441.315,38.662z"/>
</g>
</svg>
