<?xml version="1.0" encoding="iso-8859-1"?>
<!-- Generator: Adobe Illustrator 14.0.0, SVG Export Plug-In . SVG Version: 6.00 Build 43363)  -->
<!DOCTYPE svg PUBLIC "-//W3C//DTD SVG 1.1//EN" "http://www.w3.org/Graphics/SVG/1.1/DTD/svg11.dtd">
<svg version="1.1" id="Layer_1" xmlns="http://www.w3.org/2000/svg" xmlns:xlink="http://www.w3.org/1999/xlink" x="0px" y="0px"
	 width="278.319px" height="319.654px" viewBox="0 0 278.319 319.654" style="enable-background:new 0 0 278.319 319.654;"
	 xml:space="preserve">
<g>
	<path style="opacity:0.2;fill:#2C3E50;enable-background:new    ;" d="M258.563,231.656L146.563,37.664
		c-2.207-3.826-7.101-5.138-10.925-2.927L35.045,92.814c-2.214-3.506-6.112-5.842-10.565-5.842c-4.121,0-7.766,2.004-10.043,5.08
		c-6.252,0.689-11.117,5.984-11.117,12.42c0,2.104,0.525,4.084,1.444,5.824l-0.763,0.44c-3.825,2.209-5.137,7.102-2.929,10.926
		l112.001,193.992c2.208,3.824,7.102,5.135,10.927,2.926l131.637-76C259.463,240.374,260.774,235.48,258.563,231.656z
		 M14.979,99.472c0-1.621,0.41-3.148,1.129-4.485c3.216,0.098,6.032,1.795,7.678,4.327l-7.757,4.479
		C15.363,102.495,14.979,101.029,14.979,99.472z M32.446,94.314l-6.062,3.5c-1.783-2.824-4.656-4.891-8.037-5.586
		c1.656-1.404,3.795-2.256,6.132-2.256C27.816,89.972,30.751,91.705,32.446,94.314z M6.319,104.472c0-4.115,2.635-7.617,6.302-8.935
		c-0.411,1.238-0.642,2.559-0.642,3.935c0,2.104,0.525,4.084,1.444,5.824l-6.055,3.496C6.703,107.495,6.319,106.029,6.319,104.472z"
		/>
	<g>
		<path style="fill:#78838F;" d="M154.319,16.055l-131.637,76c-3.825,2.209-5.137,7.102-2.929,10.926l112.001,193.992
			c2.208,3.824,7.102,5.135,10.927,2.926l131.637-76c3.826-2.207,5.138-7.101,2.927-10.925L165.244,18.982
			C163.037,15.156,158.144,13.844,154.319,16.055z M51.467,93.91l-10.393,6l-3.999-6.927l10.392-6.002L51.467,93.91z M72.251,81.91
			l-10.392,6l-3.999-6.927l10.391-6.002L72.251,81.91z M93.036,69.91l-10.393,6l-3.999-6.927l10.392-6.002L93.036,69.91z
			 M113.818,57.911l-10.391,5.999l-4.001-6.928l10.394-6.001L113.818,57.911z M134.604,45.911l-10.391,5.999l-4.002-6.928
			l10.395-6.001L134.604,45.911z M155.388,33.911l-10.391,5.999l-4.001-6.928l10.394-6.001L155.388,33.911z"/>
		<path style="fill:#BBC1C7;" d="M152.319,12.59l-131.637,76c-3.828,2.209-5.14,7.102-2.929,10.927l111.998,193.991
			c2.211,3.825,7.104,5.136,10.93,2.927l131.637-76c3.825-2.209,5.135-7.101,2.928-10.928L163.244,15.518
			C161.037,11.691,156.144,10.38,152.319,12.59z M49.467,90.446l-10.392,6.001l-4.001-6.93l10.393-6L49.467,90.446z M70.251,78.446
			L59.86,84.447l-4.001-6.93l10.392-6L70.251,78.446z M91.036,66.446l-10.392,6.001l-4.001-6.93l10.393-6L91.036,66.446z
			 M111.82,54.446l-10.392,6.001l-4.002-6.929l10.394-6.001L111.82,54.446z M132.605,42.446l-10.392,6.001l-4.003-6.929
			l10.395-6.001L132.605,42.446z M153.389,30.448l-10.393,5.999l-4-6.929l10.394-6.001L153.389,30.448z"/>
		<path style="fill:#DDE0E3;" d="M150.318,9.125l-131.637,76c-3.827,2.21-5.138,7.105-2.927,10.931l111.997,193.988
			c2.211,3.825,7.103,5.138,10.931,2.93l131.637-76c3.824-2.211,5.134-7.104,2.927-10.931l-112-193.989
			C159.038,8.229,154.144,6.916,150.318,9.125z M47.467,86.981l-10.392,6.002l-4.001-6.93l10.394-5.998L47.467,86.981z
			 M68.251,74.981L57.86,80.983l-4.001-6.93l10.393-5.998L68.251,74.981z M89.036,62.981l-10.392,6.002l-4.001-6.93l10.394-5.998
			L89.036,62.981z M109.82,50.981l-10.394,6.001l-3.999-6.929l10.394-5.998L109.82,50.981z M130.605,38.981l-10.395,6.001
			l-3.998-6.929l10.394-5.998L130.605,38.981z M151.39,26.981l-10.394,6.001l-3.999-6.926l10.391-6.002L151.39,26.981z"/>
		<path style="fill:#EEF0F1;" d="M148.318,5.661l-131.637,76c-3.826,2.212-5.137,7.103-2.93,10.93l112.001,193.991
			c2.211,3.825,7.102,5.136,10.93,2.927l131.637-76c3.824-2.21,5.136-7.104,2.928-10.928L159.246,8.589
			C157.038,4.765,152.145,3.454,148.318,5.661z M45.467,83.517l-10.393,6l-4-6.928l10.394-5.999L45.467,83.517z M66.251,71.517
			l-10.392,6l-4-6.928l10.393-5.999L66.251,71.517z M87.036,59.517l-10.393,6l-4-6.928l10.394-5.999L87.036,59.517z M107.82,47.517
			l-10.394,6.001l-3.999-6.929l10.391-5.999L107.82,47.517z M128.605,35.517l-10.395,6.001l-3.998-6.929l10.391-5.999
			L128.605,35.517z M149.39,23.517l-10.394,6.001l-3.999-6.929l10.391-5.999L149.39,23.517z"/>
		
			<rect x="19.5" y="78.035" transform="matrix(0.866 -0.5 0.5 0.866 -26.1511 62.4723)" style="fill:#FEB7B1;" width="167.998" height="4"/>
		
			<rect x="31.501" y="98.821" transform="matrix(0.866 -0.5 0.5 0.866 -34.9359 71.2572)" style="fill:#DDE0E3;" width="167.998" height="3.998"/>
		
			<rect x="43.501" y="119.605" transform="matrix(0.866 -0.5 0.5 0.866 -43.7206 80.0418)" style="fill:#DDE0E3;" width="167.998" height="3.998"/>
		
			<rect x="55.499" y="140.387" transform="matrix(0.866 -0.5 0.5 0.866 -52.5055 88.8284)" style="fill:#DDE0E3;" width="168" height="4.002"/>
		
			<rect x="67.499" y="161.172" transform="matrix(0.866 -0.5 0.5 0.866 -61.2899 97.6123)" style="fill:#DDE0E3;" width="168" height="4.002"/>
		
			<rect x="79.498" y="181.958" transform="matrix(0.866 -0.5 0.5 0.866 -70.074 106.395)" style="fill:#DDE0E3;" width="168.002" height="4"/>
		
			<rect x="91.498" y="202.742" transform="matrix(0.866 -0.5 0.5 0.866 -78.8584 115.1796)" style="fill:#DDE0E3;" width="168.002" height="4"/>
		
			<rect x="103.498" y="223.527" transform="matrix(0.866 -0.5 0.5 0.866 -87.6433 123.9642)" style="fill:#DDE0E3;" width="168.002" height="4"/>
		
			<rect x="103.734" y="91.905" transform="matrix(0.8662 -0.4997 0.4997 0.8662 -81.7486 78.515)" style="fill:#FEB7B1;" width="4.002" height="200"/>
		<path style="fill:#808B96;" d="M35.539,82.323c0.552,0.956,0.226,2.18-0.731,2.732l0,0c-0.959,0.551-2.181,0.224-2.733-0.734
			l-10-17.32c-0.553-0.957-0.226-2.18,0.73-2.731l0,0c0.959-0.554,2.18-0.225,2.733,0.731L35.539,82.323z"/>
		<path style="fill:#808B96;" d="M42.468,78.323c0.552,0.956,0.224,2.181-0.732,2.732l0,0c-0.957,0.553-2.18,0.224-2.731-0.732
			L29.003,63c-0.552-0.955-0.226-2.18,0.731-2.732l0,0c0.956-0.552,2.181-0.223,2.732,0.732L42.468,78.323z"/>
		<path style="fill:#808B96;" d="M56.321,70.322c0.555,0.957,0.229,2.181-0.73,2.731l0,0c-0.957,0.553-2.179,0.226-2.731-0.732
			L42.86,55c-0.554-0.956-0.227-2.179,0.73-2.731l0,0c0.958-0.553,2.178-0.224,2.732,0.732L56.321,70.322z"/>
		<path style="fill:#808B96;" d="M63.252,66.323c0.552,0.956,0.226,2.18-0.731,2.732l0,0c-0.96,0.552-2.181,0.224-2.735-0.733
			L49.787,51c-0.552-0.955-0.226-2.18,0.732-2.732l0,0c0.957-0.553,2.18-0.223,2.731,0.732L63.252,66.323z"/>
		<path style="fill:#808B96;" d="M77.107,58.321c0.553,0.958,0.227,2.182-0.731,2.732l0,0c-0.958,0.553-2.18,0.226-2.732-0.732
			L63.642,43.001c-0.551-0.958-0.225-2.18,0.734-2.733l0,0c0.957-0.553,2.179-0.225,2.731,0.732L77.107,58.321z"/>
		<path style="fill:#808B96;" d="M84.037,54.323c0.552,0.956,0.225,2.18-0.732,2.732l0,0c-0.958,0.551-2.181,0.224-2.732-0.732
			L70.571,39c-0.554-0.956-0.225-2.18,0.732-2.732l0,0c0.957-0.553,2.181-0.223,2.732,0.732L84.037,54.323z"/>
		<path style="fill:#808B96;" d="M97.893,46.321c0.553,0.958,0.224,2.181-0.732,2.732l0,0c-0.958,0.556-2.181,0.227-2.732-0.732
			L84.427,31.001c-0.552-0.958-0.226-2.18,0.733-2.733l0,0c0.957-0.553,2.18-0.225,2.733,0.731L97.893,46.321z"/>
		<path style="fill:#808B96;" d="M104.821,42.323c0.552,0.956,0.226,2.18-0.731,2.732l0,0c-0.959,0.551-2.181,0.224-2.735-0.733
			L91.356,27c-0.555-0.956-0.226-2.18,0.732-2.732l0,0c0.957-0.553,2.18-0.223,2.731,0.732L104.821,42.323z"/>
		<path style="fill:#808B96;" d="M118.677,34.321c0.553,0.958,0.226,2.18-0.732,2.732l0,0c-0.958,0.556-2.181,0.227-2.731-0.732
			l-10.002-17.319c-0.551-0.958-0.226-2.18,0.732-2.732l0,0c0.959-0.554,2.181-0.226,2.731,0.732L118.677,34.321z"/>
		<path style="fill:#808B96;" d="M125.606,30.323c0.552,0.956,0.225,2.18-0.732,2.732l0,0c-0.958,0.551-2.181,0.224-2.733-0.734
			l-10-17.32c-0.553-0.957-0.225-2.18,0.732-2.732l0,0c0.957-0.553,2.178-0.224,2.732,0.732L125.606,30.323z"/>
		<path style="fill:#808B96;" d="M139.462,22.321c0.551,0.959,0.225,2.18-0.733,2.735l0,0c-0.955,0.552-2.18,0.224-2.731-0.732
			L125.996,7.001c-0.552-0.958-0.224-2.181,0.731-2.732l0,0c0.959-0.554,2.182-0.226,2.732,0.732L139.462,22.321z"/>
		<path style="fill:#808B96;" d="M146.388,18.322c0.555,0.957,0.229,2.181-0.73,2.731l0,0c-0.957,0.553-2.179,0.226-2.731-0.732
			l-10-17.32c-0.553-0.957-0.226-2.18,0.731-2.732l0,0c0.958-0.553,2.178-0.224,2.732,0.732L146.388,18.322z"/>
	</g>
</g>
</svg>
