<?xml version="1.0" encoding="iso-8859-1"?>
<!-- Generator: Adobe Illustrator 14.0.0, SVG Export Plug-In . SVG Version: 6.00 Build 43363)  -->
<!DOCTYPE svg PUBLIC "-//W3C//DTD SVG 1.1//EN" "http://www.w3.org/Graphics/SVG/1.1/DTD/svg11.dtd">
<svg version="1.1" id="Layer_1" xmlns="http://www.w3.org/2000/svg" xmlns:xlink="http://www.w3.org/1999/xlink" x="0px" y="0px"
	 width="269px" height="52px" viewBox="0 0 269 52" style="enable-background:new 0 0 269 52;" xml:space="preserve">
<g>
	<polygon style="opacity:0.2;fill:#2C3E50;" points="32,12 0,32 32,52 258,52 258,12 	"/>
	<g>
		<polyline style="fill:#FFE166;" points="269,40 42,40 42,0 269,0 269,40 		"/>
		<polyline style="fill:#FFF3BF;" points="244,40 241,40 241,0 244,0 244,40 		"/>
		<polyline style="fill:#FFF3BF;" points="251,40 248,40 248,0 251,0 251,40 		"/>
		<polyline style="fill:#FFF3BF;" points="258,40 255,40 255,0 258,0 258,40 		"/>
		<path style="fill:#EDCD9B;" d="M46,20c0-4.418-1.789-8-4-8c2.211,0,4-2.688,4-6s-1.789-6-4-6L10,20l32,20c2.211,0,4-2.688,4-6
			s-1.789-6-4-6C44.211,28,46,24.418,46,20"/>
		<path style="fill:#4D4232;" d="M24.77,29.23C25.559,26.391,26,23.273,26,20s-0.441-6.391-1.23-9.23L10,20L24.77,29.23"/>
		<path style="fill:#FFD328;" d="M241,28H42l0,0c2.211,0,4,2.688,4,6s-1.789,6-4,6h199V28 M248,28h-4v12h4V28 M255,28h-4v12h4V28
			 M269,28h-11v12h11V28"/>
		<polyline style="fill:#FFEE99;" points="244,28 241,28 241,40 244,40 244,28 		"/>
		<polyline style="fill:#FFEE99;" points="251,28 248,28 248,40 251,40 251,28 		"/>
		<polyline style="fill:#FFEE99;" points="258,28 255,28 255,40 258,40 258,28 		"/>
		<path style="fill:#E6B55F;" d="M42,40c2.211,0,4-2.688,4-6s-1.789-6-4-6l0,0l-16.217-4.055c-0.205,1.842-0.549,3.611-1.014,5.285
			L42,40z"/>
		<path style="fill:#2E2213;" d="M10,20L10,20l14.77,9.23c0.465-1.674,0.809-3.443,1.014-5.285L10,20"/>
		<path style="fill:#FFC81B;" d="M241,12H42l0,0c2.211,0,4,3.582,4,8s-1.789,8-4,8h199V12 M248,12h-4v16h4V12 M255,12h-4v16h4V12
			 M269,12h-11v16h11V12"/>
		<polyline style="fill:#FFEA7A;" points="244,12 241,12 241,28 244,28 244,12 		"/>
		<polyline style="fill:#FFEA7A;" points="251,12 248,12 248,28 251,28 251,12 		"/>
		<polyline style="fill:#FFEA7A;" points="258,12 255,12 255,28 258,28 258,12 		"/>
		<path style="fill:#E1A342;" d="M42,12L42,12l-16.217,4.055C25.926,17.338,26,18.655,26,20c0,1.344-0.074,2.662-0.217,3.945L42,28
			c2.211,0,4-3.582,4-8S44.211,12,42,12L42,12"/>
		<path style="fill:#24190D;" d="M25.783,16.055L10,20l15.783,3.945C25.926,22.662,26,21.344,26,20
			C26,18.655,25.926,17.338,25.783,16.055"/>
	</g>
</g>
</svg>
