<?xml version="1.0" encoding="iso-8859-1"?>
<!-- Generator: Adobe Illustrator 14.0.0, SVG Export Plug-In . SVG Version: 6.00 Build 43363)  -->
<!DOCTYPE svg PUBLIC "-//W3C//DTD SVG 1.1//EN" "http://www.w3.org/Graphics/SVG/1.1/DTD/svg11.dtd">
<svg version="1.1" id="Layer_1" xmlns="http://www.w3.org/2000/svg" xmlns:xlink="http://www.w3.org/1999/xlink" x="0px" y="0px"
	 width="351px" height="270px" viewBox="0 0 351 270" style="enable-background:new 0 0 351 270;" xml:space="preserve">
<g>
	<g>
		<path style="opacity:0.2;fill:#2C3E50;enable-background:new    ;" d="M182,19h-76c-2.209,0-4,1.791-4,4v112c0,2.209,1.791,4,4,4
			h76c2.209,0,4-1.791,4-4V23C186,20.791,184.208,19,182,19z"/>
		<path style="fill:#78838F;" d="M187,14h-76c-2.209,0-4,1.791-4,4v112c0,2.209,1.791,4,4,4h76c2.209,0,4-1.791,4-4V18
			C191,15.791,189.208,14,187,14z M123,22h-6v-4h6V22z M135,22h-6v-4h6V22z M147,22h-6v-4h6V22z M159,22h-6v-4h6V22z M171,22h-6v-4
			h6V22z M183,22h-6v-4h6V22z"/>
		<path style="fill:#BBC1C7;" d="M187,12h-76c-2.209,0-4,1.791-4,4v112c0,2.209,1.791,4,4,4h76c2.209,0,4-1.791,4-4V16
			C191,13.791,189.208,12,187,12z M123,20h-6v-4h6V20z M135,20h-6v-4h6V20z M147,20h-6v-4h6V20z M159,20h-6v-4h6V20z M171,20h-6v-4
			h6V20z M183,20h-6v-4h6V20z"/>
		<path style="fill:#DDE0E3;" d="M187,10h-76c-2.209,0-4,1.791-4,4v112c0,2.209,1.791,4,4,4h76c2.209,0,4-1.791,4-4V14
			C191,11.791,189.208,10,187,10z M123,18h-6v-4h6V18z M135,18h-6v-4h6V18z M147,18h-6v-4h6V18z M159,18h-6v-4h6V18z M171,18h-6v-4
			h6V18z M183,18h-6v-4h6V18z"/>
		<path style="fill:#EEF0F1;" d="M187,8h-76c-2.209,0-4,1.791-4,4v112c0,2.209,1.791,4,4,4h76c2.209,0,4-1.791,4-4V12
			C191,9.791,189.208,8,187,8z M123,16h-6v-4h6V16z M135,16h-6v-4h6V16z M147,16h-6v-4h6V16z M159,16h-6v-4h6V16z M171,16h-6v-4h6
			V16z M183,16h-6v-4h6V16z"/>
		<rect x="107" y="28" style="fill:#FEB7B1;" width="84" height="2"/>
		<rect x="107" y="40" style="fill:#DDE0E3;" width="84" height="2"/>
		<rect x="107" y="52" style="fill:#DDE0E3;" width="84" height="2"/>
		<rect x="107" y="64" style="fill:#DDE0E3;" width="84" height="2"/>
		<rect x="107" y="76" style="fill:#DDE0E3;" width="84" height="2"/>
		<rect x="107" y="88" style="fill:#DDE0E3;" width="84" height="2"/>
		<rect x="107" y="100" style="fill:#DDE0E3;" width="84" height="2"/>
		<rect x="107" y="112" style="fill:#DDE0E3;" width="84" height="2"/>
		<rect x="121" y="28" style="fill:#FEB7B1;" width="2" height="100"/>
		<path style="fill:#808B96;" d="M119,13c0,0.553-0.447,1-1,1l0,0c-0.553,0-1-0.447-1-1V3c0-0.553,0.447-1,1-1l0,0
			c0.553,0,1,0.447,1,1V13z"/>
		<path style="fill:#808B96;" d="M123,13c0,0.553-0.447,1-1,1l0,0c-0.553,0-1-0.447-1-1V3c0-0.553,0.447-1,1-1l0,0
			c0.553,0,1,0.447,1,1V13z"/>
		<path style="fill:#808B96;" d="M131,13c0,0.553-0.447,1-1,1l0,0c-0.553,0-1-0.447-1-1V3c0-0.553,0.447-1,1-1l0,0
			c0.553,0,1,0.447,1,1V13z"/>
		<path style="fill:#808B96;" d="M135,13c0,0.553-0.447,1-1,1l0,0c-0.553,0-1-0.447-1-1V3c0-0.553,0.447-1,1-1l0,0
			c0.553,0,1,0.447,1,1V13z"/>
		<path style="fill:#808B96;" d="M143,13c0,0.553-0.447,1-1,1l0,0c-0.553,0-1-0.447-1-1V3c0-0.553,0.447-1,1-1l0,0
			c0.553,0,1,0.447,1,1V13z"/>
		<path style="fill:#808B96;" d="M147,13c0,0.553-0.447,1-1,1l0,0c-0.553,0-1-0.447-1-1V3c0-0.553,0.447-1,1-1l0,0
			c0.553,0,1,0.447,1,1V13z"/>
		<path style="fill:#808B96;" d="M155,13c0,0.553-0.447,1-1,1l0,0c-0.553,0-1-0.447-1-1V3c0-0.553,0.447-1,1-1l0,0
			c0.553,0,1,0.447,1,1V13z"/>
		<path style="fill:#808B96;" d="M159,13c0,0.553-0.447,1-1,1l0,0c-0.553,0-1-0.447-1-1V3c0-0.553,0.447-1,1-1l0,0
			c0.553,0,1,0.447,1,1V13z"/>
		<path style="fill:#808B96;" d="M167,13c0,0.553-0.447,1-1,1l0,0c-0.553,0-1-0.447-1-1V3c0-0.553,0.447-1,1-1l0,0
			c0.553,0,1,0.447,1,1V13z"/>
		<path style="fill:#808B96;" d="M171,13c0,0.553-0.447,1-1,1l0,0c-0.553,0-1-0.447-1-1V3c0-0.553,0.447-1,1-1l0,0
			c0.553,0,1,0.447,1,1V13z"/>
		<path style="fill:#808B96;" d="M179,13c0,0.553-0.447,1-1,1l0,0c-0.553,0-1-0.447-1-1V3c0-0.553,0.447-1,1-1l0,0
			c0.553,0,1,0.447,1,1V13z"/>
		<path style="fill:#808B96;" d="M183,13c0,0.553-0.447,1-1,1l0,0c-0.553,0-1-0.447-1-1V3c0-0.553,0.447-1,1-1l0,0
			c0.553,0,1,0.447,1,1V13z"/>
	</g>
	<g>
		<path style="fill:#043A57;" d="M96.5,125c0,4.971-4.029,9-9,9h-66c-4.971,0-9-4.029-9-9V23c0-4.971,4.029-9,9-9h66
			c4.971,0,9,4.029,9,9V125z"/>
		<path style="opacity:0.2;fill:#2C3E50;enable-background:new    ;" d="M92,129c0,4.971-4.029,9-9,9H17c-4.971,0-9-4.029-9-9V27
			c0-4.971,4.029-9,9-9h66c4.971,0,9,4.029,9,9V129z"/>
		<path style="fill:#0873AB;" d="M96.5,121c0,4.971-4.029,9-9,9h-66c-4.971,0-9-4.029-9-9V19c0-4.971,4.029-9,9-9h66
			c4.971,0,9,4.029,9,9V121z"/>
		<path style="fill:#054E74;" d="M96.5,119c0,4.971-4.029,9-9,9h-66c-4.971,0-9-4.029-9-9V17c0-4.971,4.029-9,9-9h66
			c4.971,0,9,4.029,9,9V119z"/>
		<rect x="21.5" y="22" style="fill:#49AFE2;" width="66" height="90"/>
		<path style="fill:#0873AB;" d="M62.5,14c0,1.104-0.896,2-2,2h-14c-1.104,0-2-0.896-2-2l0,0c0-1.104,0.896-2,2-2h14
			C61.604,12,62.5,12.896,62.5,14L62.5,14z"/>
		<path style="fill:#0873AB;" d="M63.5,119c0,1.104-0.896,2-2,2h-14c-1.104,0-2-0.896-2-2l0,0c0-1.104,0.896-2,2-2h14
			C62.604,117,63.5,117.896,63.5,119L63.5,119z"/>
		<path style="fill:#0873AB;" d="M69.5,14c0,1.104-0.896,2-2,2l0,0c-1.104,0-2-0.896-2-2l0,0c0-1.104,0.896-2,2-2l0,0
			C68.604,12,69.5,12.896,69.5,14L69.5,14z"/>
		<path style="fill:#043A57;" d="M75.5,14c0,1.104-0.896,2-2,2l0,0c-1.104,0-2-0.896-2-2l0,0c0-1.104,0.896-2,2-2l0,0
			C74.604,12,75.5,12.896,75.5,14L75.5,14z"/>
	</g>
	<g>
		<path style="fill:#043A57;" d="M350,255c0,4.971-4.029,9-9,9H233c-4.971,0-9-4.029-9-9V100c0-4.971,4.029-9,9-9h108
			c4.971,0,9,4.029,9,9V255z"/>
		<path style="opacity:0.2;fill:#2C3E50;enable-background:new    ;" d="M344,261c0,4.971-4.029,9-9,9H227c-4.971,0-9-4.029-9-9V106
			c0-4.971,4.029-9,9-9h108c4.971,0,9,4.029,9,9V261z"/>
		<path style="fill:#0873AB;" d="M350,251c0,4.971-4.029,9-9,9H233c-4.971,0-9-4.029-9-9V96c0-4.971,4.029-9,9-9h108
			c4.971,0,9,4.029,9,9V251z"/>
		<path style="fill:#054E74;" d="M350,249c0,4.971-4.029,9-9,9H233c-4.971,0-9-4.029-9-9V94c0-4.971,4.029-9,9-9h108
			c4.971,0,9,4.029,9,9V249z"/>
		<rect x="233" y="99" style="fill:#49AFE2;" width="108" height="143"/>
	</g>
	<g>
		<path style="opacity:0.2;fill:#2C3E50;enable-background:new    ;" d="M0,155c0-2.209,1.791-4,4-4h206v115c0,2.2-1.8,4-4,4H14
			c-2.2,0-4-1.8-4-4L0,155z"/>
		<path style="fill:#949494;" d="M213,148v115c0,2.2-1.8,4-4,4H17c-2.2,0-4-1.8-4-4V148H213z"/>
		<path style="fill:#F2F2F2;" d="M213,146v115c0,2.2-1.8,4-4,4H17c-2.2,0-4-1.8-4-4V146H213z"/>
		<path style="fill:#EEF0F1;" d="M213,145v115c0,2.2-1.8,4-4,4H17c-2.2,0-4-1.8-4-4V145H213z"/>
		<g>
			<path style="fill:#999999;" d="M37,176c0,1.1-0.9,2-2,2H21c-1.1,0-2-0.9-2-2v-14c0-1.1,0.9-2,2-2h14c1.1,0,2,0.9,2,2V176z"/>
			<path style="fill:#999999;" d="M57,176c0,1.1-0.9,2-2,2H41c-1.1,0-2-0.9-2-2v-14c0-1.1,0.9-2,2-2h14c1.1,0,2,0.9,2,2V176z"/>
			<path style="fill:#999999;" d="M77,176c0,1.1-0.9,2-2,2H61c-1.1,0-2-0.9-2-2v-14c0-1.1,0.9-2,2-2h14c1.1,0,2,0.9,2,2V176z"/>
			<path style="fill:#999999;" d="M97,176c0,1.1-0.9,2-2,2H81c-1.1,0-2-0.9-2-2v-14c0-1.1,0.9-2,2-2h14c1.1,0,2,0.9,2,2V176z"/>
			<path style="fill:#999999;" d="M117,176c0,1.1-0.9,2-2,2h-14c-1.1,0-2-0.9-2-2v-14c0-1.1,0.9-2,2-2h14c1.1,0,2,0.9,2,2V176z"/>
			<path style="fill:#999999;" d="M137,176c0,1.1-0.9,2-2,2h-14c-1.1,0-2-0.9-2-2v-14c0-1.1,0.9-2,2-2h14c1.1,0,2,0.9,2,2V176z"/>
			<path style="fill:#999999;" d="M157,176c0,1.1-0.9,2-2,2h-14c-1.1,0-2-0.9-2-2v-14c0-1.1,0.9-2,2-2h14c1.1,0,2,0.9,2,2V176z"/>
			<path style="fill:#999999;" d="M177,176c0,1.1-0.9,2-2,2h-14c-1.1,0-2-0.9-2-2v-14c0-1.1,0.9-2,2-2h14c1.1,0,2,0.9,2,2V176z"/>
			<path style="fill:#999999;" d="M38,156c0,1.1-0.9,2-2,2H21c-1.1,0-2-0.9-2-2v-3c0-1.1,0.9-2,2-2h15c1.1,0,2,0.9,2,2V156z"/>
			<path style="fill:#999999;" d="M59,156c0,1.1-0.9,2-2,2H42c-1.1,0-2-0.9-2-2v-3c0-1.1,0.9-2,2-2h15c1.1,0,2,0.9,2,2V156z"/>
			<path style="fill:#999999;" d="M80,156c0,1.1-0.9,2-2,2H63c-1.1,0-2-0.9-2-2v-3c0-1.1,0.9-2,2-2h15c1.1,0,2,0.9,2,2V156z"/>
			<path style="fill:#999999;" d="M101,156c0,1.1-0.9,2-2,2H84c-1.1,0-2-0.9-2-2v-3c0-1.1,0.9-2,2-2h15c1.1,0,2,0.9,2,2V156z"/>
			<path style="fill:#999999;" d="M122,156c0,1.1-0.9,2-2,2h-15c-1.1,0-2-0.9-2-2v-3c0-1.1,0.9-2,2-2h15c1.1,0,2,0.9,2,2V156z"/>
			<path style="fill:#999999;" d="M143,156c0,1.1-0.9,2-2,2h-15c-1.1,0-2-0.9-2-2v-3c0-1.1,0.9-2,2-2h15c1.1,0,2,0.9,2,2V156z"/>
			<path style="fill:#999999;" d="M164,156c0,1.1-0.9,2-2,2h-15c-1.1,0-2-0.9-2-2v-3c0-1.1,0.9-2,2-2h15c1.1,0,2,0.9,2,2V156z"/>
			<path style="fill:#999999;" d="M185,156c0,1.1-0.9,2-2,2h-15c-1.1,0-2-0.9-2-2v-3c0-1.1,0.9-2,2-2h15c1.1,0,2,0.9,2,2V156z"/>
			<path style="fill:#999999;" d="M207,156c0,1.1-0.9,2-2,2h-16c-1.1,0-2-0.9-2-2v-3c0-1.1,0.9-2,2-2h16c1.1,0,2,0.9,2,2V156z"/>
			<path style="fill:#999999;" d="M47,196c0,1.1-0.9,2-2,2H21c-1.1,0-2-0.9-2-2v-14c0-1.1,0.9-2,2-2h24c1.1,0,2,0.9,2,2V196z"/>
			<path style="fill:#999999;" d="M67,196c0,1.1-0.9,2-2,2H51c-1.1,0-2-0.9-2-2v-14c0-1.1,0.9-2,2-2h14c1.1,0,2,0.9,2,2V196z"/>
			<path style="fill:#999999;" d="M87,196c0,1.1-0.9,2-2,2H71c-1.1,0-2-0.9-2-2v-14c0-1.1,0.9-2,2-2h14c1.1,0,2,0.9,2,2V196z"/>
			<path style="fill:#999999;" d="M107,196c0,1.1-0.9,2-2,2H91c-1.1,0-2-0.9-2-2v-14c0-1.1,0.9-2,2-2h14c1.1,0,2,0.9,2,2V196z"/>
			<path style="fill:#999999;" d="M127,196c0,1.1-0.9,2-2,2h-14c-1.1,0-2-0.9-2-2v-14c0-1.1,0.9-2,2-2h14c1.1,0,2,0.9,2,2V196z"/>
			<path style="fill:#999999;" d="M147,196c0,1.1-0.9,2-2,2h-14c-1.1,0-2-0.9-2-2v-14c0-1.1,0.9-2,2-2h14c1.1,0,2,0.9,2,2V196z"/>
			<path style="fill:#999999;" d="M167,196c0,1.1-0.9,2-2,2h-14c-1.1,0-2-0.9-2-2v-14c0-1.1,0.9-2,2-2h14c1.1,0,2,0.9,2,2V196z"/>
			<path style="fill:#999999;" d="M187,196c0,1.1-0.9,2-2,2h-14c-1.1,0-2-0.9-2-2v-14c0-1.1,0.9-2,2-2h14c1.1,0,2,0.9,2,2V196z"/>
			<path style="fill:#999999;" d="M207,196c0,1.1-0.9,2-2,2h-14c-1.1,0-2-0.9-2-2v-14c0-1.1,0.9-2,2-2h14c1.1,0,2,0.9,2,2V196z"/>
			<path style="fill:#999999;" d="M67,236c0,1.1-0.9,2-2,2H21c-1.1,0-2-0.9-2-2v-14c0-1.1,0.9-2,2-2h44c1.1,0,2,0.9,2,2V236z"/>
			<path style="fill:#999999;" d="M157.009,256c0,1.1-0.9,2-2,2H81c-1.1,0-2-0.9-2-2v-14c0-1.1,0.9-2,2-2h74.01c1.1,0,2,0.9,2,2V256
				z"/>
			<path style="fill:#999999;" d="M87,236c0,1.1-0.9,2-2,2H71c-1.1,0-2-0.9-2-2v-14c0-1.1,0.9-2,2-2h14c1.1,0,2,0.9,2,2V236z"/>
			<path style="fill:#999999;" d="M107,236c0,1.1-0.9,2-2,2H91c-1.1,0-2-0.9-2-2v-14c0-1.1,0.9-2,2-2h14c1.1,0,2,0.9,2,2V236z"/>
			<path style="fill:#999999;" d="M127,236c0,1.1-0.9,2-2,2h-14c-1.1,0-2-0.9-2-2v-14c0-1.1,0.9-2,2-2h14c1.1,0,2,0.9,2,2V236z"/>
			<path style="fill:#999999;" d="M37,256c0,1.1-0.9,2-2,2H21c-1.1,0-2-0.9-2-2v-14c0-1.1,0.9-2,2-2h14c1.1,0,2,0.9,2,2V256z"/>
			<path style="fill:#999999;" d="M57,256c0,1.1-0.9,2-2,2H41c-1.1,0-2-0.9-2-2v-14c0-1.1,0.9-2,2-2h14c1.1,0,2,0.9,2,2V256z"/>
			<path style="fill:#999999;" d="M77,256c0,1.1-0.9,2-2,2H61c-1.1,0-2-0.9-2-2v-14c0-1.1,0.9-2,2-2h14c1.1,0,2,0.9,2,2V256z"/>
			<path style="fill:#999999;" d="M147,236c0,1.1-0.9,2-2,2h-14c-1.1,0-2-0.9-2-2v-14c0-1.1,0.9-2,2-2h14c1.1,0,2,0.9,2,2V236z"/>
			<path style="fill:#999999;" d="M167,236c0,1.1-0.9,2-2,2h-14c-1.1,0-2-0.9-2-2v-14c0-1.1,0.9-2,2-2h14c1.1,0,2,0.9,2,2V236z"/>
			<path style="fill:#999999;" d="M207,236c0,1.1-0.9,2-2,2h-34c-1.1,0-2-0.9-2-2v-14c0-1.1,0.9-2,2-2h34c1.1,0,2,0.9,2,2V236z"/>
			<path style="fill:#999999;" d="M207,176c0,1.1-0.9,2-2,2h-24c-1.1,0-2-0.9-2-2v-14c0-1.1,0.9-2,2-2h24c1.1,0,2,0.9,2,2V176z"/>
			<path style="fill:#999999;" d="M57,216c0,1.1-0.9,2-2,2H21c-1.1,0-2-0.9-2-2v-14c0-1.1,0.9-2,2-2h34c1.1,0,2,0.9,2,2V216z"/>
			<path style="fill:#999999;" d="M77,216c0,1.1-0.9,2-2,2H61c-1.1,0-2-0.9-2-2v-14c0-1.1,0.9-2,2-2h14c1.1,0,2,0.9,2,2V216z"/>
			<path style="fill:#999999;" d="M97,216c0,1.1-0.9,2-2,2H81c-1.1,0-2-0.9-2-2v-14c0-1.1,0.9-2,2-2h14c1.1,0,2,0.9,2,2V216z"/>
			<path style="fill:#999999;" d="M117,216c0,1.1-0.9,2-2,2h-14c-1.1,0-2-0.9-2-2v-14c0-1.1,0.9-2,2-2h14c1.1,0,2,0.9,2,2V216z"/>
			<path style="fill:#999999;" d="M137,216c0,1.1-0.9,2-2,2h-14c-1.1,0-2-0.9-2-2v-14c0-1.1,0.9-2,2-2h14c1.1,0,2,0.9,2,2V216z"/>
			<path style="fill:#999999;" d="M157,216c0,1.1-0.9,2-2,2h-14c-1.1,0-2-0.9-2-2v-14c0-1.1,0.9-2,2-2h14c1.1,0,2,0.9,2,2V216z"/>
			<path style="fill:#999999;" d="M177,216c0,1.1-0.9,2-2,2h-14c-1.1,0-2-0.9-2-2v-14c0-1.1,0.9-2,2-2h14c1.1,0,2,0.9,2,2V216z"/>
			<path style="fill:#999999;" d="M177,256c0,1.1-0.9,2-2,2h-14c-1.1,0-2-0.9-2-2v-14c0-1.1,0.9-2,2-2h14c1.1,0,2,0.9,2,2V256z"/>
			<path style="fill:#999999;" d="M207,216c0,1.1-0.9,2-2,2h-24c-1.1,0-2-0.9-2-2v-14c0-1.1,0.9-2,2-2h24c1.1,0,2,0.9,2,2V216z"/>
			<path style="fill:#999999;" d="M207,256c0,1.1-0.9,2-2,2h-24c-1.1,0-2-0.9-2-2v-14c0-1.1,0.9-2,2-2h24c1.1,0,2,0.9,2,2V256z"/>
		</g>
		<g>
			<path style="fill:#FFFFFF;" d="M37,175c0,1.1-0.9,2-2,2H21c-1.1,0-2-0.9-2-2v-14c0-1.1,0.9-2,2-2h14c1.1,0,2,0.9,2,2V175z"/>
			<path style="fill:#FFFFFF;" d="M57,175c0,1.1-0.9,2-2,2H41c-1.1,0-2-0.9-2-2v-14c0-1.1,0.9-2,2-2h14c1.1,0,2,0.9,2,2V175z"/>
			<path style="fill:#FFFFFF;" d="M77,175c0,1.1-0.9,2-2,2H61c-1.1,0-2-0.9-2-2v-14c0-1.1,0.9-2,2-2h14c1.1,0,2,0.9,2,2V175z"/>
			<path style="fill:#FFFFFF;" d="M97,175c0,1.1-0.9,2-2,2H81c-1.1,0-2-0.9-2-2v-14c0-1.1,0.9-2,2-2h14c1.1,0,2,0.9,2,2V175z"/>
			<path style="fill:#FFFFFF;" d="M117,175c0,1.1-0.9,2-2,2h-14c-1.1,0-2-0.9-2-2v-14c0-1.1,0.9-2,2-2h14c1.1,0,2,0.9,2,2V175z"/>
			<path style="fill:#FFFFFF;" d="M137,175c0,1.1-0.9,2-2,2h-14c-1.1,0-2-0.9-2-2v-14c0-1.1,0.9-2,2-2h14c1.1,0,2,0.9,2,2V175z"/>
			<path style="fill:#FFFFFF;" d="M157,175c0,1.1-0.9,2-2,2h-14c-1.1,0-2-0.9-2-2v-14c0-1.1,0.9-2,2-2h14c1.1,0,2,0.9,2,2V175z"/>
			<path style="fill:#FFFFFF;" d="M177,175c0,1.1-0.9,2-2,2h-14c-1.1,0-2-0.9-2-2v-14c0-1.1,0.9-2,2-2h14c1.1,0,2,0.9,2,2V175z"/>
			<path style="fill:#FFFFFF;" d="M38,155c0,1.1-0.9,2-2,2H21c-1.1,0-2-0.9-2-2v-3c0-1.1,0.9-2,2-2h15c1.1,0,2,0.9,2,2V155z"/>
			<path style="fill:#FFFFFF;" d="M59,155c0,1.1-0.9,2-2,2H42c-1.1,0-2-0.9-2-2v-3c0-1.1,0.9-2,2-2h15c1.1,0,2,0.9,2,2V155z"/>
			<path style="fill:#FFFFFF;" d="M80,155c0,1.1-0.9,2-2,2H63c-1.1,0-2-0.9-2-2v-3c0-1.1,0.9-2,2-2h15c1.1,0,2,0.9,2,2V155z"/>
			<path style="fill:#FFFFFF;" d="M101,155c0,1.1-0.9,2-2,2H84c-1.1,0-2-0.9-2-2v-3c0-1.1,0.9-2,2-2h15c1.1,0,2,0.9,2,2V155z"/>
			<path style="fill:#FFFFFF;" d="M122,155c0,1.1-0.9,2-2,2h-15c-1.1,0-2-0.9-2-2v-3c0-1.1,0.9-2,2-2h15c1.1,0,2,0.9,2,2V155z"/>
			<path style="fill:#FFFFFF;" d="M143,155c0,1.1-0.9,2-2,2h-15c-1.1,0-2-0.9-2-2v-3c0-1.1,0.9-2,2-2h15c1.1,0,2,0.9,2,2V155z"/>
			<path style="fill:#FFFFFF;" d="M164,155c0,1.1-0.9,2-2,2h-15c-1.1,0-2-0.9-2-2v-3c0-1.1,0.9-2,2-2h15c1.1,0,2,0.9,2,2V155z"/>
			<path style="fill:#FFFFFF;" d="M185,155c0,1.1-0.9,2-2,2h-15c-1.1,0-2-0.9-2-2v-3c0-1.1,0.9-2,2-2h15c1.1,0,2,0.9,2,2V155z"/>
			<path style="fill:#FFFFFF;" d="M207,155c0,1.1-0.9,2-2,2h-16c-1.1,0-2-0.9-2-2v-3c0-1.1,0.9-2,2-2h16c1.1,0,2,0.9,2,2V155z"/>
			<path style="fill:#FFFFFF;" d="M47,195c0,1.1-0.9,2-2,2H21c-1.1,0-2-0.9-2-2v-14c0-1.1,0.9-2,2-2h24c1.1,0,2,0.9,2,2V195z"/>
			<path style="fill:#FFFFFF;" d="M67,195c0,1.1-0.9,2-2,2H51c-1.1,0-2-0.9-2-2v-14c0-1.1,0.9-2,2-2h14c1.1,0,2,0.9,2,2V195z"/>
			<path style="fill:#FFFFFF;" d="M87,195c0,1.1-0.9,2-2,2H71c-1.1,0-2-0.9-2-2v-14c0-1.1,0.9-2,2-2h14c1.1,0,2,0.9,2,2V195z"/>
			<path style="fill:#FFFFFF;" d="M107,195c0,1.1-0.9,2-2,2H91c-1.1,0-2-0.9-2-2v-14c0-1.1,0.9-2,2-2h14c1.1,0,2,0.9,2,2V195z"/>
			<path style="fill:#FFFFFF;" d="M127,195c0,1.1-0.9,2-2,2h-14c-1.1,0-2-0.9-2-2v-14c0-1.1,0.9-2,2-2h14c1.1,0,2,0.9,2,2V195z"/>
			<path style="fill:#FFFFFF;" d="M147,195c0,1.1-0.9,2-2,2h-14c-1.1,0-2-0.9-2-2v-14c0-1.1,0.9-2,2-2h14c1.1,0,2,0.9,2,2V195z"/>
			<path style="fill:#FFFFFF;" d="M167,195c0,1.1-0.9,2-2,2h-14c-1.1,0-2-0.9-2-2v-14c0-1.1,0.9-2,2-2h14c1.1,0,2,0.9,2,2V195z"/>
			<path style="fill:#FFFFFF;" d="M187,195c0,1.1-0.9,2-2,2h-14c-1.1,0-2-0.9-2-2v-14c0-1.1,0.9-2,2-2h14c1.1,0,2,0.9,2,2V195z"/>
			<path style="fill:#FFFFFF;" d="M207,195c0,1.1-0.9,2-2,2h-14c-1.1,0-2-0.9-2-2v-14c0-1.1,0.9-2,2-2h14c1.1,0,2,0.9,2,2V195z"/>
			<path style="fill:#FFFFFF;" d="M67,235c0,1.1-0.9,2-2,2H21c-1.1,0-2-0.9-2-2v-14c0-1.1,0.9-2,2-2h44c1.1,0,2,0.9,2,2V235z"/>
			<path style="fill:#FFFFFF;" d="M157.009,255c0,1.1-0.9,2-2,2H81c-1.1,0-2-0.9-2-2v-14c0-1.1,0.9-2,2-2h74.01c1.1,0,2,0.9,2,2V255
				z"/>
			<path style="fill:#FFFFFF;" d="M87,235c0,1.1-0.9,2-2,2H71c-1.1,0-2-0.9-2-2v-14c0-1.1,0.9-2,2-2h14c1.1,0,2,0.9,2,2V235z"/>
			<path style="fill:#FFFFFF;" d="M107,235c0,1.1-0.9,2-2,2H91c-1.1,0-2-0.9-2-2v-14c0-1.1,0.9-2,2-2h14c1.1,0,2,0.9,2,2V235z"/>
			<path style="fill:#FFFFFF;" d="M127,235c0,1.1-0.9,2-2,2h-14c-1.1,0-2-0.9-2-2v-14c0-1.1,0.9-2,2-2h14c1.1,0,2,0.9,2,2V235z"/>
			<path style="fill:#FFFFFF;" d="M37,255c0,1.1-0.9,2-2,2H21c-1.1,0-2-0.9-2-2v-14c0-1.1,0.9-2,2-2h14c1.1,0,2,0.9,2,2V255z"/>
			<path style="fill:#FFFFFF;" d="M57,255c0,1.1-0.9,2-2,2H41c-1.1,0-2-0.9-2-2v-14c0-1.1,0.9-2,2-2h14c1.1,0,2,0.9,2,2V255z"/>
			<path style="fill:#FFFFFF;" d="M77,255c0,1.1-0.9,2-2,2H61c-1.1,0-2-0.9-2-2v-14c0-1.1,0.9-2,2-2h14c1.1,0,2,0.9,2,2V255z"/>
			<path style="fill:#FFFFFF;" d="M147,235c0,1.1-0.9,2-2,2h-14c-1.1,0-2-0.9-2-2v-14c0-1.1,0.9-2,2-2h14c1.1,0,2,0.9,2,2V235z"/>
			<path style="fill:#FFFFFF;" d="M167,235c0,1.1-0.9,2-2,2h-14c-1.1,0-2-0.9-2-2v-14c0-1.1,0.9-2,2-2h14c1.1,0,2,0.9,2,2V235z"/>
			<path style="fill:#FFFFFF;" d="M207,235c0,1.1-0.9,2-2,2h-34c-1.1,0-2-0.9-2-2v-14c0-1.1,0.9-2,2-2h34c1.1,0,2,0.9,2,2V235z"/>
			<path style="fill:#FFFFFF;" d="M207,175c0,1.1-0.9,2-2,2h-24c-1.1,0-2-0.9-2-2v-14c0-1.1,0.9-2,2-2h24c1.1,0,2,0.9,2,2V175z"/>
			<path style="fill:#FFFFFF;" d="M57,215c0,1.1-0.9,2-2,2H21c-1.1,0-2-0.9-2-2v-14c0-1.1,0.9-2,2-2h34c1.1,0,2,0.9,2,2V215z"/>
			<path style="fill:#FFFFFF;" d="M77,215c0,1.1-0.9,2-2,2H61c-1.1,0-2-0.9-2-2v-14c0-1.1,0.9-2,2-2h14c1.1,0,2,0.9,2,2V215z"/>
			<path style="fill:#FFFFFF;" d="M97,215c0,1.1-0.9,2-2,2H81c-1.1,0-2-0.9-2-2v-14c0-1.1,0.9-2,2-2h14c1.1,0,2,0.9,2,2V215z"/>
			<path style="fill:#FFFFFF;" d="M117,215c0,1.1-0.9,2-2,2h-14c-1.1,0-2-0.9-2-2v-14c0-1.1,0.9-2,2-2h14c1.1,0,2,0.9,2,2V215z"/>
			<path style="fill:#FFFFFF;" d="M137,215c0,1.1-0.9,2-2,2h-14c-1.1,0-2-0.9-2-2v-14c0-1.1,0.9-2,2-2h14c1.1,0,2,0.9,2,2V215z"/>
			<path style="fill:#FFFFFF;" d="M157,215c0,1.1-0.9,2-2,2h-14c-1.1,0-2-0.9-2-2v-14c0-1.1,0.9-2,2-2h14c1.1,0,2,0.9,2,2V215z"/>
			<path style="fill:#FFFFFF;" d="M177,215c0,1.1-0.9,2-2,2h-14c-1.1,0-2-0.9-2-2v-14c0-1.1,0.9-2,2-2h14c1.1,0,2,0.9,2,2V215z"/>
			<path style="fill:#FFFFFF;" d="M177,255c0,1.1-0.9,2-2,2h-14c-1.1,0-2-0.9-2-2v-14c0-1.1,0.9-2,2-2h14c1.1,0,2,0.9,2,2V255z"/>
			<path style="fill:#FFFFFF;" d="M207,215c0,1.1-0.9,2-2,2h-24c-1.1,0-2-0.9-2-2v-14c0-1.1,0.9-2,2-2h24c1.1,0,2,0.9,2,2V215z"/>
			<path style="fill:#FFFFFF;" d="M207,255c0,1.1-0.9,2-2,2h-24c-1.1,0-2-0.9-2-2v-14c0-1.1,0.9-2,2-2h24c1.1,0,2,0.9,2,2V255z"/>
		</g>
	</g>
	<g>
		<path style="opacity:0.2;fill:#2C3E50;enable-background:new    ;" d="M349,78c0,1.657-1.343,3-3,3H218c-1.657,0-3-1.343-3-3V6
			c0-1.657,1.343-3,3-3h128c1.657,0,3,1.343,3,3V78z"/>
		<path style="fill:#FFFFFF;" d="M351,76c0,1.657-1.343,3-3,3H220c-1.657,0-3-1.343-3-3V4c0-1.657,1.343-3,3-3h128
			c1.657,0,3,1.343,3,3V76z"/>
		<path style="fill:#EEF0F1;" d="M351,75c0,1.657-1.343,3-3,3H220c-1.657,0-3-1.343-3-3V3c0-1.657,1.343-3,3-3h128
			c1.657,0,3,1.343,3,3V75z"/>
		<rect x="328" y="5" style="fill:#49AFE2;" width="18" height="21"/>
		<rect x="331" y="8" style="fill:#F9F9FA;" width="12" height="15"/>
		<g style="opacity:0.5;">
			<path style="fill:#FE6F64;" d="M325.5,12c4.687,0,8.5,3.813,8.5,8.5s-3.813,8.5-8.5,8.5s-8.5-3.813-8.5-8.5S320.813,12,325.5,12
				 M325.5,10c-5.799,0-10.5,4.701-10.5,10.5S319.701,31,325.5,31S336,26.299,336,20.5S331.298,10,325.5,10L325.5,10z"/>
			<g>
				<circle style="fill:#FE6F64;" cx="325.5" cy="20.5" r="5.5"/>
			</g>
			<path style="fill:#FE6F64;" d="M292.554,19.832L292,19l2.168-1.445c0.623-0.414,1.596-0.414,2.219,0l1.336,0.891
				c0.289,0.193,0.82,0.193,1.109,0l1.336-0.891c0.623-0.414,1.596-0.414,2.219,0l1.336,0.891c0.289,0.193,0.82,0.193,1.109,0
				l1.336-0.891c0.623-0.414,1.596-0.414,2.219,0l1.336,0.891c0.289,0.193,0.82,0.193,1.109,0L313,17l0.555,0.832l-2.168,1.445
				c-0.623,0.414-1.596,0.414-2.219,0l-1.336-0.891c-0.289-0.193-0.82-0.193-1.109,0l-1.336,0.891c-0.623,0.414-1.596,0.414-2.219,0
				l-1.336-0.891c-0.289-0.193-0.82-0.193-1.109,0l-1.336,0.891c-0.623,0.414-1.596,0.414-2.219,0l-1.336-0.891
				c-0.289-0.193-0.82-0.193-1.109,0L292.554,19.832L292.554,19.832z"/>
			<path style="fill:#FE6F64;" d="M292.554,22.832L292,22l2.168-1.445c0.623-0.414,1.596-0.414,2.219,0l1.336,0.891
				c0.289,0.193,0.82,0.193,1.109,0l1.336-0.891c0.623-0.414,1.596-0.414,2.219,0l1.336,0.891c0.289,0.193,0.82,0.193,1.109,0
				l1.336-0.891c0.623-0.414,1.596-0.414,2.219,0l1.336,0.891c0.289,0.193,0.82,0.193,1.109,0L313,20l0.555,0.832l-2.168,1.445
				c-0.623,0.414-1.596,0.414-2.219,0l-1.336-0.891c-0.289-0.193-0.82-0.193-1.109,0l-1.336,0.891c-0.623,0.414-1.596,0.414-2.219,0
				l-1.336-0.891c-0.289-0.193-0.82-0.193-1.109,0l-1.336,0.891c-0.623,0.414-1.596,0.414-2.219,0l-1.336-0.891
				c-0.289-0.193-0.82-0.193-1.109,0L292.554,22.832L292.554,22.832z"/>
			<path style="fill:#FE6F64;" d="M292.554,25.832L292,25l2.168-1.445c0.623-0.414,1.596-0.414,2.219,0l1.336,0.891
				c0.289,0.193,0.82,0.193,1.109,0l1.336-0.891c0.623-0.414,1.596-0.414,2.219,0l1.336,0.891c0.289,0.193,0.82,0.193,1.109,0
				l1.336-0.891c0.623-0.414,1.596-0.414,2.219,0l1.336,0.891c0.289,0.193,0.82,0.193,1.109,0L313,23l0.555,0.832l-2.168,1.445
				c-0.623,0.414-1.596,0.414-2.219,0l-1.336-0.891c-0.289-0.193-0.82-0.193-1.109,0l-1.336,0.891c-0.623,0.414-1.596,0.414-2.219,0
				l-1.336-0.891c-0.289-0.193-0.82-0.193-1.109,0l-1.336,0.891c-0.623,0.414-1.596,0.414-2.219,0l-1.336-0.891
				c-0.289-0.193-0.82-0.193-1.109,0L292.554,25.832L292.554,25.832z"/>
		</g>
		<rect x="262" y="34" style="fill:#DDE0E3;" width="26" height="4"/>
		<rect x="262" y="40" style="fill:#DDE0E3;" width="35" height="2"/>
		<rect x="262" y="43" style="fill:#DDE0E3;" width="33" height="2"/>
		<rect x="262" y="46" style="fill:#DDE0E3;" width="29" height="2"/>
	</g>
	<g>
		<polygon style="opacity:0.2;fill:#2C3E50;enable-background:new    ;" points="206,18.5 201,10.5 196,18.5 196,138 206,138 		"/>
		<g>
			<polyline style="fill:#FFE166;" points="199,134.75 199,15 209,15 209,134.75 199,134.75 			"/>
			<polyline style="fill:#FFF3BF;" points="199,128.5 199,127.75 209,127.75 209,128.5 199,128.5 			"/>
			<polyline style="fill:#FFF3BF;" points="199,130.25 199,129.5 209,129.5 209,130.25 199,130.25 			"/>
			<polyline style="fill:#FFF3BF;" points="199,132 199,131.25 209,131.25 209,132 199,132 			"/>
			<path style="fill:#EDCD9B;" d="M204,16c1.104,0,2-0.447,2-1c0,0.553,0.672,1,1.5,1s1.5-0.447,1.5-1l-5-8l-5,8
				c0,0.553,0.672,1,1.5,1s1.5-0.447,1.5-1C202,15.553,202.895,16,204,16"/>
			<path style="fill:#4D4232;" d="M201.692,10.692C202.402,10.89,203.181,11,204,11s1.598-0.11,2.308-0.308L204,7L201.692,10.692"/>
			<path style="fill:#FFD328;" d="M202,127.75V15l0,0c0,0.553-0.672,1-1.5,1s-1.5-0.447-1.5-1v112.75H202 M202,129.5v-1h-3v1H202
				 M202,131.25v-1h-3v1H202 M202,134.75V132h-3v2.75H202"/>
			<polyline style="fill:#FFEE99;" points="202,128.5 202,127.75 199,127.75 199,128.5 202,128.5 			"/>
			<polyline style="fill:#FFEE99;" points="202,130.25 202,129.5 199,129.5 199,130.25 202,130.25 			"/>
			<polyline style="fill:#FFEE99;" points="202,132 202,131.25 199,131.25 199,132 202,132 			"/>
			<path style="fill:#E6B55F;" d="M199,15c0,0.553,0.672,1,1.5,1s1.5-0.447,1.5-1l0,0l1.014-4.055
				c-0.461-0.051-0.902-0.137-1.321-0.253L199,15z"/>
			<path style="fill:#2E2213;" d="M204,7L204,7l-2.308,3.692c0.419,0.116,0.86,0.202,1.321,0.253L204,7"/>
			<path style="fill:#FFC81B;" d="M206,127.75V15l0,0c0,0.553-0.896,1-2,1s-2-0.447-2-1v112.75H206 M206,129.5v-1h-4v1H206
				 M206,131.25v-1h-4v1H206 M206,134.75V132h-4v2.75H206"/>
			<polyline style="fill:#FFEA7A;" points="206,128.5 206,127.75 202,127.75 202,128.5 206,128.5 			"/>
			<polyline style="fill:#FFEA7A;" points="206,130.25 206,129.5 202,129.5 202,130.25 206,130.25 			"/>
			<polyline style="fill:#FFEA7A;" points="206,132 206,131.25 202,131.25 202,132 206,132 			"/>
			<path style="fill:#E1A342;" d="M206,15L206,15l-1.014-4.055C204.666,10.981,204.335,11,204,11s-0.666-0.019-0.986-0.055L202,15
				c0,0.553,0.896,1,2,1S206,15.553,206,15L206,15"/>
			<path style="fill:#24190D;" d="M204.986,10.945L204,7l-0.986,3.945C203.333,10.981,203.664,11,204,11
				S204.666,10.981,204.986,10.945"/>
		</g>
	</g>
</g>
</svg>
