<?xml version="1.0" encoding="iso-8859-1"?>
<!-- Generator: Adobe Illustrator 14.0.0, SVG Export Plug-In . SVG Version: 6.00 Build 43363)  -->
<!DOCTYPE svg PUBLIC "-//W3C//DTD SVG 1.1//EN" "http://www.w3.org/Graphics/SVG/1.1/DTD/svg11.dtd">
<svg version="1.1" id="Layer_1" xmlns="http://www.w3.org/2000/svg" xmlns:xlink="http://www.w3.org/1999/xlink" x="0px" y="0px"
	 width="265px" height="290px" viewBox="0 0 265 290" style="enable-background:new 0 0 265 290;" xml:space="preserve">
<g>
	<rect style="fill:none;" width="265" height="290"/>
	<g>
		<g style="opacity:0.2;">
			<path style="fill:#2C3E50;" d="M241.219,290v-0.5c0-2.209-1.791-4-4-4v-4c2.209,0,4-1.791,4-4v-38c0-2.209-1.791-4-4-4v-4
				c2.209,0,4-1.791,4-4v-60c0-2.209-1.791-4-4-4c0-1.391-0.21-2.732-0.588-4h0.588c2.209,0,4-1.791,4-4v-6v-8v-6v-96v-14l-36,80v14
				v16v6v8v6c0,2.209,1.791,4,4,4h0.588c-0.378,1.268-0.588,2.609-0.588,4c-2.209,0-4,1.791-4,4v60c0,2.209,1.791,4,4,4v4
				c-2.209,0-4,1.791-4,4v38c0,2.209,1.791,4,4,4v4c-2.209,0-4,1.791-4,4v0.5H241.219z"/>
			<path style="fill:#2C3E50;" d="M191.219,290v-72v-4v-4c0-1.105-0.896-2-2-2h-4h-2v-4.98V203h-0.043
				c-19.117-8.105-33.125-31.768-33.91-60h-0.047v-1V126V124V123c0-1.104-0.896-2-2-2h-3h-2V97.319V93l-22,9v19h-3h-2
				c-1.104,0-2,0.896-2,2V124V126V142v1h-0.047c-0.785,28.233-14.793,51.895-33.91,60h-0.043v0.02V208h-1h-4c-1.104,0-2,0.895-2,2v4
				v4v72H191.219z"/>
			<path style="fill:#2C3E50;" d="M56.219,290v-61v-18c0-2.209-1.791-4-4-4c0-2.209-1.791-4-4-4v-26v-0.998h0.002
				c-0.001-0.006-0.001-0.01-0.002-0.014V175h-0.137c-5.119-37.2-7.289-43.387-7.98-71.999h0.117v-12v-4c0-1.105-0.895-2-2-2H34
				l-2-4v-26h-2v-4h-4v4h-2v26l-2,4h-4c-1.105,0-2,0.895-2,2v4v12h0.117C15.428,131.613,13.258,137.8,8.141,175H8v2v26
				c-2.209,0-4,1.791-4,4c-2.209,0-4,1.791-4,4v18v61H56.219z"/>
		</g>
		<path style="fill:#D6E2E6;" d="M226.219,83.5v30v6c0,2.209,1.791,4,4,4h28c2.209,0,4-1.791,4-4v-6V3.5L226.219,83.5z"/>
		<path style="fill:#DFEBEC;" d="M226.219,97.5v30v6c0,2.209,1.791,4,4,4h28c2.209,0,4-1.791,4-4v-6v-110L226.219,97.5z"/>
		<circle style="fill:#A2A9AB;" cx="244.219" cy="141.5" r="14"/>
		<circle style="fill:#BEC7C9;" cx="244.219" cy="141.5" r="12"/>
		<rect x="230.219" y="155.5" style="fill:#444848;" width="28" height="120"/>
		<path style="fill:#565A5B;" d="M262.219,255.5c0,2.209-1.791,4-4,4h-28c-2.209,0-4-1.791-4-4v-38c0-2.209,1.791-4,4-4h28
			c2.209,0,4,1.791,4,4V255.5z"/>
		<path style="fill:#565A5B;" d="M226.219,290v-22.5c0-2.209,1.791-4,4-4h28c2.209,0,4,1.791,4,4V290H226.219z"/>
		<path style="fill:#A2A9AB;" d="M262.219,205.5c0,2.209-1.791,4-4,4h-28c-2.209,0-4-1.791-4-4v-60c0-2.209,1.791-4,4-4h28
			c2.209,0,4,1.791,4,4V205.5z"/>
		<polygon style="fill:#7A7A78;" points="232.219,213.5 232.219,215.5 234.219,215.5 234.219,255.5 254.219,255.5 254.219,215.5 
			256.219,215.5 256.219,213.5 		"/>
		<polygon style="fill:#7A7A78;" points="232.219,263.5 232.219,265.5 234.219,265.5 234.219,290 254.219,290 254.219,265.5 
			256.219,265.5 256.219,263.5 		"/>
		<polygon style="fill:#969693;" points="240.219,263.5 240.219,265.5 242.219,265.5 242.219,290 246.219,290 246.219,265.5 
			248.219,265.5 248.219,263.5 		"/>
		<polygon style="fill:#969693;" points="240.219,213.5 240.219,215.5 242.219,215.5 242.219,255.5 246.219,255.5 246.219,215.5 
			248.219,215.5 248.219,213.5 		"/>
		<ellipse style="fill:#E3E3DE;" cx="244.219" cy="131.5" rx="4" ry="2"/>
		<g>
			<rect x="238.219" y="173.5" style="fill:#BEC7C9;" width="2" height="2"/>
			<rect x="238.219" y="185.5" style="fill:#BEC7C9;" width="2" height="2"/>
			<rect x="238.219" y="181.5" style="fill:#BEC7C9;" width="2" height="2"/>
			<rect x="238.219" y="189.5" style="fill:#BEC7C9;" width="2" height="2"/>
			<rect x="238.219" y="201.5" style="fill:#BEC7C9;" width="2" height="2"/>
			<rect x="238.219" y="193.5" style="fill:#BEC7C9;" width="2" height="2"/>
			<rect x="238.219" y="197.5" style="fill:#BEC7C9;" width="2" height="2"/>
			<rect x="238.219" y="177.5" style="fill:#BEC7C9;" width="2" height="2"/>
			<rect x="238.219" y="169.5" style="fill:#BEC7C9;" width="2" height="2"/>
			<rect x="238.219" y="153.5" style="fill:#BEC7C9;" width="2" height="2"/>
			<rect x="238.219" y="145.5" style="fill:#BEC7C9;" width="2" height="2"/>
			<polygon style="fill:#BEC7C9;" points="250.219,143.5 252.219,143.5 254.219,143.5 254.219,141.5 248.219,141.5 248.219,143.5 
							"/>
			<rect x="238.219" y="149.5" style="fill:#BEC7C9;" width="2" height="2"/>
			<rect x="238.219" y="157.5" style="fill:#BEC7C9;" width="2" height="2"/>
			<rect x="238.219" y="165.5" style="fill:#BEC7C9;" width="2" height="2"/>
			<rect x="238.219" y="161.5" style="fill:#BEC7C9;" width="2" height="2"/>
			<rect x="248.219" y="157.5" style="fill:#BEC7C9;" width="2" height="2"/>
			<rect x="248.219" y="189.5" style="fill:#BEC7C9;" width="2" height="2"/>
			<rect x="248.219" y="185.5" style="fill:#BEC7C9;" width="2" height="2"/>
			<rect x="248.219" y="181.5" style="fill:#BEC7C9;" width="2" height="2"/>
			<rect x="248.219" y="145.5" style="fill:#BEC7C9;" width="2" height="2"/>
			<rect x="248.219" y="193.5" style="fill:#BEC7C9;" width="2" height="2"/>
			<rect x="248.219" y="177.5" style="fill:#BEC7C9;" width="2" height="2"/>
			<rect x="248.219" y="197.5" style="fill:#BEC7C9;" width="2" height="2"/>
			<rect x="248.219" y="201.5" style="fill:#BEC7C9;" width="2" height="2"/>
			<rect x="248.219" y="173.5" style="fill:#BEC7C9;" width="2" height="2"/>
			<polygon style="fill:#BEC7C9;" points="238.219,143.5 240.219,143.5 240.219,141.5 234.219,141.5 234.219,143.5 236.219,143.5 
							"/>
			<rect x="248.219" y="149.5" style="fill:#BEC7C9;" width="2" height="2"/>
			<rect x="248.219" y="153.5" style="fill:#BEC7C9;" width="2" height="2"/>
			<rect x="248.219" y="161.5" style="fill:#BEC7C9;" width="2" height="2"/>
			<rect x="248.219" y="169.5" style="fill:#BEC7C9;" width="2" height="2"/>
			<rect x="248.219" y="165.5" style="fill:#BEC7C9;" width="2" height="2"/>
			<rect x="252.219" y="169.5" style="fill:#BEC7C9;" width="2" height="2"/>
			<rect x="234.219" y="177.5" style="fill:#BEC7C9;" width="2" height="2"/>
			<rect x="252.219" y="185.5" style="fill:#BEC7C9;" width="2" height="2"/>
			<rect x="252.219" y="189.5" style="fill:#BEC7C9;" width="2" height="2"/>
			<rect x="252.219" y="197.5" style="fill:#BEC7C9;" width="2" height="2"/>
			<rect x="252.219" y="193.5" style="fill:#BEC7C9;" width="2" height="2"/>
			<rect x="234.219" y="181.5" style="fill:#BEC7C9;" width="2" height="2"/>
			<rect x="234.219" y="169.5" style="fill:#BEC7C9;" width="2" height="2"/>
			<rect x="252.219" y="173.5" style="fill:#BEC7C9;" width="2" height="2"/>
			<rect x="252.219" y="181.5" style="fill:#BEC7C9;" width="2" height="2"/>
			<rect x="234.219" y="173.5" style="fill:#BEC7C9;" width="2" height="2"/>
			<rect x="252.219" y="177.5" style="fill:#BEC7C9;" width="2" height="2"/>
			<rect x="234.219" y="205.5" style="fill:#BEC7C9;" width="2" height="2"/>
			<rect x="234.219" y="201.5" style="fill:#BEC7C9;" width="2" height="2"/>
			<rect x="234.219" y="197.5" style="fill:#BEC7C9;" width="2" height="2"/>
			<rect x="234.219" y="165.5" style="fill:#BEC7C9;" width="2" height="2"/>
			<rect x="252.219" y="201.5" style="fill:#BEC7C9;" width="2" height="2"/>
			<rect x="238.219" y="205.5" style="fill:#BEC7C9;" width="2" height="2"/>
			<rect x="234.219" y="193.5" style="fill:#BEC7C9;" width="2" height="2"/>
			<rect x="234.219" y="185.5" style="fill:#BEC7C9;" width="2" height="2"/>
			<rect x="252.219" y="205.5" style="fill:#BEC7C9;" width="2" height="2"/>
			<rect x="234.219" y="189.5" style="fill:#BEC7C9;" width="2" height="2"/>
			<rect x="248.219" y="205.5" style="fill:#BEC7C9;" width="2" height="2"/>
			<rect x="252.219" y="145.5" style="fill:#BEC7C9;" width="2" height="2"/>
			<rect x="252.219" y="165.5" style="fill:#BEC7C9;" width="2" height="2"/>
			<rect x="234.219" y="153.5" style="fill:#BEC7C9;" width="2" height="2"/>
			<rect x="252.219" y="157.5" style="fill:#BEC7C9;" width="2" height="2"/>
			<rect x="252.219" y="161.5" style="fill:#BEC7C9;" width="2" height="2"/>
			<rect x="234.219" y="161.5" style="fill:#BEC7C9;" width="2" height="2"/>
			<rect x="234.219" y="157.5" style="fill:#BEC7C9;" width="2" height="2"/>
			<rect x="252.219" y="149.5" style="fill:#BEC7C9;" width="2" height="2"/>
			<rect x="234.219" y="145.5" style="fill:#BEC7C9;" width="2" height="2"/>
			<rect x="234.219" y="149.5" style="fill:#BEC7C9;" width="2" height="2"/>
			<rect x="252.219" y="153.5" style="fill:#BEC7C9;" width="2" height="2"/>
			<rect x="242.219" y="185.5" style="fill:#E3E3DE;" width="4" height="2"/>
			<rect x="242.219" y="181.5" style="fill:#E3E3DE;" width="4" height="2"/>
			<rect x="242.219" y="173.5" style="fill:#E3E3DE;" width="4" height="2"/>
			<rect x="242.219" y="177.5" style="fill:#E3E3DE;" width="4" height="2"/>
			<rect x="242.219" y="193.5" style="fill:#E3E3DE;" width="4" height="2"/>
			<rect x="242.219" y="169.5" style="fill:#E3E3DE;" width="4" height="2"/>
			<rect x="242.219" y="201.5" style="fill:#E3E3DE;" width="4" height="2"/>
			<rect x="242.219" y="197.5" style="fill:#E3E3DE;" width="4" height="2"/>
			<rect x="242.219" y="189.5" style="fill:#E3E3DE;" width="4" height="2"/>
			<rect x="242.219" y="205.5" style="fill:#E3E3DE;" width="4" height="2"/>
			<polygon style="fill:#E3E3DE;" points="242.219,143.5 246.219,143.5 248.219,143.5 248.219,141.5 240.219,141.5 240.219,143.5 
							"/>
			<rect x="242.219" y="149.5" style="fill:#E3E3DE;" width="4" height="2"/>
			<rect x="242.219" y="153.5" style="fill:#E3E3DE;" width="4" height="2"/>
			<rect x="242.219" y="145.5" style="fill:#E3E3DE;" width="4" height="2"/>
			<rect x="242.219" y="161.5" style="fill:#E3E3DE;" width="4" height="2"/>
			<rect x="242.219" y="157.5" style="fill:#E3E3DE;" width="4" height="2"/>
			<rect x="242.219" y="165.5" style="fill:#E3E3DE;" width="4" height="2"/>
		</g>
		<g>
			<path style="fill:#313232;" d="M170.266,122h-36.094c-0.786,28.255-14.813,51.932-33.953,60.02V193h104v-10.98
				C185.079,173.932,171.052,150.254,170.266,122z"/>
			<g>
				<path style="fill:#646767;" d="M139.827,123h-4.354c-1.038,27.333-14.296,51.133-33.255,59.676V192h13v-9.324
					C129.248,174.133,139.06,150.333,139.827,123z"/>
				<path style="fill:#646767;" d="M168.964,123h-4.354c0.768,27.333,10.579,51.133,24.608,59.676V192h13v-9.324
					C183.26,174.133,170.002,150.333,168.964,123z"/>
			</g>
			<path style="fill:#313232;" d="M212.219,197c0,1.104-0.896,2-2,2h-115c-1.104,0-2-0.896-2-2v-8c0-1.105,0.896-2,2-2h115
				c1.104,0,2,0.895,2,2V197z"/>
			<rect x="93.219" y="193" style="fill:#FFC91D;" width="119" height="97"/>
			<polygon style="fill:#FFC91D;" points="163.219,103 141.219,103 141.219,81 163.219,72 			"/>
			<rect x="96.219" y="193" style="fill:#FFE166;" width="10" height="97"/>
			<rect x="199.219" y="193" style="fill:#FFE166;" width="10" height="97"/>
			<path style="fill:#646767;" d="M103.219,193v-4c0-1.105,0.896-2,2-2h-6c-1.104,0-2,0.895-2,2v4H103.219z"/>
			<path style="fill:#646767;" d="M202.219,193v-4c0-1.105-0.896-2-2-2h6c1.104,0,2,0.895,2,2v4H202.219z"/>
			<rect x="95.219" y="187" style="fill:#646767;" width="115" height="1"/>
			<rect x="100.219" y="182" style="fill:#1B1C1C;" width="104" height="5"/>
			<path style="fill:#646767;" d="M170.219,105c0,1.104-0.896,2-2,2h-32c-1.104,0-2-0.896-2-2v-3c0-1.104,0.896-2,2-2h32
				c1.104,0,2,0.896,2,2V105z"/>
			<rect x="134.219" y="102.999" style="fill:#313232;" width="36" height="19"/>
			<rect x="134.219" y="120.999" style="fill:#1B1C1C;" width="36" height="1"/>
			<rect x="136.219" y="103" style="fill:#646767;" width="4" height="17"/>
			<rect x="164.219" y="103" style="fill:#646767;" width="4" height="17"/>
			<rect x="138.219" y="100" style="fill:#989C9C;" width="27" height="1"/>
			<path style="fill:#FFE166;" d="M155.218,83.833c4.049-1.655,6.979-4.562,8.001-7.515V72l-22,9
				C142.876,85.049,149.145,86.318,155.218,83.833z"/>
		</g>
		<g>
			<g>
				<rect x="29" y="156" style="fill:#252626;" width="40.219" height="48"/>
				<path style="fill:#555858;" d="M61.219,70c0,1.105-0.895,2-2,2H39c-1.105,0-2-0.895-2-2v-4c0-1.105,0.895-2,2-2h20.219
					c1.105,0,2,0.895,2,2V70z"/>
				<path style="fill:#010101;" d="M73.219,204c0,2.209-1.791,4-4,4H29c-2.209,0-4-1.791-4-4v-18c0-2.209,1.791-4,4-4h40.219
					c2.209,0,4,1.791,4,4V204z"/>
				<path style="fill:#F0BB6A;" d="M77.219,208c0,2.209-1.791,4-4,4H25c-2.209,0-4-1.791-4-4v-18c0-2.209,1.791-4,4-4h48.219
					c2.209,0,4,1.791,4,4V208z"/>
				<rect x="21" y="190" style="fill:#FFC91D;" width="56.219" height="100"/>
				<rect x="29" y="190" style="fill:#FFE166;" width="10" height="100"/>
				<rect x="59.219" y="190" style="fill:#FFE166;" width="10" height="100"/>
				<rect x="35" y="156" style="fill:#555858;" width="6" height="26"/>
				<rect x="57.219" y="156" style="fill:#555858;" width="6" height="26"/>
				<rect x="29" y="154" style="fill:#010101;" width="40.219" height="2"/>
				<path style="fill:#252626;" d="M29.002,155.002h40.219c-5.221-38.11-7.422-44.129-8.119-73H37.117
					C36.422,110.873,34.221,116.892,29.002,155.002z"/>
				<g>
					<path style="fill:#555858;" d="M41.17,82.001c-0.529,28.871-2.201,32.891-6.168,71h6c2.715-38.11,3.857-42.129,4.221-71H41.17z
						"/>
					<path style="fill:#555858;" d="M57.051,82.001H53c0.361,28.871,1.506,32.891,4.221,71h6
						C59.254,114.892,57.58,110.873,57.051,82.001z"/>
				</g>
				<rect x="37" y="66" style="fill:#010101;" width="24.219" height="16"/>
				<rect x="39" y="66" style="fill:#555858;" width="4" height="14"/>
				<rect x="55.219" y="66" style="fill:#555858;" width="4" height="14"/>
			</g>
			<g>
				<rect x="45" y="34" style="fill:#ABB0B0;" width="8" height="26"/>
				<rect x="47" y="34" style="fill:#555858;" width="4" height="26"/>
			</g>
			<g>
				<polygon style="fill:#ABB0B0;" points="55,64 43,64 45,60 53,60 				"/>
				<polygon style="fill:#808685;" points="53,64 45,64 47,60 51,60 				"/>
			</g>
			<rect x="47" y="30" style="fill:#010101;" width="4" height="4"/>
		</g>
	</g>
</g>
</svg>
