<?xml version="1.0" encoding="iso-8859-1"?>
<!-- Generator: Adobe Illustrator 14.0.0, SVG Export Plug-In . SVG Version: 6.00 Build 43363)  -->
<!DOCTYPE svg PUBLIC "-//W3C//DTD SVG 1.1//EN" "http://www.w3.org/Graphics/SVG/1.1/DTD/svg11.dtd">
<svg version="1.1" id="Layer_1" xmlns="http://www.w3.org/2000/svg" xmlns:xlink="http://www.w3.org/1999/xlink" x="0px" y="0px"
	 width="650.97px" height="512.002px" viewBox="0 0 650.97 512.002" style="enable-background:new 0 0 650.97 512.002;"
	 xml:space="preserve">
<g id="chameleon">
	<g id="brush">
		<path style="fill:#28272A;" d="M566.495,297.93c7.93-1.652,8.26-10.573,6.938-14.538c-1.059-3.18,10.615-2.535,15.29-2.155
			c-24.498-13.548-51.967-18.661-51.967-18.661l-3.634,12.886c0,0,2.313,5.617,16.52,17.513c3.075,2.574,7.405,4.823,12.332,6.781
			C562.594,299.095,563.943,298.461,566.495,297.93z"/>
		<path id="paint" style="fill:#3498DB;" d="M600.731,288.034c-3.928-2.847-8.248-5.72-12.491-8.065
			c-4.884-0.398-16.917-0.778-15.811,2.543c1.38,4.142,1.034,13.461-7.249,15.187c-2.665,0.556-5.008,1.58-5.654,2.271
			c12.639,9.817,43.336,9.84,45.771,10.922c3.105,1.38,4.202,7.76,8.344,11.902c4.143,4.142,17.464,4.934,17.809,0.793
			C631.795,319.444,628.343,308.053,600.731,288.034z"/>
		<path style="fill:#2D82BD;" d="M621.971,313.514c-3.286,8.214-13.141,2.627-14.455-3.779c-1.315-6.407-9.692-9.692-17.413-8.871
			s-16.429-2.135-14.622-7.721c1.418-4.38,0.211-10.463-0.377-12.889c-1.89,0.417-3.053,1.119-2.674,2.257
			c1.38,4.142,1.034,13.461-7.249,15.187c-2.665,0.556-5.008,1.58-5.654,2.271c12.639,9.817,43.336,9.84,45.771,10.922
			c3.105,1.38,4.202,7.76,8.344,11.902c4.143,4.142,17.464,4.934,17.809,0.793c0.188-2.245-0.752-6.626-6.039-13.351
			C623.884,310.776,622.645,311.83,621.971,313.514z"/>
		<path style="fill:#7A6F68;" d="M452.91,258.011c0.394-3.894,1.377-7.187,2.475-8.706c-67.697-3.291-143.455,9.368-219.542,36.735
			c-38.283,13.769-74.535,34.284-107.751,60.974c-26.497,21.291-51.126,46.534-73.205,75.03C20.072,466.98,2.908,505.233,0,512.002
			h20.28c6.69-13.96,22.678-44.471,49.176-78.669c33.251-42.917,90.192-100.301,172.625-129.95
			c74.881-26.934,147.405-38.834,211.719-35.948C452.878,265.912,452.483,262.238,452.91,258.011z"/>
		<path style="fill:#665B56;" d="M450.918,254.456c-65.854-2.094-141.81,10.54-215.22,36.944
			c-38.282,13.77-74.535,34.284-107.751,60.974c-26.497,21.291-51.126,46.535-73.205,75.031
			c-27.79,35.867-44.322,69.857-51.346,84.598h11.889c6.691-13.96,22.679-46.871,49.176-81.07
			c33.251-42.917,90.192-100.3,172.625-129.949c74.881-26.934,147.405-38.834,211.719-35.948c-0.923-1.523,0.715-4.573,1.143-8.8
			C449.99,255.816,450.863,254.859,450.918,254.456z"/>
		<path style="fill:#544B47;" d="M453.06,259.833c-65.853-2.095-138.956,7.563-212.366,33.969
			c-38.283,13.769-74.536,34.283-107.752,60.974c-26.497,21.29-51.126,46.534-73.205,75.03
			c-27.79,35.867-44.322,67.457-51.346,82.197H20.28c6.69-13.96,22.678-44.471,49.176-78.669
			c33.251-42.917,90.192-100.301,172.625-129.95c74.881-26.934,147.405-38.834,211.719-35.948
			C452.878,265.912,453.005,260.235,453.06,259.833z"/>
		<path style="fill:#6C6C69;" d="M538.528,270.749c1.36-3.829,0.997-6.433,0.696-8.442c-25.341-7.056-52.715-11.577-81.659-13.389
			c-2.065-0.128-4.14-0.239-6.22-0.34c-1.173,1.626-2.228,5.152-2.649,9.319c-0.456,4.525-0.033,8.459,0.954,10.091
			c29.284,1.313,57.572,2.686,83.191,9.713C534.452,276.784,536.951,275.184,538.528,270.749z"/>
		<path style="fill:#E9EAE9;" d="M537.671,266.762c-27.654-9.215-72.944-12.047-86.177-12.699c-0.3,1.254-0.539,2.66-0.69,4.158
			c-0.124,1.229-0.172,2.401-0.164,3.497c14.703,0.178,58.467,1.442,85.52,10.037c0.241-0.5,0.472-1.042,0.684-1.64
			C537.284,268.874,537.531,267.771,537.671,266.762z"/>
		
			<ellipse transform="matrix(0.6723 0.7403 -0.7403 0.6723 439.4614 -360.0526)" style="fill:#FFFFFF;" cx="626.389" cy="316.319" rx="3.122" ry="1.47"/>
		<polygon style="fill:#FFE17D;" points="491.367,267.39 528.917,274.547 530.915,273.049 		"/>
		<polygon style="fill:#FFE17D;" points="492.005,253.979 453.803,249.832 451.805,251.33 		"/>
	</g>
	<path id="body" style="fill:#6BB581;" d="M503.462,175.397c-2.587-13.258-30.071-86.011-47.532-100.885
		c-17.461-14.875-63.052-16.491-69.195-26.515c-6.145-10.024-21.989-32.981-32.66-32.658c-10.67,0.323-11.963,1.617-15.844,15.197
		c-1.346,4.713-4.681,16.48-8.431,30.331c-1.004-0.6-1.037-0.467-0.105,0.387c-0.008,0.027-0.014,0.054-0.021,0.081
		c-0.164,0.007-0.339,0.016-0.517,0.024c-1.766-1.069-2.073-1.053-0.909,0.048c-0.244,0.014-0.5,0.029-0.766,0.045
		c-1.851-1.061-2.219-1.037-1.093,0.072c-0.291,0.02-0.592,0.042-0.904,0.065c-1.936-1.05-2.364-1.016-1.268,0.1
		c-0.336,0.027-0.681,0.057-1.037,0.088c-2.024-1.036-2.511-0.991-1.44,0.133c-0.379,0.036-0.767,0.075-1.164,0.115
		c-2.114-1.02-2.656-0.962-1.603,0.171c-0.42,0.046-0.85,0.095-1.288,0.146c-2.206-1.002-2.8-0.93-1.759,0.214
		c-0.459,0.058-0.927,0.118-1.404,0.181c-2.3-0.981-2.945-0.894-1.911,0.261c-0.499,0.07-1.004,0.143-1.518,0.219
		c-2.394-0.958-3.088-0.853-2.056,0.312c-0.535,0.084-1.076,0.171-1.626,0.261c-2.488-0.931-3.228-0.806-2.189,0.37
		c-0.568,0.099-1.144,0.201-1.727,0.306c-2.587-0.903-3.371-0.757-2.321,0.432c-0.602,0.114-1.209,0.232-1.824,0.354
		c-2.684-0.871-3.511-0.703-2.447,0.497c-0.633,0.132-1.272,0.268-1.917,0.407c-2.781-0.834-3.646-0.643-2.563,0.568
		c-0.661,0.15-1.33,0.305-2.004,0.463c-2.879-0.796-3.782-0.579-2.671,0.645c-0.689,0.17-1.384,0.344-2.085,0.523
		c-2.979-0.755-3.918-0.51-2.779,0.724c-0.715,0.191-1.436,0.387-2.162,0.586c-3.077-0.709-4.049-0.436-2.876,0.808
		c-0.741,0.213-1.485,0.431-2.236,0.654c-3.174-0.659-4.175-0.355-2.963,0.9c-0.763,0.236-1.529,0.477-2.301,0.723
		c-3.276-0.607-4.305-0.271-3.049,0.995c-0.782,0.261-1.569,0.526-2.36,0.797c-3.375-0.551-4.432-0.182-3.129,1.093
		c-0.802,0.286-1.608,0.578-2.418,0.875c-3.471-0.489-4.552-0.085-3.2,1.197c-0.82,0.313-1.645,0.632-2.473,0.957
		c-3.566-0.424-4.667,0.018-3.259,1.308c-0.835,0.341-1.674,0.688-2.515,1.042c-3.668-0.356-4.79,0.124-3.32,1.421
		c-0.85,0.37-1.701,0.746-2.556,1.129c-3.763-0.283-4.903,0.236-3.375,1.538c-0.862,0.401-1.727,0.809-2.595,1.223
		c-3.854-0.206-5.006,0.355-3.414,1.661c-0.874,0.433-1.749,0.872-2.626,1.318c-3.948-0.123-5.114,0.481-3.45,1.791
		c-0.881,0.465-1.764,0.937-2.649,1.417c-4.045-0.037-5.223,0.612-3.486,1.923c-0.889,0.499-1.779,1.005-2.671,1.52
		c-4.133,0.054-5.319,0.749-3.513,2.058c-0.895,0.535-1.792,1.078-2.689,1.629c-4.219,0.151-5.408,0.894-3.522,2.201
		c-0.896,0.569-1.792,1.146-2.69,1.731c-4.342,0.25-5.543,1.048-3.552,2.36c-0.45,0.304-0.9,0.604-1.35,0.912
		c-0.443,0.303-0.87,0.616-1.31,0.921c-4.447,0.35-5.636,1.186-3.519,2.474c-0.872,0.623-1.738,1.247-2.599,1.876
		c-4.495,0.429-5.65,1.285-3.418,2.534c-0.846,0.637-1.686,1.277-2.521,1.92c-4.538,0.509-5.657,1.384-3.314,2.591
		c-0.821,0.651-1.637,1.306-2.446,1.963c-4.58,0.589-5.665,1.483-3.21,2.646c-0.795,0.665-1.585,1.333-2.368,2.004
		c-4.619,0.669-5.668,1.582-3.106,2.7c-0.769,0.679-1.533,1.36-2.291,2.044c-4.655,0.75-5.669,1.68-3.001,2.752
		c-0.743,0.692-1.48,1.386-2.212,2.083c-4.688,0.833-5.666,1.779-2.894,2.801c-0.717,0.704-1.429,1.411-2.133,2.12
		c-4.72,0.915-5.661,1.877-2.789,2.849c-0.689,0.715-1.375,1.434-2.054,2.155c-4.748,0.998-5.653,1.975-2.682,2.895
		c-0.663,0.728-1.322,1.457-1.974,2.189c-4.772,1.08-5.642,2.073-2.574,2.938c-0.637,0.738-1.268,1.479-1.893,2.222
		c-4.796,1.164-5.629,2.17-2.466,2.979c-0.61,0.749-1.213,1.499-1.812,2.252c-4.816,1.248-5.612,2.268-2.357,3.019
		c-0.583,0.759-1.158,1.519-1.729,2.282c-4.833,1.332-5.592,2.365-2.247,3.057c-0.555,0.768-1.104,1.538-1.647,2.31
		c-4.847,1.416-5.569,2.461-2.137,3.093c-0.527,0.777-1.049,1.556-1.564,2.337c-4.86,1.5-5.543,2.556-2.025,3.126
		c-0.5,0.786-0.994,1.572-1.481,2.361c-4.868,1.584-5.515,2.652-1.914,3.159c-0.472,0.793-0.938,1.588-1.397,2.385
		c-4.874,1.669-5.482,2.746-1.802,3.188c-0.444,0.801-0.882,1.604-1.313,2.407c-4.876,1.753-5.447,2.84-1.689,3.216
		c-0.415,0.808-0.824,1.617-1.227,2.427c-4.878,1.838-5.41,2.934-1.576,3.242c-0.386,0.814-0.767,1.629-1.142,2.447
		c-4.873,1.922-5.368,3.025-1.461,3.266c-0.358,0.82-0.709,1.642-1.055,2.464c-4.869,2.006-5.324,3.116-1.345,3.287
		c-0.33,0.826-0.653,1.653-0.97,2.481c-4.86,2.09-5.275,3.208-1.229,3.307c-0.3,0.831-0.595,1.662-0.882,2.495
		c-4.85,2.174-5.226,3.297-1.114,3.326c-0.271,0.835-0.535,1.671-0.794,2.508c-4.834,2.257-5.171,3.386-0.997,3.341
		c-0.241,0.839-0.478,1.679-0.706,2.519c-4.818,2.341-5.116,3.475-0.879,3.356c-0.212,0.842-0.417,1.686-0.617,2.53
		c-4.796,2.424-5.053,3.562-0.76,3.368c-0.183,0.845-0.358,1.691-0.529,2.538c-4.772,2.507-4.989,3.648-0.64,3.378
		c-0.154,0.848-0.3,1.696-0.439,2.545c-4.747,2.588-4.923,3.732-0.521,3.386c-0.122,0.85-0.239,1.7-0.348,2.551
		c-4.718,2.67-4.854,3.816-0.401,3.392c-0.091,0.852-0.177,1.703-0.256,2.555c-4.688,2.752-4.781,3.898-0.281,3.396
		c-0.062,0.853-0.116,1.705-0.165,2.558c-4.651,2.832-4.705,3.98-0.158,3.399c-0.031,0.853-0.056,1.705-0.073,2.558
		c-4.613,2.912-4.625,4.061-0.036,3.399c0,0.429-0.017,0.857-0.013,1.286c0.485,63.538,31.526,183.823,129.501,192.554
		s108.646-75.663,101.854-97.975c-6.79-22.311-28.616-51.897-69.358-45.592s-46.077,44.137-41.227,62.567
		c4.85,18.432,25.706,35.407,49.473,29.587c23.766-5.82,24.251-37.347,11.64-43.652c-12.61-6.305-22.796-3.395-25.706,0.485
		s2.183,4.607,5.82,3.88s16.248-0.728,16.006,10.671c-0.243,11.397-8.003,19.4-24.251,14.308
		c-16.248-5.093-21.341-27.161-13.823-43.409c7.518-16.248,36.134-23.281,51.412-12.61c15.278,10.67,24.979,42.682,8.73,64.993
		c-16.248,22.311-60.385,26.031-92.72,11.479s-54.324-59.497-47.856-100.563c0,0,23.281,5.176,35.245-0.969
		c0,0-7.436,10.346-5.496,15.843c1.94,5.497,40.42-10.99,44.946-20.046c1.616-10.673,0.324-16.493-1.294-17.463
		c-1.616-0.97-12.059-10.736-20.041-11.975c0,0,21.011-2.088,33.622-8.071c12.611-5.983,17.946-12.127,17.946-12.127
		s6.305,3.072,15.682,1.617c9.378-1.455,42.36-7.276,43.653-5.982c1.293,1.294,1.78,9.539,0.001,12.125c0,0-1.337,4.409,2.515,4.636
		c3.853,0.226,12.237,0.226,13.144-3.399c0,0,1.36,1.813,4.532,2.04c3.173,0.226,10.198,0.225,10.878-2.269
		c0.073-0.269,0.142-0.715,0.2-1.287c4.445,0.952,13.281-1.276,15.615-4.247c3.396,0.728,12.368,1.698,14.309-3.638
		c1.939-5.335-1.698-19.401-4.608-22.796s-22.068,0.485-22.068,0.485l-23.281-6.063c2.497-1.308,3.649-3.139,4.179-4.667
		c0.936-0.3,2.098-0.693,3.49-1.182c0.715,0.083,1.443,0.166,2.186,0.25c-5.54,2.854-4.579,2.961,2.728,0.301
		c0.769,0.083,1.549,0.166,2.339,0.248c-5.21,2.882-4.191,2.985,2.887,0.292c0.009,0.001,0.018,0.001,0.026,0.002
		c0.802,0.079,1.612,0.157,2.429,0.233c-4.88,2.904-3.822,3,3.001,0.273c0.032,0.002,0.065,0.005,0.098,0.008
		c0.806,0.071,1.616,0.14,2.431,0.207c-4.558,2.92-3.476,3.006,3.067,0.242c0.845,0.063,1.691,0.125,2.538,0.183
		c0.009,0,0.018,0.001,0.027,0.002c-4.247,2.93-3.159,3,3.086,0.199c0.854,0.052,1.709,0.1,2.56,0.145
		c-3.951,2.931-2.874,2.982,3.059,0.146c0.005,0,0.011,0,0.017,0c0.838,0.036,1.67,0.067,2.498,0.094
		c-3.677,2.921-2.626,2.95,2.981,0.08c0.818,0.017,1.629,0.029,2.433,0.036c-3.428,2.902-2.422,2.904,2.857,0.004
		c0.007,0,0.015,0,0.015,0c0.779-0.005,1.542-0.016,2.294-0.032c-3.208,2.871-2.262,2.842,2.687-0.084
		c0.362-0.015,0.725-0.031,1.08-0.05c0.356-0.019,0.725-0.042,1.087-0.063c-3,2.833-2.061,2.772,2.667-0.175
		c0.748-0.054,1.505-0.114,2.271-0.178c-2.684,2.786-1.696,2.697,2.801-0.252c0.004,0,0.007-0.001,0.007-0.001
		c0.783-0.075,1.569-0.154,2.361-0.238c-2.37,2.735-1.35,2.622,2.897-0.32c0.807-0.094,1.617-0.191,2.432-0.292
		c-2.062,2.68-1.021,2.546,2.955-0.379c0.015-0.002,0.03-0.004,0.045-0.006c0.791-0.105,1.583-0.214,2.377-0.325
		c0.016-0.002,0.033-0.004,0.049-0.007c-1.741,2.598-0.7,2.448,2.959-0.427c0.014-0.002,0.028-0.004,0.041-0.007
		c0.814-0.121,1.626-0.244,2.437-0.37c-1.456,2.541-0.422,2.376,2.939-0.467c0.818-0.133,1.633-0.269,2.443-0.406
		c-1.188,2.482-0.175,2.307,2.88-0.499c0.779-0.138,1.55-0.276,2.317-0.417c0.021-0.003,0.042-0.007,0.063-0.011
		c-0.941,2.425,0.037,2.242,2.781-0.52c0.769-0.147,1.528-0.294,2.28-0.442c0,0,0,0,0,0c-0.716,2.368,0.215,2.181,2.646-0.532
		c0.718-0.147,1.424-0.295,2.119-0.442c0.011-0.002,0.021-0.005,0.033-0.007c-0.521,2.315,0.348,2.126,2.472-0.536
		c0.674-0.149,1.333-0.297,1.979-0.445c0.003-0.001,0.007-0.002,0.007-0.002c-0.354,2.264,0.44,2.078,2.262-0.53
		c0.613-0.147,1.21-0.293,1.792-0.438c-0.228,2.217,0.479,2.037,2.008-0.515c0.002-0.001,0.004-0.001,0.004-0.001
		c0.538-0.142,1.056-0.281,1.555-0.418c0.003,0,0.005-0.001,0.005-0.001c-0.135,2.176,0.47,2.004,1.719-0.49
		c0.456-0.135,0.892-0.267,1.306-0.397c-0.09,2.143,0.399,1.982,1.388-0.456c0.36-0.125,0.698-0.247,1.013-0.365
		c-0.088,2.116,0.272,1.97,1.021-0.414c0.001,0,0.001,0,0.001,0c0.255-0.112,0.482-0.22,0.685-0.325c0.001,0,0.002,0,0.003-0.001
		c-0.137,2.102,0.08,1.973,0.615-0.366c0.059-0.042,0.135-0.085,0.183-0.125c0.115-0.095,0.254-0.224,0.41-0.374
		c4.262-4.103,7.955-8.95,11.699-13.512c7.432-8.958,16.008-19.589,19.23-23.597c0.838-1.041,1.32-1.643,1.32-1.643
		S506.048,188.655,503.462,175.397z M337.464,237.315c0.027-0.139,0.046-0.269,0.063-0.396c0.202,0.024,0.396,0.048,0.601,0.073
		C337.889,237.107,337.681,237.21,337.464,237.315z"/>
	<g id="shadow">
		<ellipse style="opacity:0.13;" cx="404.599" cy="115.618" rx="42.763" ry="41.672"/>
		<path style="opacity:0.4;" d="M367.928,156.882c-1.299-0.434-7.578,3.031-8.66,6.278c-1.082,3.247,4.547-2.598,7.795-0.866
			c3.247,1.732,11.474,13.206,20.35,16.02c7.878,2.498,83.276,10.452,101.353,12.21c1.108-1.377,1.764-2.193,1.764-2.193
			s-84.063-8.501-98.136-11.532S369.227,157.315,367.928,156.882z"/>
		<path style="opacity:0.07;" d="M469.672,158.907c2.667-0.667-3.073-10.671-5.174-10.994c-2.102-0.324-8.406,5.012-6.79,6.467
			S467.731,159.392,469.672,158.907z"/>
		<path style="opacity:0.4;" d="M463.913,154.577c2.667-0.666,2.686-6.341,0.585-6.664c-2.102-0.324-8.406,5.012-6.79,6.467
			S461.973,155.062,463.913,154.577z"/>
		<path style="opacity:0.4;" d="M367.897,153.895c-1.717,0.936-12.368,1.212-12.61,3.638c-0.242,2.425-4.123-2.91,0.242-4.608
			S370.565,152.439,367.897,153.895z"/>
		<path style="opacity:0.04;" d="M257.242,255.395c12.007-14.118,22.916-33.075,24.266-47.565
			c-0.634-11.179-3.097-19.499-3.097-19.499s0.485,12.125-11.64,24.736c-12.126,12.61-38.802,12.61-39.772,23.281
			c-0.599,6.591-6.622,26.31-11.142,40.429C225.593,274.29,246.775,267.703,257.242,255.395z"/>
		<path style="opacity:0.13;" d="M210.837,292.115c0,0,21.011-2.088,33.622-8.071c12.611-5.983,17.946-12.127,17.946-12.127
			s0.002-1.196,0.896-4.207c-15.914,13.098-40.23,17.587-50.658,18.965C211.536,290.038,210.837,292.115,210.837,292.115z"/>
		<path style="opacity:0.07;" d="M281.508,207.83c-1.35,14.491-12.258,33.447-24.266,47.565
			c-10.467,12.308-31.649,18.895-41.385,21.382c-1.229,3.839-2.346,7.264-3.213,9.897c10.427-1.378,34.744-5.867,50.658-18.965
			c1.266-4.265,4.322-12.178,11.714-25.541C281.101,231.168,282.1,218.255,281.508,207.83z"/>
		<path style="opacity:0.13;" d="M141.852,307.855c-4.26,1.354-3.776,7.546-1.834,13.372c2.163,6.489,4.788,31.513,19.955,47.101
			c-3.608-13.432-4.679-27.737-2.495-41.604C157.478,326.724,139.255,328.279,141.852,307.855z"/>
		<path style="opacity:0.07;" d="M184.316,306.676c1.107-10.243,9.795-38.958,12.271-47.008
			c-3.817,5.897-10.451,16.699-14.211,25.99c-4.962,12.261-12.554,35.845-1.375,42.933c2.685-0.2,5.317-0.603,7.718-1.291
			c1.145-0.721,2.467-1.25,4.004-1.545C192.723,325.755,183.024,318.64,184.316,306.676z"/>
		<path style="opacity:0.04;" d="M182.376,285.659c3.761-9.291,10.395-20.093,14.211-25.99c0.416-1.352,0.663-2.141,0.663-2.141
			s-5.821,3.233-9.055,8.407c-3.233,5.174-30.071,45.592-40.417,42.358c-2.579-0.805-4.513-0.888-5.927-0.438
			c-2.597,20.424,15.626,18.869,15.626,18.869s12.234,2.715,23.523,1.867C169.822,321.503,177.414,297.919,182.376,285.659z"/>
		<g style="opacity:0.07;">
			<path d="M181.4,457.548c4.582-0.161,9.373-2.528,10.764-3.472c2.671-1.768,3.117-4.219,2.779-7.368
				c-3.38,0.045-4.95-0.174-6.744,0.922c-0.979,0.549-4.045,2.187-7.463,2.333c-3.346,0.254-6.54-0.271-6.529-0.3
				c-0.063,0.441-5.468-1.323-9.658-3.143c4.915,4.099,10.148,7.817,15.718,11.088C180.641,457.594,181.017,457.577,181.4,457.548z"
				/>
			<path d="M265.476,328.366c-1.411,0.848-2.537,1.758-2.833,2.473c-1.112,1.304-1.187,2.513-0.966,4.032
				c1.342-0.495,2.063-0.676,2.917-1.438c0.507-0.663,1.702-1.409,3.069-2.221c1.188-0.678,2.701-1.456,3.933-1.878
				c0.797-0.283,1.383-0.426,1.51-0.35c0.184-0.149,1.015-0.259,1.989-0.323c0.771-0.075,1.88-0.111,3.044-0.104
				C274.164,328.086,269.939,328.012,265.476,328.366z"/>
			<path d="M313.42,354.399c1.207,0.553,2.424,1.29,3.989,1.93c1.186,0.548,3.081,1.4,4.458,2.518
				c0.443,0.343,0.793,0.649,1.037,0.897c-1.601-2.808-3.434-5.584-5.497-8.263c-0.633-0.179-1.179-0.273-1.553-0.239
				c-1.707-0.238-2.833,0.295-4,1.252C312.523,353.301,312.751,353.906,313.42,354.399z"/>
			<path d="M328.19,384.424c-1.341-1.087-2.598-1.253-4.081-1.059c-0.033,0.895-0.309,1.489-0.223,2.227
				c0.788,1.399,1.392,2.702,2.482,4.063c0.746,1.036,2.112,2.852,2.792,4.742c0.324,0.836,0.526,1.535,0.554,1.908
				c0.281,0.795,0.438,1.877,0.496,2.523c0.018,0.063,0.034,0.152,0.05,0.238c0.532-4.159,0.751-8.084,0.713-11.638
				C329.948,385.944,328.88,384.793,328.19,384.424z"/>
			<path d="M238.815,339.199c-0.296,1.684,0.281,2.73,1.267,3.927c0.943-1.343,1.433-2.021,1.702-3.332
				c-0.296-1.299,2.322-5.088,3.734-6.703c-2.03,0.883-3.928,1.867-5.702,2.939C239.126,337.308,238.68,338.488,238.815,339.199z"/>
			<path d="M296.626,334.048c-2.408,0-4.737,0.387-5.555,1.026c-1.584,0.66-2.243,1.698-2.747,3.133
				c1.203,0.261,1.815,0.546,2.783,0.442c1.037-0.249,2.448-0.301,4.08-0.476c1.332-0.098,3.217-0.217,4.736,0.007
				c0.856,0.11,1.485,0.254,1.65,0.39c0.432,0.012,1.301,0.323,2.099,0.664c0.801,0.277,2.195,0.95,3.592,1.718
				C304.059,338.325,300.51,335.992,296.626,334.048z"/>
			<path d="M223.689,465.285c1.193-1.276,1.653-2.587,1.667-4.023c-0.122-0.997-0.458-2.091-0.979-3.212
				c-2.973,0.803-4.51,1.016-5.992,2.417c-0.868,0.746-3.354,2.872-6.421,3.74c-0.933,0.298-1.844,0.519-2.631,0.666
				c-1.85,0.387-3.362,0.492-3.468,0.476c-0.187,0.575-10.762-0.515-13.881-1.805c-0.241-0.097-0.44-0.194-0.591-0.292
				c-0.206-0.082-0.399-0.138-0.595-0.19c7.496,3.383,15.532,5.992,24.139,7.694C218.965,469.47,222.665,466.463,223.689,465.285z"
				/>
			<path d="M310.961,444.525c0.176-0.967,0.24-1.769,0.188-2.256c0.026-1.733-0.574-2.899-1.597-3.956
				c-0.733,0.052-1.506-0.094-2.273,0.024c-1.04,1.923-1.83,3.163-2.133,4.997c-0.269,1.191-0.792,3.809-2.111,5.906
				c-0.472,0.801-0.939,1.466-1.3,1.871c-0.72,1.038-1.593,1.946-1.912,2.238c-0.409,0.926-7.179,5.939-9.657,6.803
				c-0.203,0.081-0.381,0.144-0.534,0.187c-1.555,0.653-2.105,1.77-3.369,3.437C296.536,458.75,304.639,452.049,310.961,444.525z"/>
			<path d="M325.683,417.023c-0.682-1.59-1.711-2.365-3.095-2.897c-0.548,0.562-1.19,0.852-1.649,1.408
				c-0.06,1.893-0.203,3.336,0.199,5.092c0.208,1.23,0.687,3.653,0.373,5.876c-0.103,0.906-0.253,1.662-0.409,2.092
				c-0.054,0.313-0.129,0.631-0.211,0.939c2.029-3.948,3.71-7.961,5.071-11.946C325.868,417.362,325.774,417.171,325.683,417.023z"
				/>
			<path d="M251.128,472.804c2.042-1.6,3.593-3.35,4.113-4.209c0.993-1.433,1.219-2.776,1.001-4.206
				c-0.388-0.768-0.903-1.641-1.587-2.438c-2.528,1.154-3.97,1.642-5.236,3.16c-0.796,0.857-2.862,3.128-5.555,4.334
				c-0.866,0.42-1.698,0.751-2.378,0.971c-1.575,0.586-2.972,0.892-3.186,0.914c-0.354,0.58-10.238,1.015-13.267,0.243
				c-0.238-0.055-0.44-0.116-0.6-0.182c-1.27-0.29-2.221-0.039-3.424,0.39c2.128,0.306,4.279,0.577,6.475,0.772
				C236.017,473.315,243.874,473.355,251.128,472.804z"/>
			<path d="M285.842,459.882c0.573-1.641,0.404-2.966-0.21-4.289c-0.645-0.409-1.352-0.953-2.17-1.312
				c-1.861,1.64-3.063,2.529-3.905,4.252c-0.586,1.042-1.94,3.57-4.038,5.295c-0.71,0.625-1.395,1.137-1.929,1.467
				c-1.187,0.869-2.377,1.496-2.675,1.624c-0.433,0.702-9.143,3.533-12.019,3.581c-0.23,0.012-0.431,0.011-0.595-0.004
				c-1.659,0.099-2.564,0.923-4.166,2.044c10.87-1.1,20.313-3.579,28.477-7.084C284.376,463.272,285.578,460.931,285.842,459.882z"
				/>
		</g>
		<path style="opacity:0.04;" d="M367.918,183.258c-32.541-5.424-23.244,12.009-16.271,24.019
			c6.974,12.009,69.73,6.585,82.903-6.586C439.043,196.197,400.46,188.682,367.918,183.258z M397.637,199.453
			c-5.107,0.413-10.235,0.415-15.355,0.415c-9.041,0-20.571,0.799-23.195-10.392c-0.849-3.62,9.148-1.329,10.943-1.029
			c7.278,1.212,14.612,2.157,21.808,3.788C405.723,195.382,400.021,199.26,397.637,199.453z"/>
		<path style="opacity:0.07;" d="M420.037,181.541c-30.071-3.395-41.227-7.275-50.064-19.246
			c-8.839-11.971-39.664-21.981-47.91-23.436c-3.147-0.555-4.525,1.082-5.029,3.316c-1.36-5.881-2.239-10.863-2.407-13.986
			c-0.418-7.765,8.014-40.862,15.046-66.853c-2.298,0.104-5.98,0.339-10.806,0.875c-9.86,8.634-27.631,27.065-30.755,49.971
			c-4.365,32.012,34.437,77.604,41.227,96.52c1.446,4.028,2.12,7.792,2.289,11.222c-4.248,8.355-9.24,14.969-9.24,14.969
			c-1.416,7.465-9.234,15.651-9.234,15.651s34.673,2.946,37.618,6.798c2.628,3.437,2.73,17.324,2.239,22.055
			c4.445,0.952,13.281-1.276,15.615-4.247c3.396,0.728,12.368,1.698,14.309-3.638c1.939-5.335-1.698-19.401-4.608-22.796
			s-22.068,0.485-22.068,0.485l-23.281-6.063c2.497-1.308,3.649-3.139,4.179-4.667c0.936-0.3,2.098-0.693,3.49-1.182
			c0.715,0.083,1.443,0.166,2.186,0.25c-5.54,2.854-4.579,2.961,2.728,0.301c0.769,0.083,1.549,0.166,2.339,0.248
			c-5.21,2.882-4.191,2.985,2.887,0.292c0.009,0.001,0.018,0.001,0.026,0.002c0.802,0.079,1.612,0.157,2.429,0.233
			c-4.88,2.904-3.822,3,3.001,0.273c0.032,0.002,0.065,0.005,0.098,0.008c0.806,0.071,1.616,0.14,2.431,0.207
			c-1.425,0.913-2.299,1.548-2.626,1.907c-0.197,0.215-0.197,0.331-0.003,0.346c0.519,0.041,2.425-0.629,5.696-2.011h0.001
			c0.854,0.064,1.709,0.126,2.564,0.185c-4.247,2.93-3.159,3,3.086,0.199c0.854,0.052,1.709,0.1,2.56,0.145
			c-3.951,2.931-2.874,2.982,3.059,0.146c0.005,0,0.011,0,0.017,0c0.838,0.036,1.67,0.067,2.498,0.094
			c-1.378,1.096-2.093,1.784-2.151,2.066c-0.019,0.094,0.034,0.142,0.161,0.146c0.504,0.013,2.167-0.697,4.972-2.132h0.001
			c0.818,0.017,1.629,0.029,2.432,0.036c-3.428,2.902-2.422,2.904,2.857,0.004c0.007,0,0.015,0,0.015,0
			c0.779-0.005,1.542-0.016,2.294-0.032c-3.208,2.871-2.262,2.842,2.687-0.084c0.362-0.015,0.725-0.031,1.08-0.05
			c0.356-0.019,0.725-0.042,1.087-0.063c-3,2.833-2.061,2.772,2.667-0.175c0.748-0.054,1.505-0.114,2.271-0.178
			c-2.684,2.786-1.696,2.697,2.801-0.252c0.784-0.075,1.573-0.155,2.368-0.239c-0.74,0.854-1.149,1.431-1.233,1.73
			c-0.017,0.06-0.021,0.108-0.011,0.146c0.094,0.375,1.487-0.358,4.142-2.197c0.807-0.093,1.617-0.19,2.432-0.292
			c-2.062,2.68-1.021,2.546,2.955-0.379c0.299-0.04,0.599-0.082,0.896-0.123c0.508-0.069,1.016-0.137,1.525-0.208
			c0.016-0.002,0.033-0.004,0.049-0.007c-1.741,2.598-0.7,2.448,2.959-0.427c0.014-0.002,0.028-0.004,0.041-0.007
			c0.814-0.121,1.626-0.244,2.437-0.37c-1.456,2.541-0.422,2.376,2.939-0.467c0.818-0.133,1.633-0.269,2.443-0.406
			c-1.188,2.482-0.175,2.307,2.88-0.499c0.779-0.138,1.55-0.276,2.317-0.417c0.021-0.003,0.042-0.007,0.063-0.011
			c-0.941,2.425,0.037,2.242,2.781-0.52c0.77-0.147,1.529-0.294,2.281-0.442c-0.717,2.368,0.214,2.181,2.646-0.532
			c0.729-0.15,1.445-0.299,2.152-0.449c-0.521,2.315,0.348,2.126,2.472-0.536c0.677-0.15,1.339-0.299,1.988-0.448
			c-0.357,2.264,0.438,2.078,2.259-0.529c0.613-0.147,1.21-0.293,1.792-0.439v0.001c-0.028,0.277-0.042,0.517-0.042,0.719
			c0.002,0.81,0.235,1.02,0.683,0.635c0.336-0.289,0.794-0.912,1.367-1.869c0.54-0.142,1.062-0.283,1.565-0.422
			c-0.137,2.177,0.468,2.005,1.717-0.49c0.456-0.135,0.892-0.267,1.306-0.397c-0.09,2.143,0.399,1.982,1.388-0.456
			c0.36-0.125,0.698-0.247,1.013-0.365c-0.088,2.116,0.272,1.97,1.021-0.414c0.001,0,0.001,0,0.001,0
			c0.103-0.045,0.182-0.087,0.274-0.13c0.141-0.065,0.29-0.132,0.413-0.195c-0.137,2.102,0.08,1.973,0.615-0.366
			c0.059-0.042,0.135-0.085,0.183-0.125c0.114-0.094,0.252-0.222,0.406-0.371c0.016-0.014,0.034-0.033,0.049-0.047
			c0.149-0.144,0.293-0.295,0.44-0.44c2.085-2.144,6.391-7.213,11.18-12.985c0.012-0.014,0.023-0.028,0.034-0.042
			c2.303-2.775,4.714-5.71,7.043-8.56c0.044-0.054,0.089-0.109,0.134-0.163c0.39-0.478,0.777-0.953,1.162-1.424
			c0.096-0.117,0.191-0.234,0.286-0.351c0.315-0.387,0.626-0.769,0.936-1.149c0.146-0.18,0.295-0.362,0.439-0.54
			c0.227-0.277,0.447-0.549,0.669-0.823c3.7-4.552,6.871-8.484,8.562-10.586C476.371,187.515,443.812,184.225,420.037,181.541z
			 M337.464,237.315c0.027-0.139,0.046-0.269,0.063-0.396c0.202,0.024,0.396,0.048,0.601,0.073
			C337.889,237.107,337.681,237.21,337.464,237.315z M367.918,183.258c32.542,5.424,71.125,12.939,66.633,17.433
			c-13.173,13.171-75.93,18.595-82.903,6.586C344.674,195.267,335.377,177.834,367.918,183.258z M349.916,235.186
			c7.19-7.468,21.574-18.808,28.487-17.424C385.316,219.145,367.341,233.25,349.916,235.186z M375.915,235.739
			c7.19-7.468,21.573-18.808,28.487-17.424C411.315,219.698,393.34,233.803,375.915,235.739z M401.913,234.633
			c7.19-7.468,21.573-18.808,28.487-17.424C437.313,218.591,419.338,232.696,401.913,234.633z M429.57,230.761
			c7.191-7.468,21.574-18.808,28.487-17.424C464.972,214.719,446.995,228.824,429.57,230.761z"/>
	</g>
	<g id="highlight">
		<path style="opacity:0.5;fill:#FFFFD6;" d="M235.218,371.854c-1.511,5.217-1.697,11.358-0.212,17.635
			c3.552,15.02,15.292,25.101,26.225,22.517c4.051-0.958,7.416-3.527,9.874-7.137c-3.955,3.58-10.354,4.791-19.37,1.965
			C238.171,402.583,232.389,386.503,235.218,371.854z"/>
		<path style="opacity:0.5;fill:#FFFFD6;" d="M157.478,326.724c-6.467,41.065,5.012,87.628,48.665,108.969
			c31.855,15.573,75.664,2.425,91.912-19.886c-16.248,22.311-60.385,26.031-92.72,11.479S151.011,367.79,157.478,326.724z"/>
		<path style="opacity:0.3;fill:#FFFFD6;" d="M379.654,42.482c-5.739-10.154-17.648-24.405-23.279-22.528
			c-5.632,1.877-29.288,52.941-14.644,66.083c14.644,13.142,37.172-11.264,50.689-14.268c13.517-3.004,27.783-2.628,41.677,4.13
			s28.536,7.885,19.525-0.375c-9.012-8.261-43.553-15.77-52.941-18.398C391.294,54.498,384.536,51.117,379.654,42.482z"/>
		<path style="opacity:0.3;fill:#FFFFD6;" d="M411.517,61.492c-6.426-1.168-23.447-4.447-24.255-1.212
			c-0.809,3.234,44.467,8.085,39.616,6.063C422.028,64.321,415.963,62.3,411.517,61.492z"/>
		<path style="opacity:0.3;fill:#FFFFD6;" d="M192.337,197.09c0,0-10.592,32.258-0.963,23.592c9.63-8.667,20.702-26,31.776-20.703
			s5.296,23.592,4.333,23.592c-0.962,0-10.591-2.89-8.666-14.926c1.926-12.036-13.481-0.962-20.221,7.222
			C191.856,224.052,178.375,234.644,192.337,197.09z"/>
		<path style="opacity:0.3;fill:#FFFFD6;" d="M195.9,318.164c2.833-6.103,10.157-25.176,15.458-23.409
			c5.299,1.767,18.992,8.833,15.899,12.366C224.166,310.655,190.157,330.531,195.9,318.164z"/>
		<path style="opacity:0.3;fill:#FFFFD6;" d="M281.64,257.923c0,0,13.925-7.328,19.421-7.328c5.495,0,39.508,3.029,35.509,6.278
			C332.57,260.123,274.313,264.885,281.64,257.923z"/>
		<path style="opacity:0.3;fill:#FFFFD6;" d="M339.484,262.43c0,0,5.835-5.003,9.587-3.335c3.753,1.668,2.919,19.593-2.084,19.177
			C341.984,277.855,337.816,269.1,339.484,262.43z"/>
		<path style="opacity:0.3;fill:#FFFFD6;" d="M328.228,263.264c0,0,7.085-3.752,8.337,0.417c1.251,4.169,0.418,16.258-5.002,16.676
			C326.143,280.773,324.892,273.686,328.228,263.264z"/>
		<path style="opacity:0.3;fill:#FFFFD6;" d="M377.96,43.639c-2.759-9.199-15.477-22.762-20.94-16.389s-12.748,45.979-2.277,43.704
			S379.325,48.191,377.96,43.639z"/>
		<path style="opacity:0.5;fill:#FFFFD6;" d="M377.142,42.041c-1.487-4.959-8.345-12.273-11.291-8.836s-6.874,24.791-1.228,23.564
			C370.269,55.541,377.878,44.496,377.142,42.041z"/>
		<path style="opacity:0.3;fill:#FFFFD6;" d="M152.024,414.029c-1.368-4.217-3.416-10.827-5.674-19.102
			c-1.44,0.209-2.949,0.122-4.713-0.384c-2.156-0.591-8.499-3.001-13.574-6.427c-0.597-0.385-1.174-0.777-1.735-1.17
			c3.218,7.325,6.35,13.83,8.964,18.95c1.223,0.828,4.818,3.212,8.989,5.166C146.85,412.319,149.634,413.31,152.024,414.029z"/>
		<path style="opacity:0.3;fill:#FFFFD6;" d="M129.933,357.782c-1.991-0.851-7.777-4.013-12.159-8.036
			c-3.603-3.157-6.371-6.558-7.316-7.748c2.381,9.634,5.686,19.551,9.268,28.907c2.344,2.751,4.204,4.718,4.39,4.521
			c0.006-0.02,3.582,3.416,8.087,6.299c4.46,2.988,9.876,5.032,11.698,5.599c0.172,0.056,0.322,0.118,0.486,0.175
			c-2.218-8.684-4.503-18.682-6.464-29.396C135.249,358.98,132.891,359.099,129.933,357.782z"/>
		<path style="opacity:0.3;fill:#FFFFD6;" d="M143.091,418.897c3.669,3.494,9.941,5.941,11.091,3.561
			C151.494,421.875,147.182,420.664,143.091,418.897z"/>
		<path style="opacity:0.3;fill:#FFFFD6;" d="M230.3,140.99c-0.989-2.893-2.471-12.101-1.415-20.364
			c0.871-8.269,3.358-15.316,3.364-15.295c-0.001,0.007,1.604-5.161,4.371-11.127c-8.606,4.439-17.668,9.773-27.098,16.206
			c-2.613,6.405-3.907,12.482-3.914,12.473c-0.009-0.014-1.488,6.087-1.532,12.812c-0.178,6.749,1.676,13.78,2.582,15.987
			c1.526,4.145,1.561,6.823,1.727,11.565c-4.175-2.03-6.931-4.114-8.839-8.982c-1.14-2.586-3.321-10.932-3.083-18.646
			c0.074-7.7,1.76-14.407,1.761-14.39c0.002,0.004,0.274-1.284,0.815-3.314c-7.813,5.861-15.843,12.487-24.047,19.993
			c-0.868,4.083-1.182,7.185-1.191,7.179c0.006-0.012-0.726,5.708-0.088,11.853c0.536,6.178,2.938,12.407,3.96,14.349
			c1.79,3.648,1.978,6.148,2.401,10.612c-4.157-1.386-6.972-3-9.206-7.302c-1.284-2.281-4.145-9.744-4.729-16.886
			c-0.465-4.614-0.262-8.898-0.065-11.343c-8.733,8.638-16.263,17.356-22.74,26.073c-0.039,1.551-0.015,2.515-0.023,2.513
			c0.022-0.013,0.027,5.321,1.336,10.887c1.23,5.605,4.155,11.049,5.289,12.739c2.042,3.166,2.401,5.507,3.118,9.713
			c-4.1-0.747-6.943-1.891-9.485-5.625c-1.422-1.982-4.93-8.546-6.334-15.089c-0.411-1.774-0.704-3.505-0.917-5.091
			c-5.058,7.729-9.34,15.429-12.949,23.04c0.131,2.098,0.315,3.461,0.528,3.426c0.025-0.017,0.754,4.935,2.735,9.919
			c1.888,5.043,5.317,9.729,6.566,11.178c2.279,2.713,2.839,4.904,3.891,8.87c-4-0.129-6.847-0.806-9.673-3.989
			c-1.557-1.685-5.683-7.353-7.871-13.273c-0.545-1.388-1.003-2.759-1.388-4.047c-2.784,7.131-5.014,14.153-6.79,21.015
			c0.914,5.755,2.149,11.348,2.561,11.207c0.018-0.018,1.47,4.548,4.096,8.969c2.531,4.497,6.444,8.465,7.818,9.682
			c2.521,2.285,3.307,4.335,4.747,8.061c-3.869,0.458-6.693,0.228-9.793-2.422c-1.695-1.396-6.394-6.188-9.34-11.471
			c-1.612-2.737-2.815-5.464-3.601-7.437c-1.204,7.26-1.944,14.271-2.351,20.966c1.706,6.577,6.039,17.857,6.582,17.563
			c0.013-0.019,2.18,4.165,5.433,8.047c3.169,3.975,7.561,7.266,9.071,8.263c2.779,1.873,3.817,3.783,5.702,7.254
			c-3.722,1.004-6.503,1.187-9.881-0.947c-1.838-1.119-7.084-5.072-10.76-9.72c-3.782-4.547-6.191-9.297-6.208-9.275
			c-0.052,0.019-0.133-0.053-0.236-0.187c0.276,9.193,1.015,17.424,1.733,24.437c3.05,6.297,8.67,15.605,9.116,15.259
			c0.008-0.02,2.882,3.787,6.757,7.155c3.808,3.473,8.697,6.129,10.355,6.91c1.727,0.829,2.897,1.763,4.016,2.979
			c-4.854-28.275-7.151-60.823,0.089-87.016c13.194-47.734,55.577-99.809,96.342-119.466
			C232.188,145.771,231.1,143.756,230.3,140.99z"/>
		<path style="opacity:0.3;fill:#FFFFD6;" d="M261.437,133.566c-0.835-3.198-1.605-13.247,0.26-22.043
			c1.647-8.829,4.958-16.198,4.946-16.183c-0.006,0.007,2.982-7.478,7.572-14.915c0.386-0.652,0.786-1.302,1.19-1.949
			c-8.275,2.481-17.424,5.752-27.292,10.182c-1.088,1.87-2.175,3.843-3.15,5.811c-3.483,6.71-5.515,13.207-5.517,13.197
			c-0.014-0.019-2.242,6.46-2.989,13.763c-0.904,7.314,0.375,15.156,1.16,17.635c0.623,2.314,0.909,4.189,1.031,6.11
			c8.461-3.528,16.797-5.588,24.727-5.831c0.03-0.001,0.06-0.002,0.09-0.003C262.583,137.733,261.909,135.873,261.437,133.566z"/>
		<path style="opacity:0.5;fill:#FFFFD6;" d="M173.82,151.08c-0.124,0.119-0.245,0.24-0.369,0.359
			c-0.003,0.863,0.016,1.785,0.06,2.735c7.568-7.208,15.254-13.533,22.959-18.913c0.024-1.428,0.099-2.815,0.208-4.13
			C189.246,136.992,181.613,143.602,173.82,151.08z"/>
		<path style="opacity:0.5;fill:#FFFFD6;" d="M205.229,124.643c-0.249,1.285-0.57,3.186-0.812,5.412
			c8.316-5.101,16.617-9.082,24.781-11.884c0.612-4.218,1.557-7.928,2.234-10.259C223.096,112.51,214.334,118.016,205.229,124.643z"
			/>
		<g>
			<path style="opacity:0.3;fill:#FFFFD6;" d="M288.111,112.182c2.324-17.036,12.748-31.593,21.995-41.489
				c-6.057,1.092-13.971,2.408-23.443,4.725c-1.957,2.712-4.078,5.829-5.929,8.94c-4.334,7-7.103,13.886-7.1,13.877
				c0.005-0.016-3.008,6.823-4.455,14.704c-1.637,7.874-0.957,16.527-0.295,19.286c0.488,2.613,0.666,4.696,0.688,6.811
				c8.432-0.585,15.474-1.797,21.366-3.422C288.358,127.417,287.121,119.449,288.111,112.182z"/>
		</g>
		<path style="opacity:0.3;fill:#FFFFD6;" d="M288.111,112.182c1.837-13.465,8.735-25.38,16.113-34.672
			c-6.003,1.071-13.464,2.448-22.18,4.72c-0.446,0.707-0.886,1.417-1.31,2.129c-4.334,7-7.103,13.886-7.1,13.877
			c0.005-0.016-3.008,6.823-4.455,14.704c-0.914,4.399-1.105,9.04-0.98,12.762c7.617-0.712,14.238-2.027,19.792-3.902
			C287.675,118.492,287.69,115.273,288.111,112.182z"/>
		<path style="opacity:0.5;fill:#FFFFD6;" d="M296.48,88.821c0.415-1.56,0.783-2.999,1.103-4.303
			c-5.51,1.022-12.049,2.359-19.466,4.372c-2.796,5.163-4.483,9.352-4.482,9.345c0.005-0.016-2.76,6.272-4.265,13.735
			c9.173-1.471,16.184-4.029,20.345-7.398C291.3,98.956,293.679,93.674,296.48,88.821z"/>
		<path style="opacity:0.5;fill:#FFFFD6;" d="M166.239,158.714c-8.195,8.657-15.397,17.7-21.601,27.099
			c0.003,0.01,0.005,0.02,0.007,0.029c0.07,0.322,0.147,0.644,0.229,0.963c6.416-8.719,13.421-17.104,20.875-24.891
			c0.273-0.285,0.547-0.561,0.821-0.844C166.438,160.289,166.325,159.502,166.239,158.714z"/>
		<path style="opacity:0.5;fill:#FFFFD6;" d="M261.697,111.523c1.647-8.829,4.958-16.198,4.946-16.183
			c-0.002,0.002,0.539-1.353,1.509-3.473c-8.207,2.681-17.244,6.212-26.959,10.966c-1.129,2.876-1.745,4.839-1.746,4.833
			c-0.01-0.013-1.19,3.417-2.122,8.096c5.79-1.44,11.489-2.269,17.049-2.439c2.442-0.075,4.793-0.211,7.054-0.401
			C261.513,112.453,261.6,111.986,261.697,111.523z"/>
		<g style="opacity:0.5;">
			<g>
				<path style="fill:#FFFFD6;" d="M218.753,391.555c-4.85-18.431,2.333-49.188,43.074-55.493
					c40.742-6.305,60.721,16.207,67.511,38.518c-6.79-22.311-28.616-51.897-69.358-45.592S213.903,373.125,218.753,391.555z"/>
			</g>
		</g>
		<path style="opacity:0.3;fill:#FFFFD6;" d="M111.738,306.753c0.386,4.977,0.845,9.35,1.227,12.974
			c0.577,5.479,1.718,11.335,3.23,17.323c0.591,0.741,2.992,3.735,6.135,6.555c-1.408-9.558-2.469-19.48-2.959-29.423
			C117.059,312.36,114.092,309.703,111.738,306.753z"/>
		<path style="opacity:0.3;fill:#FFFFD6;" d="M143.566,202.669c-1.309-1.825-4.383-7.536-5.959-13.538
			c-4.885,7.973-9.104,16.186-12.648,24.625c0.413,1.551,0.96,3.33,1.67,5.117c1.888,5.043,5.317,9.729,6.566,11.178
			c0.724,0.861,1.262,1.672,1.71,2.502c4.093-8.486,8.918-16.98,14.322-25.265C147.032,206.449,145.232,205.117,143.566,202.669z"/>
		<path style="opacity:0.3;fill:#FFFFD6;" d="M196.463,135.619c0.04-4.137,0.544-7.976,1.004-10.651
			c-7.7,5.956-15.61,12.687-23.688,20.307c-0.112,1.002-0.638,6.156-0.067,11.664c0.536,6.178,2.938,12.407,3.96,14.349
			c0.019,0.039,0.032,0.075,0.051,0.113c6.731-6.994,13.808-13.455,21.09-19.175C197.669,148.549,196.27,141.877,196.463,135.619z"
			/>
		<path style="opacity:0.3;fill:#FFFFD6;" d="M124.111,354.547c-1.123-0.721-2.3-1.533-3.46-2.415
			c1.963,5.88,4.138,11.701,6.373,17.243C126.002,364.627,125.019,359.662,124.111,354.547z"/>
		<path style="opacity:0.3;fill:#FFFFD6;" d="M261.697,111.523c1.647-8.829,4.958-16.198,4.946-16.183
			c-0.005,0.005,1.81-4.533,4.776-10.05c-8.281,2.62-17.407,6.068-27.228,10.712c-3.008,6.132-4.743,11.672-4.745,11.664
			c-0.014-0.019-2.242,6.46-2.989,13.763c-0.394,3.179-0.373,6.456-0.16,9.35c7.709-2.709,15.392-4.297,22.9-4.526
			c0.473-0.014,0.934-0.036,1.4-0.055C260.431,121.885,260.641,116.504,261.697,111.523z"/>
		<path style="opacity:0.3;fill:#FFFFD6;" d="M118.021,258.803c1.42,2.522,3.274,4.878,4.872,6.675
			c0.356-1.532,0.732-3.055,1.146-4.553c2.048-7.408,4.829-15.028,8.234-22.696c-1.751-0.561-3.31-1.55-4.861-3.297
			c-1.293-1.4-4.356-5.549-6.611-10.308c-2.248,6.53-4.109,13.186-5.577,19.962c-0.415,1.912-0.791,3.812-1.136,5.698
			C114.534,251.539,115.891,255.218,118.021,258.803z"/>
		<path style="opacity:0.3;fill:#FFFFD6;" d="M170.867,174.599c-1.284-2.281-4.145-9.744-4.729-16.886
			c-0.163-1.62-0.242-3.197-0.269-4.672c-8.348,8.581-15.758,17.538-22.222,26.845c0.193,1.766,0.502,3.844,0.999,5.956
			c1.23,5.605,4.155,11.049,5.289,12.739c1.037,1.606,1.638,3.002,2.074,4.535c6.195-9.085,13.072-17.865,20.435-26.042
			C171.884,176.36,171.361,175.548,170.867,174.599z"/>
		<path style="opacity:0.3;fill:#FFFFD6;" d="M112.129,263.805c-1.096,10.088-1.335,19.565-1.148,28.057
			c0.551,1.229,0.958,1.962,1.102,1.884c0.013-0.019,2.18,4.165,5.433,8.047c0.495,0.62,1.021,1.222,1.561,1.804
			c-0.054-9.951,0.554-19.797,2.064-29.19c-0.116-0.093-0.231-0.182-0.348-0.282C119.222,272.831,115.074,268.62,112.129,263.805z"
			/>
		<path style="opacity:0.3;fill:#FFFFD6;" d="M368.969,251.098c0,0,5.792-2.438,7.316-1.219s6.402,18.594,2.134,20.12
			C374.151,271.522,366.53,269.083,368.969,251.098z"/>
		<path style="opacity:0.3;fill:#FFFFD6;" d="M354.946,257.194c0,0,6.707-4.876,9.755-2.133c3.049,2.743,3.353,16.156,0.609,17.681
			C362.567,274.265,353.422,277.924,354.946,257.194z"/>
		<path style="opacity:0.3;fill:#FFFFD6;" d="M232.25,105.331c-0.001,0.004,0.494-1.586,1.401-4.008
			c-8.507,4.57-17.453,10.053-26.751,16.649c-0.857,2.914-1.287,4.916-1.291,4.911c-0.009-0.014-1.488,6.087-1.532,12.812
			c-0.11,4.17,0.556,8.445,1.295,11.626c7.725-5.496,15.626-10.111,23.549-13.611c-0.434-3.874-0.607-8.612-0.036-13.083
			C229.756,112.358,232.244,105.31,232.25,105.331z"/>
	</g>
	<g id="eye">
		<circle style="fill:#D9E1E4;" cx="408.236" cy="111.374" r="39.125"/>
		
			<ellipse transform="matrix(0.7963 0.6049 -0.6049 0.7963 141.6436 -237.3049)" style="fill:#E9F2F5;" cx="423.198" cy="91.676" rx="19.304" ry="11.768"/>
		
			<ellipse transform="matrix(-0.7971 -0.6039 0.6039 -0.7971 617.6347 478.3649)" style="fill:#E9F2F5;" cx="389.192" cy="135.407" rx="10.709" ry="6.528"/>
		<circle style="fill:#486257;" cx="402.091" cy="89.71" r="9.7"/>
		<circle style="fill:#28362F;" cx="403.143" cy="87.527" r="3.799"/>
	</g>
</g>
</svg>
